<svg width="730" height="423" viewBox="0 0 730 423" fill="none" xmlns="http://www.w3.org/2000/svg">
<rect width="730" height="423" fill="white"/>
<rect x="173" y="20" width="528" height="383" rx="1" fill="white" stroke="black" stroke-width="2"/>
<path d="M182.479 38.5532L186.04 28.689H187.694L191.256 38.5532H189.643L188.754 35.8872H184.98L184.085 38.5532H182.479ZM186.806 30.4185L185.391 34.6567H188.344L186.922 30.4185H186.806ZM194.223 38.5532L191.563 28.689H193.156L194.968 36.3589H195.063L197.121 28.689H198.543L200.614 36.3589H200.71L202.515 28.689H204.107L201.441 38.5532H199.999L197.88 31.1772H197.784L195.672 38.5532H194.223ZM209.269 38.7925C207.04 38.7925 205.611 37.6646 205.475 36.0034L205.468 35.9146H206.972L206.979 35.9897C207.061 36.8853 208.011 37.4595 209.33 37.4595C210.588 37.4595 211.483 36.8306 211.483 35.9146V35.9077C211.483 35.1489 210.95 34.6567 209.645 34.3765L208.564 34.144C206.562 33.7202 205.7 32.7905 205.7 31.3345V31.3276C205.707 29.6255 207.184 28.4497 209.275 28.4497C211.367 28.4497 212.734 29.6323 212.844 31.1636L212.851 31.2593H211.367L211.354 31.1704C211.224 30.3638 210.451 29.7759 209.255 29.7827C208.1 29.7827 207.245 30.3228 207.245 31.2524V31.2593C207.245 31.9907 207.765 32.4692 209.043 32.7427L210.116 32.9819C212.188 33.4263 213.035 34.2603 213.035 35.7231V35.73C213.035 37.6167 211.565 38.7925 209.269 38.7925ZM222.927 38.7925C220.186 38.7925 218.477 36.8101 218.477 33.6313V33.6177C218.477 30.4321 220.179 28.4497 222.92 28.4497C225.094 28.4497 226.762 29.8237 227.021 31.7856L227.015 31.8198H225.497V31.7993C225.21 30.5894 224.219 29.8032 222.92 29.8032C221.149 29.8032 220.042 31.2729 220.042 33.6177V33.6313C220.042 35.9692 221.149 37.439 222.927 37.439C224.232 37.439 225.21 36.7417 225.49 35.6274L225.504 35.6001H227.021V35.6411C226.734 37.5347 225.128 38.7925 222.927 38.7925ZM228.936 38.5532V28.2173H230.419V38.5532H228.936ZM235.771 38.6968C233.591 38.6968 232.258 37.2407 232.258 34.8481V34.8345C232.258 32.4487 233.598 30.9858 235.771 30.9858C237.938 30.9858 239.278 32.4419 239.278 34.8345V34.8481C239.278 37.2407 237.945 38.6968 235.771 38.6968ZM235.771 37.4595C237.043 37.4595 237.768 36.4888 237.768 34.8481V34.8345C237.768 33.187 237.043 32.2231 235.771 32.2231C234.493 32.2231 233.775 33.187 233.775 34.8345V34.8481C233.775 36.4956 234.493 37.4595 235.771 37.4595ZM243.523 38.6968C241.849 38.6968 240.98 37.6919 240.98 35.9351V31.1294H242.464V35.5864C242.464 36.8169 242.915 37.4253 244.002 37.4253C245.191 37.4253 245.827 36.6802 245.827 35.4839V31.1294H247.304V38.5532H245.827V37.4321H245.711C245.355 38.2319 244.604 38.6968 243.523 38.6968ZM252.15 38.6763C250.284 38.6763 249.074 37.1792 249.074 34.8481V34.8345C249.074 32.4829 250.264 30.9995 252.15 30.9995C253.169 30.9995 254.037 31.5054 254.434 32.3052H254.55V28.2173H256.026V38.5532H254.55V37.3843H254.434C254.003 38.1978 253.189 38.6763 252.15 38.6763ZM252.574 37.4116C253.812 37.4116 254.57 36.4341 254.57 34.8481V34.8345C254.57 33.2485 253.805 32.271 252.574 32.271C251.33 32.271 250.585 33.2417 250.585 34.8345V34.8481C250.585 36.4409 251.33 37.4116 252.574 37.4116Z" fill="black"/>
<rect x="185" y="51" width="502" height="320" rx="1" stroke="#2978C7" stroke-width="2" stroke-dasharray="6 6"/>
<path d="M195.237 70V60.1357H199.127C201.15 60.1357 202.408 61.3115 202.408 63.1436V63.1572C202.408 64.4834 201.697 65.5635 200.494 65.9668L202.709 70H200.938L198.929 66.2061H196.769V70H195.237ZM196.769 64.9619H198.977C200.152 64.9619 200.836 64.3193 200.836 63.1982V63.1846C200.836 62.0908 200.111 61.4209 198.929 61.4209H196.769V64.9619ZM207.316 70.1436C205.143 70.1436 203.83 68.6602 203.83 66.3086V66.3018C203.83 63.9844 205.17 62.4326 207.241 62.4326C209.312 62.4326 210.584 63.9297 210.584 66.1582V66.6777H205.32C205.348 68.0996 206.127 68.9268 207.351 68.9268C208.301 68.9268 208.868 68.4551 209.046 68.0723L209.073 68.0176L210.502 68.0107L210.488 68.0723C210.242 69.0498 209.217 70.1436 207.316 70.1436ZM207.248 63.6494C206.236 63.6494 205.471 64.3398 205.341 65.6182H209.114C208.998 64.292 208.253 63.6494 207.248 63.6494ZM215.485 72.6182C213.599 72.6182 212.437 71.791 212.259 70.5537L212.272 70.54H213.77L213.776 70.5537C213.899 71.0664 214.501 71.4287 215.506 71.4287C216.729 71.4287 217.454 70.8545 217.454 69.8428V68.3799H217.345C216.894 69.1865 216.073 69.6377 215.055 69.6377C213.147 69.6377 211.972 68.168 211.972 66.0762V66.0625C211.972 63.9434 213.154 62.4463 215.082 62.4463C216.121 62.4463 216.928 62.959 217.358 63.793H217.447V62.5762H218.924V69.8496C218.924 71.5381 217.591 72.6182 215.485 72.6182ZM215.465 68.4141C216.723 68.4141 217.481 67.457 217.481 66.0693V66.0557C217.481 64.6748 216.716 63.7041 215.465 63.7041C214.2 63.7041 213.489 64.6748 213.489 66.0557V66.0693C213.489 67.4502 214.2 68.4141 215.465 68.4141ZM221.829 61.25C221.316 61.25 220.899 60.833 220.899 60.3271C220.899 59.8145 221.316 59.3975 221.829 59.3975C222.335 59.3975 222.759 59.8145 222.759 60.3271C222.759 60.833 222.335 61.25 221.829 61.25ZM221.084 70V62.5762H222.561V70H221.084ZM227.865 70.1436C225.685 70.1436 224.352 68.6875 224.352 66.2949V66.2812C224.352 63.8955 225.691 62.4326 227.865 62.4326C230.032 62.4326 231.372 63.8887 231.372 66.2812V66.2949C231.372 68.6875 230.039 70.1436 227.865 70.1436ZM227.865 68.9062C229.137 68.9062 229.861 67.9355 229.861 66.2949V66.2812C229.861 64.6338 229.137 63.6699 227.865 63.6699C226.587 63.6699 225.869 64.6338 225.869 66.2812V66.2949C225.869 67.9424 226.587 68.9062 227.865 68.9062ZM233.143 70V62.5762H234.626V63.7041H234.735C235.098 62.9111 235.809 62.4326 236.889 62.4326C238.55 62.4326 239.466 63.4238 239.466 65.1943V70H237.989V65.543C237.989 64.3125 237.477 63.7041 236.39 63.7041C235.303 63.7041 234.626 64.4492 234.626 65.6455V70H233.143Z" fill="#2978C7"/>
<rect x="195" y="80" width="477" height="263" rx="1" stroke="#3D9E54" stroke-width="2"/>
<path d="M205.065 99V89.1357H208.627C211.553 89.1357 213.269 90.9404 213.269 94.0371V94.0508C213.269 97.1816 211.566 99 208.627 99H205.065ZM206.597 97.6807H208.456C210.521 97.6807 211.71 96.3613 211.71 94.0713V94.0576C211.71 91.7881 210.5 90.4551 208.456 90.4551H206.597V97.6807ZM218.293 99.1436C216.119 99.1436 214.807 97.6602 214.807 95.3086V95.3018C214.807 92.9844 216.146 91.4326 218.218 91.4326C220.289 91.4326 221.561 92.9297 221.561 95.1582V95.6777H216.297C216.324 97.0996 217.104 97.9268 218.327 97.9268C219.277 97.9268 219.845 97.4551 220.022 97.0723L220.05 97.0176L221.479 97.0107L221.465 97.0723C221.219 98.0498 220.193 99.1436 218.293 99.1436ZM218.225 92.6494C217.213 92.6494 216.447 93.3398 216.317 94.6182H220.091C219.975 93.292 219.229 92.6494 218.225 92.6494ZM223.851 99V92.7451H222.627V91.5762H223.851V90.7969C223.851 89.3203 224.603 88.5957 226.147 88.5957C226.482 88.5957 226.77 88.623 227.022 88.6641V89.751C226.886 89.7305 226.688 89.7168 226.455 89.7168C225.635 89.7168 225.313 90.1133 225.313 90.8652V91.5762H226.961V92.7451H225.327V99H223.851ZM230.447 99.123C229.032 99.123 227.986 98.2617 227.986 96.915V96.9014C227.986 95.5752 228.984 94.8027 230.755 94.6934L232.765 94.5771V93.9209C232.765 93.1074 232.252 92.6562 231.247 92.6562C230.427 92.6562 229.887 92.957 229.709 93.4834L229.702 93.5107H228.273L228.28 93.4629C228.458 92.2461 229.627 91.4326 231.315 91.4326C233.182 91.4326 234.234 92.3623 234.234 93.9209V99H232.765V97.9473H232.648C232.211 98.6992 231.432 99.123 230.447 99.123ZM229.463 96.8535C229.463 97.5371 230.044 97.9404 230.844 97.9404C231.951 97.9404 232.765 97.2158 232.765 96.2588V95.623L230.953 95.7393C229.928 95.8008 229.463 96.1699 229.463 96.8398V96.8535ZM238.801 99.1436C237.126 99.1436 236.258 98.1387 236.258 96.3818V91.5762H237.741V96.0332C237.741 97.2637 238.192 97.8721 239.279 97.8721C240.469 97.8721 241.104 97.127 241.104 95.9307V91.5762H242.581V99H241.104V97.8789H240.988C240.633 98.6787 239.881 99.1436 238.801 99.1436ZM244.789 99V88.6641H246.272V99H244.789ZM251.283 99.0479C249.649 99.0479 248.979 98.4736 248.979 97.0449V92.7451H247.817V91.5762H248.979V89.7031H250.49V91.5762H252.083V92.7451H250.49V96.6895C250.49 97.4893 250.791 97.8174 251.522 97.8174C251.748 97.8174 251.878 97.8105 252.083 97.79V98.9727C251.844 99.0137 251.57 99.0479 251.283 99.0479ZM260.566 99L257.053 89.1357H258.714L261.353 97.1543H261.469L264.107 89.1357H265.769L262.255 99H260.566ZM267.491 99V89.1357H271.333C273.268 89.1357 274.607 90.4346 274.607 92.3691V92.3828C274.607 94.3105 273.268 95.6299 271.333 95.6299H269.022V99H267.491ZM270.95 90.4277H269.022V94.3447H270.95C272.276 94.3447 273.049 93.627 273.049 92.3896V92.376C273.049 91.1455 272.276 90.4277 270.95 90.4277ZM280.63 99.2393C277.889 99.2393 276.18 97.2568 276.18 94.0781V94.0645C276.18 90.8789 277.882 88.8965 280.623 88.8965C282.797 88.8965 284.465 90.2705 284.725 92.2324L284.718 92.2666H283.2V92.2461C282.913 91.0361 281.922 90.25 280.623 90.25C278.853 90.25 277.745 91.7197 277.745 94.0645V94.0781C277.745 96.416 278.853 97.8857 280.63 97.8857C281.936 97.8857 282.913 97.1885 283.193 96.0742L283.207 96.0469H284.725V96.0879C284.438 97.9814 282.831 99.2393 280.63 99.2393Z" fill="#3D9E54"/>
<rect x="206" y="108" width="228" height="205" rx="1" stroke="#2978C7" stroke-width="2" stroke-dasharray="6 4"/>
<path d="M214.169 128L217.73 118.136H219.385L222.946 128H221.333L220.444 125.334H216.671L215.775 128H214.169ZM218.496 119.865L217.081 124.104H220.034L218.612 119.865H218.496ZM225.605 128L222.919 120.576H224.491L226.344 126.496H226.46L228.306 120.576H229.864L227.185 128H225.605ZM233.132 128.123C231.717 128.123 230.671 127.262 230.671 125.915V125.901C230.671 124.575 231.669 123.803 233.439 123.693L235.449 123.577V122.921C235.449 122.107 234.937 121.656 233.932 121.656C233.111 121.656 232.571 121.957 232.394 122.483L232.387 122.511H230.958L230.965 122.463C231.143 121.246 232.312 120.433 234 120.433C235.866 120.433 236.919 121.362 236.919 122.921V128H235.449V126.947H235.333C234.896 127.699 234.116 128.123 233.132 128.123ZM232.147 125.854C232.147 126.537 232.729 126.94 233.528 126.94C234.636 126.94 235.449 126.216 235.449 125.259V124.623L233.638 124.739C232.612 124.801 232.147 125.17 232.147 125.84V125.854ZM239.783 119.25C239.271 119.25 238.854 118.833 238.854 118.327C238.854 117.814 239.271 117.397 239.783 117.397C240.289 117.397 240.713 117.814 240.713 118.327C240.713 118.833 240.289 119.25 239.783 119.25ZM239.038 128V120.576H240.515V128H239.038ZM242.743 128V117.664H244.227V128H242.743ZM248.472 128.123C247.057 128.123 246.011 127.262 246.011 125.915V125.901C246.011 124.575 247.009 123.803 248.779 123.693L250.789 123.577V122.921C250.789 122.107 250.276 121.656 249.271 121.656C248.451 121.656 247.911 121.957 247.733 122.483L247.727 122.511H246.298L246.305 122.463C246.482 121.246 247.651 120.433 249.34 120.433C251.206 120.433 252.259 121.362 252.259 122.921V128H250.789V126.947H250.673C250.235 127.699 249.456 128.123 248.472 128.123ZM247.487 125.854C247.487 126.537 248.068 126.94 248.868 126.94C249.976 126.94 250.789 126.216 250.789 125.259V124.623L248.978 124.739C247.952 124.801 247.487 125.17 247.487 125.84V125.854ZM258.295 128.123C257.256 128.123 256.442 127.645 256.012 126.831H255.902V128H254.419V117.664H255.902V121.752H256.012C256.408 120.952 257.276 120.446 258.295 120.446C260.182 120.446 261.371 121.93 261.371 124.281V124.295C261.371 126.626 260.168 128.123 258.295 128.123ZM257.878 126.858C259.115 126.858 259.86 125.888 259.86 124.295V124.281C259.86 122.688 259.115 121.718 257.878 121.718C256.641 121.718 255.875 122.695 255.875 124.281V124.295C255.875 125.881 256.641 126.858 257.878 126.858ZM263.914 119.25C263.401 119.25 262.984 118.833 262.984 118.327C262.984 117.814 263.401 117.397 263.914 117.397C264.42 117.397 264.844 117.814 264.844 118.327C264.844 118.833 264.42 119.25 263.914 119.25ZM263.169 128V120.576H264.646V128H263.169ZM266.874 128V117.664H268.357V128H266.874ZM271.338 119.25C270.825 119.25 270.408 118.833 270.408 118.327C270.408 117.814 270.825 117.397 271.338 117.397C271.844 117.397 272.268 117.814 272.268 118.327C272.268 118.833 271.844 119.25 271.338 119.25ZM270.593 128V120.576H272.069V128H270.593ZM277.032 128.048C275.398 128.048 274.729 127.474 274.729 126.045V121.745H273.566V120.576H274.729V118.703H276.239V120.576H277.832V121.745H276.239V125.689C276.239 126.489 276.54 126.817 277.271 126.817C277.497 126.817 277.627 126.811 277.832 126.79V127.973C277.593 128.014 277.319 128.048 277.032 128.048ZM280.286 130.611C280.102 130.611 279.883 130.598 279.691 130.577V129.408C279.835 129.429 280.02 129.436 280.19 129.436C280.881 129.436 281.298 129.142 281.517 128.39L281.626 128.007L278.933 120.576H280.532L282.392 126.51H282.521L284.374 120.576H285.933L283.171 128.287C282.542 130.058 281.79 130.611 280.286 130.611ZM291.162 128V126.954L296.521 119.571V119.455H291.326V118.136H298.442V119.182L293.11 126.564V126.681H298.572V128H291.162ZM303.556 128.144C301.375 128.144 300.042 126.688 300.042 124.295V124.281C300.042 121.896 301.382 120.433 303.556 120.433C305.723 120.433 307.062 121.889 307.062 124.281V124.295C307.062 126.688 305.729 128.144 303.556 128.144ZM303.556 126.906C304.827 126.906 305.552 125.936 305.552 124.295V124.281C305.552 122.634 304.827 121.67 303.556 121.67C302.277 121.67 301.56 122.634 301.56 124.281V124.295C301.56 125.942 302.277 126.906 303.556 126.906ZM308.833 128V120.576H310.316V121.704H310.426C310.788 120.911 311.499 120.433 312.579 120.433C314.24 120.433 315.156 121.424 315.156 123.194V128H313.68V123.543C313.68 122.312 313.167 121.704 312.08 121.704C310.993 121.704 310.316 122.449 310.316 123.646V128H308.833ZM320.345 128.144C318.171 128.144 316.858 126.66 316.858 124.309V124.302C316.858 121.984 318.198 120.433 320.27 120.433C322.341 120.433 323.612 121.93 323.612 124.158V124.678H318.349C318.376 126.1 319.155 126.927 320.379 126.927C321.329 126.927 321.896 126.455 322.074 126.072L322.102 126.018L323.53 126.011L323.517 126.072C323.271 127.05 322.245 128.144 320.345 128.144ZM320.276 121.649C319.265 121.649 318.499 122.34 318.369 123.618H322.143C322.026 122.292 321.281 121.649 320.276 121.649Z" fill="#2978C7"/>
<path d="M218 139H398.5C399.052 139 399.5 139.448 399.5 140V283C399.5 283.552 399.052 284 398.5 284H218C217.448 284 217 283.552 217 283V140C217 139.448 217.448 139 218 139Z" stroke="#3D9E54" stroke-width="2"/>
<path d="M227.237 160V150.136H231.079C233.014 150.136 234.354 151.435 234.354 153.369V153.383C234.354 155.311 233.014 156.63 231.079 156.63H228.769V160H227.237ZM230.696 151.428H228.769V155.345H230.696C232.022 155.345 232.795 154.627 232.795 153.39V153.376C232.795 152.146 232.022 151.428 230.696 151.428ZM238.633 160.144C236.958 160.144 236.09 159.139 236.09 157.382V152.576H237.573V157.033C237.573 158.264 238.024 158.872 239.111 158.872C240.301 158.872 240.937 158.127 240.937 156.931V152.576H242.413V160H240.937V158.879H240.82C240.465 159.679 239.713 160.144 238.633 160.144ZM248.497 160.123C247.458 160.123 246.645 159.645 246.214 158.831H246.104V160H244.621V149.664H246.104V153.752H246.214C246.61 152.952 247.479 152.446 248.497 152.446C250.384 152.446 251.573 153.93 251.573 156.281V156.295C251.573 158.626 250.37 160.123 248.497 160.123ZM248.08 158.858C249.317 158.858 250.062 157.888 250.062 156.295V156.281C250.062 154.688 249.317 153.718 248.08 153.718C246.843 153.718 246.077 154.695 246.077 156.281V156.295C246.077 157.881 246.843 158.858 248.08 158.858ZM253.412 160V149.664H254.896V160H253.412ZM257.876 151.25C257.363 151.25 256.946 150.833 256.946 150.327C256.946 149.814 257.363 149.397 257.876 149.397C258.382 149.397 258.806 149.814 258.806 150.327C258.806 150.833 258.382 151.25 257.876 151.25ZM257.131 160V152.576H258.607V160H257.131ZM263.892 160.144C261.725 160.144 260.398 158.667 260.398 156.268V156.254C260.398 153.902 261.718 152.433 263.885 152.433C265.751 152.433 266.865 153.485 267.07 154.928V154.962L265.648 154.969L265.642 154.948C265.478 154.217 264.876 153.67 263.892 153.67C262.654 153.67 261.909 154.654 261.909 156.254V156.268C261.909 157.908 262.668 158.906 263.892 158.906C264.821 158.906 265.396 158.482 265.635 157.683L265.648 157.648H267.07L267.057 157.71C266.79 159.152 265.73 160.144 263.892 160.144ZM275.28 160.144C273.489 160.144 272.354 159.303 272.211 158.059V158.052H273.694L273.701 158.059C273.886 158.619 274.426 158.995 275.308 158.995C276.224 158.995 276.859 158.578 276.859 157.97V157.956C276.859 157.491 276.511 157.177 275.649 156.979L274.467 156.705C273.065 156.384 272.416 155.748 272.416 154.661V154.654C272.416 153.362 273.619 152.433 275.301 152.433C276.996 152.433 278.083 153.28 278.213 154.49V154.497H276.798V154.483C276.654 153.964 276.128 153.574 275.294 153.574C274.48 153.574 273.893 153.978 273.893 154.572V154.586C273.893 155.051 274.234 155.338 275.068 155.536L276.244 155.803C277.673 156.138 278.356 156.746 278.356 157.819V157.833C278.356 159.207 277.044 160.144 275.28 160.144ZM282.602 160.144C280.927 160.144 280.059 159.139 280.059 157.382V152.576H281.542V157.033C281.542 158.264 281.993 158.872 283.08 158.872C284.27 158.872 284.905 158.127 284.905 156.931V152.576H286.382V160H284.905V158.879H284.789C284.434 159.679 283.682 160.144 282.602 160.144ZM292.466 160.123C291.427 160.123 290.613 159.645 290.183 158.831H290.073V160H288.59V149.664H290.073V153.752H290.183C290.579 152.952 291.447 152.446 292.466 152.446C294.353 152.446 295.542 153.93 295.542 156.281V156.295C295.542 158.626 294.339 160.123 292.466 160.123ZM292.049 158.858C293.286 158.858 294.031 157.888 294.031 156.295V156.281C294.031 154.688 293.286 153.718 292.049 153.718C290.812 153.718 290.046 154.695 290.046 156.281V156.295C290.046 157.881 290.812 158.858 292.049 158.858ZM297.312 160V152.576H298.796V153.704H298.905C299.268 152.911 299.979 152.433 301.059 152.433C302.72 152.433 303.636 153.424 303.636 155.194V160H302.159V155.543C302.159 154.312 301.646 153.704 300.56 153.704C299.473 153.704 298.796 154.449 298.796 155.646V160H297.312ZM308.824 160.144C306.65 160.144 305.338 158.66 305.338 156.309V156.302C305.338 153.984 306.678 152.433 308.749 152.433C310.82 152.433 312.092 153.93 312.092 156.158V156.678H306.828C306.855 158.1 307.635 158.927 308.858 158.927C309.809 158.927 310.376 158.455 310.554 158.072L310.581 158.018L312.01 158.011L311.996 158.072C311.75 159.05 310.725 160.144 308.824 160.144ZM308.756 153.649C307.744 153.649 306.979 154.34 306.849 155.618H310.622C310.506 154.292 309.761 153.649 308.756 153.649ZM316.658 160.048C315.024 160.048 314.354 159.474 314.354 158.045V153.745H313.192V152.576H314.354V150.703H315.865V152.576H317.458V153.745H315.865V157.689C315.865 158.489 316.166 158.817 316.897 158.817C317.123 158.817 317.253 158.811 317.458 158.79V159.973C317.219 160.014 316.945 160.048 316.658 160.048Z" fill="#3D9E54"/>
<rect x="242" y="181" width="129" height="70" rx="2" fill="url(#paint0_linear_5862_988)"/>
<path d="M264.692 212L268.254 202.136H269.908L273.47 212H271.856L270.968 209.334H267.194L266.299 212H264.692ZM269.02 203.865L267.604 208.104H270.558L269.136 203.865H269.02ZM275.015 212V204.576H276.498V205.718H276.607C276.936 204.904 277.66 204.433 278.631 204.433C279.643 204.433 280.36 204.959 280.688 205.759H280.805C281.181 204.959 282.035 204.433 283.067 204.433C284.564 204.433 285.439 205.335 285.439 206.88V212H283.963V207.235C283.963 206.21 283.498 205.704 282.527 205.704C281.584 205.704 280.962 206.408 280.962 207.304V212H279.485V207.085C279.485 206.237 278.932 205.704 278.057 205.704C277.161 205.704 276.498 206.47 276.498 207.44V212H275.015ZM289.548 212.123C288.133 212.123 287.087 211.262 287.087 209.915V209.901C287.087 208.575 288.085 207.803 289.855 207.693L291.865 207.577V206.921C291.865 206.107 291.353 205.656 290.348 205.656C289.527 205.656 288.987 205.957 288.81 206.483L288.803 206.511H287.374L287.381 206.463C287.559 205.246 288.728 204.433 290.416 204.433C292.282 204.433 293.335 205.362 293.335 206.921V212H291.865V210.947H291.749C291.312 211.699 290.532 212.123 289.548 212.123ZM288.563 209.854C288.563 210.537 289.145 210.94 289.944 210.94C291.052 210.94 291.865 210.216 291.865 209.259V208.623L290.054 208.739C289.028 208.801 288.563 209.17 288.563 209.84V209.854ZM295.256 212V211.036L299.357 205.861V205.745H295.283V204.576H301.107V205.595L297.095 210.715V210.831H301.148V212H295.256ZM306.063 212.144C303.883 212.144 302.55 210.688 302.55 208.295V208.281C302.55 205.896 303.89 204.433 306.063 204.433C308.23 204.433 309.57 205.889 309.57 208.281V208.295C309.57 210.688 308.237 212.144 306.063 212.144ZM306.063 210.906C307.335 210.906 308.06 209.936 308.06 208.295V208.281C308.06 206.634 307.335 205.67 306.063 205.67C304.785 205.67 304.067 206.634 304.067 208.281V208.295C304.067 209.942 304.785 210.906 306.063 210.906ZM311.341 212V204.576H312.824V205.704H312.934C313.296 204.911 314.007 204.433 315.087 204.433C316.748 204.433 317.664 205.424 317.664 207.194V212H316.188V207.543C316.188 206.312 315.675 205.704 314.588 205.704C313.501 205.704 312.824 206.449 312.824 207.646V212H311.341ZM323.734 212V202.136H329.996V203.455H325.266V206.34H329.743V207.611H325.266V210.681H329.996V212H323.734ZM336.258 212.239C333.517 212.239 331.808 210.257 331.808 207.078V207.064C331.808 203.879 333.51 201.896 336.251 201.896C338.425 201.896 340.093 203.271 340.353 205.232L340.346 205.267H338.828V205.246C338.541 204.036 337.55 203.25 336.251 203.25C334.48 203.25 333.373 204.72 333.373 207.064V207.078C333.373 209.416 334.48 210.886 336.258 210.886C337.563 210.886 338.541 210.188 338.821 209.074L338.835 209.047H340.353V209.088C340.065 210.981 338.459 212.239 336.258 212.239ZM342.198 212V210.961L345.473 207.522C346.778 206.162 347.154 205.656 347.154 204.856V204.836C347.154 203.872 346.491 203.161 345.411 203.161C344.304 203.161 343.565 203.886 343.565 204.966L343.559 204.986H342.123L342.109 204.973C342.116 203.168 343.511 201.896 345.493 201.896C347.332 201.896 348.686 203.065 348.686 204.692V204.713C348.686 205.834 348.166 206.695 346.375 208.473L344.283 210.558V210.694H348.843V212H342.198ZM271.897 231.475C270.544 229.731 269.922 227.626 269.922 225.069C269.922 222.513 270.544 220.4 271.897 218.664H273.196C272.191 219.942 271.439 222.67 271.439 225.069C271.439 227.482 272.191 230.196 273.196 231.475H271.897ZM275.145 229V219.136H279.034C281.058 219.136 282.315 220.312 282.315 222.144V222.157C282.315 223.483 281.604 224.563 280.401 224.967L282.616 229H280.846L278.836 225.206H276.676V229H275.145ZM276.676 223.962H278.884C280.06 223.962 280.743 223.319 280.743 222.198V222.185C280.743 221.091 280.019 220.421 278.836 220.421H276.676V223.962ZM284.496 229V219.136H288.338C290.272 219.136 291.612 220.435 291.612 222.369V222.383C291.612 224.311 290.272 225.63 288.338 225.63H286.027V229H284.496ZM287.955 220.428H286.027V224.345H287.955C289.281 224.345 290.054 223.627 290.054 222.39V222.376C290.054 221.146 289.281 220.428 287.955 220.428ZM297.635 229.239C294.894 229.239 293.185 227.257 293.185 224.078V224.064C293.185 220.879 294.887 218.896 297.628 218.896C299.802 218.896 301.47 220.271 301.729 222.232L301.723 222.267H300.205V222.246C299.918 221.036 298.927 220.25 297.628 220.25C295.857 220.25 294.75 221.72 294.75 224.064V224.078C294.75 226.416 295.857 227.886 297.635 227.886C298.94 227.886 299.918 227.188 300.198 226.074L300.212 226.047H301.729V226.088C301.442 227.981 299.836 229.239 297.635 229.239ZM307.403 229V221.576H308.887V222.704H308.996C309.358 221.911 310.069 221.433 311.149 221.433C312.811 221.433 313.727 222.424 313.727 224.194V229H312.25V224.543C312.25 223.312 311.737 222.704 310.65 222.704C309.563 222.704 308.887 223.449 308.887 224.646V229H307.403ZM318.942 229.144C316.762 229.144 315.429 227.688 315.429 225.295V225.281C315.429 222.896 316.769 221.433 318.942 221.433C321.109 221.433 322.449 222.889 322.449 225.281V225.295C322.449 227.688 321.116 229.144 318.942 229.144ZM318.942 227.906C320.214 227.906 320.938 226.936 320.938 225.295V225.281C320.938 223.634 320.214 222.67 318.942 222.67C317.664 222.67 316.946 223.634 316.946 225.281V225.295C316.946 226.942 317.664 227.906 318.942 227.906ZM326.927 229.123C325.061 229.123 323.851 227.626 323.851 225.295V225.281C323.851 222.93 325.04 221.446 326.927 221.446C327.945 221.446 328.813 221.952 329.21 222.752H329.326V218.664H330.803V229H329.326V227.831H329.21C328.779 228.645 327.966 229.123 326.927 229.123ZM327.351 227.858C328.588 227.858 329.347 226.881 329.347 225.295V225.281C329.347 223.695 328.581 222.718 327.351 222.718C326.106 222.718 325.361 223.688 325.361 225.281V225.295C325.361 226.888 326.106 227.858 327.351 227.858ZM336.128 229.144C333.954 229.144 332.642 227.66 332.642 225.309V225.302C332.642 222.984 333.981 221.433 336.053 221.433C338.124 221.433 339.396 222.93 339.396 225.158V225.678H334.132C334.159 227.1 334.938 227.927 336.162 227.927C337.112 227.927 337.68 227.455 337.857 227.072L337.885 227.018L339.313 227.011L339.3 227.072C339.054 228.05 338.028 229.144 336.128 229.144ZM336.06 222.649C335.048 222.649 334.282 223.34 334.152 224.618H337.926C337.81 223.292 337.064 222.649 336.06 222.649ZM342.096 231.475H340.797C341.802 230.196 342.554 227.482 342.554 225.069C342.554 222.67 341.802 219.942 340.797 218.664H342.096C343.449 220.4 344.064 222.513 344.064 225.069C344.064 227.626 343.442 229.731 342.096 231.475Z" fill="white"/>
<rect x="494" y="139" width="150" height="44" rx="2" fill="url(#paint1_linear_5862_988)"/>
<path d="M548.643 166V156.136H552.204C555.13 156.136 556.846 157.94 556.846 161.037V161.051C556.846 164.182 555.144 166 552.204 166H548.643ZM550.174 164.681H552.033C554.098 164.681 555.287 163.361 555.287 161.071V161.058C555.287 158.788 554.077 157.455 552.033 157.455H550.174V164.681ZM560.763 166.123C559.348 166.123 558.302 165.262 558.302 163.915V163.901C558.302 162.575 559.3 161.803 561.07 161.693L563.08 161.577V160.921C563.08 160.107 562.567 159.656 561.562 159.656C560.742 159.656 560.202 159.957 560.024 160.483L560.018 160.511H558.589L558.596 160.463C558.773 159.246 559.942 158.433 561.631 158.433C563.497 158.433 564.55 159.362 564.55 160.921V166H563.08V164.947H562.964C562.526 165.699 561.747 166.123 560.763 166.123ZM559.778 163.854C559.778 164.537 560.359 164.94 561.159 164.94C562.267 164.94 563.08 164.216 563.08 163.259V162.623L561.269 162.739C560.243 162.801 559.778 163.17 559.778 163.84V163.854ZM566.642 168.475V158.576H568.125V159.745H568.234C568.665 158.932 569.479 158.446 570.518 158.446C572.391 158.446 573.594 159.943 573.594 162.281V162.295C573.594 164.646 572.404 166.123 570.518 166.123C569.499 166.123 568.631 165.624 568.234 164.824H568.125V168.475H566.642ZM570.101 164.858C571.338 164.858 572.083 163.888 572.083 162.295V162.281C572.083 160.682 571.338 159.718 570.101 159.718C568.863 159.718 568.098 160.695 568.098 162.281V162.295C568.098 163.881 568.863 164.858 570.101 164.858ZM575.378 168.475V158.576H576.861V159.745H576.971C577.401 158.932 578.215 158.446 579.254 158.446C581.127 158.446 582.33 159.943 582.33 162.281V162.295C582.33 164.646 581.141 166.123 579.254 166.123C578.235 166.123 577.367 165.624 576.971 164.824H576.861V168.475H575.378ZM578.837 164.858C580.074 164.858 580.819 163.888 580.819 162.295V162.281C580.819 160.682 580.074 159.718 578.837 159.718C577.6 159.718 576.834 160.695 576.834 162.281V162.295C576.834 163.881 577.6 164.858 578.837 164.858ZM586.814 166.144C585.023 166.144 583.889 165.303 583.745 164.059V164.052H585.229L585.235 164.059C585.42 164.619 585.96 164.995 586.842 164.995C587.758 164.995 588.394 164.578 588.394 163.97V163.956C588.394 163.491 588.045 163.177 587.184 162.979L586.001 162.705C584.6 162.384 583.95 161.748 583.95 160.661V160.654C583.95 159.362 585.153 158.433 586.835 158.433C588.53 158.433 589.617 159.28 589.747 160.49V160.497H588.332V160.483C588.188 159.964 587.662 159.574 586.828 159.574C586.015 159.574 585.427 159.978 585.427 160.572V160.586C585.427 161.051 585.769 161.338 586.603 161.536L587.778 161.803C589.207 162.138 589.891 162.746 589.891 163.819V163.833C589.891 165.207 588.578 166.144 586.814 166.144Z" fill="white"/>
<rect x="494" y="231" width="150" height="52" rx="2" fill="url(#paint2_linear_5862_988)"/>
<path d="M522.83 253.239C520.602 253.239 519.173 252.111 519.036 250.45L519.029 250.361H520.533L520.54 250.437C520.622 251.332 521.572 251.906 522.892 251.906C524.149 251.906 525.045 251.277 525.045 250.361V250.354C525.045 249.596 524.512 249.104 523.206 248.823L522.126 248.591C520.123 248.167 519.262 247.237 519.262 245.781V245.774C519.269 244.072 520.745 242.896 522.837 242.896C524.929 242.896 526.296 244.079 526.405 245.61L526.412 245.706H524.929L524.915 245.617C524.785 244.811 524.013 244.223 522.816 244.229C521.661 244.229 520.807 244.77 520.807 245.699V245.706C520.807 246.438 521.326 246.916 522.604 247.189L523.678 247.429C525.749 247.873 526.597 248.707 526.597 250.17V250.177C526.597 252.063 525.127 253.239 522.83 253.239ZM528.442 253V245.576H529.926V246.718H530.035C530.363 245.904 531.088 245.433 532.059 245.433C533.07 245.433 533.788 245.959 534.116 246.759H534.232C534.608 245.959 535.463 245.433 536.495 245.433C537.992 245.433 538.867 246.335 538.867 247.88V253H537.391V248.235C537.391 247.21 536.926 246.704 535.955 246.704C535.012 246.704 534.39 247.408 534.39 248.304V253H532.913V248.085C532.913 247.237 532.359 246.704 531.484 246.704C530.589 246.704 529.926 247.47 529.926 248.44V253H528.442ZM542.976 253.123C541.561 253.123 540.515 252.262 540.515 250.915V250.901C540.515 249.575 541.513 248.803 543.283 248.693L545.293 248.577V247.921C545.293 247.107 544.78 246.656 543.775 246.656C542.955 246.656 542.415 246.957 542.237 247.483L542.23 247.511H540.802L540.809 247.463C540.986 246.246 542.155 245.433 543.844 245.433C545.71 245.433 546.763 246.362 546.763 247.921V253H545.293V251.947H545.177C544.739 252.699 543.96 253.123 542.976 253.123ZM541.991 250.854C541.991 251.537 542.572 251.94 543.372 251.94C544.479 251.94 545.293 251.216 545.293 250.259V249.623L543.481 249.739C542.456 249.801 541.991 250.17 541.991 250.84V250.854ZM548.854 253V245.576H550.338V246.697H550.447C550.714 245.911 551.404 245.446 552.396 245.446C552.635 245.446 552.895 245.48 553.045 245.515V246.882C552.778 246.827 552.525 246.793 552.245 246.793C551.11 246.793 550.338 247.49 550.338 248.563V253H548.854ZM557.413 253.048C555.779 253.048 555.109 252.474 555.109 251.045V246.745H553.947V245.576H555.109V243.703H556.62V245.576H558.213V246.745H556.62V250.689C556.62 251.489 556.921 251.817 557.652 251.817C557.878 251.817 558.008 251.811 558.213 251.79V252.973C557.974 253.014 557.7 253.048 557.413 253.048ZM566.895 253.144C564.728 253.144 563.401 251.667 563.401 249.268V249.254C563.401 246.902 564.721 245.433 566.888 245.433C568.754 245.433 569.868 246.485 570.073 247.928V247.962L568.651 247.969L568.645 247.948C568.48 247.217 567.879 246.67 566.895 246.67C565.657 246.67 564.912 247.654 564.912 249.254V249.268C564.912 250.908 565.671 251.906 566.895 251.906C567.824 251.906 568.398 251.482 568.638 250.683L568.651 250.648H570.073L570.06 250.71C569.793 252.152 568.733 253.144 566.895 253.144ZM574.899 253.144C572.719 253.144 571.386 251.688 571.386 249.295V249.281C571.386 246.896 572.726 245.433 574.899 245.433C577.066 245.433 578.406 246.889 578.406 249.281V249.295C578.406 251.688 577.073 253.144 574.899 253.144ZM574.899 251.906C576.171 251.906 576.896 250.936 576.896 249.295V249.281C576.896 247.634 576.171 246.67 574.899 246.67C573.621 246.67 572.903 247.634 572.903 249.281V249.295C572.903 250.942 573.621 251.906 574.899 251.906ZM580.177 253V245.576H581.66V246.704H581.77C582.132 245.911 582.843 245.433 583.923 245.433C585.584 245.433 586.5 246.424 586.5 248.194V253H585.023V248.543C585.023 247.312 584.511 246.704 583.424 246.704C582.337 246.704 581.66 247.449 581.66 248.646V253H580.177ZM591.374 253.048C589.74 253.048 589.07 252.474 589.07 251.045V246.745H587.908V245.576H589.07V243.703H590.581V245.576H592.174V246.745H590.581V250.689C590.581 251.489 590.882 251.817 591.613 251.817C591.839 251.817 591.969 251.811 592.174 251.79V252.973C591.935 253.014 591.661 253.048 591.374 253.048ZM593.903 253V245.576H595.387V246.697H595.496C595.763 245.911 596.453 245.446 597.444 245.446C597.684 245.446 597.943 245.48 598.094 245.515V246.882C597.827 246.827 597.574 246.793 597.294 246.793C596.159 246.793 595.387 247.49 595.387 248.563V253H593.903ZM601.505 253.123C600.09 253.123 599.044 252.262 599.044 250.915V250.901C599.044 249.575 600.042 248.803 601.812 248.693L603.822 248.577V247.921C603.822 247.107 603.31 246.656 602.305 246.656C601.484 246.656 600.944 246.957 600.767 247.483L600.76 247.511H599.331L599.338 247.463C599.516 246.246 600.685 245.433 602.373 245.433C604.239 245.433 605.292 246.362 605.292 247.921V253H603.822V251.947H603.706C603.269 252.699 602.489 253.123 601.505 253.123ZM600.521 250.854C600.521 251.537 601.102 251.94 601.901 251.94C603.009 251.94 603.822 251.216 603.822 250.259V249.623L602.011 249.739C600.985 249.801 600.521 250.17 600.521 250.84V250.854ZM610.508 253.144C608.341 253.144 607.015 251.667 607.015 249.268V249.254C607.015 246.902 608.334 245.433 610.501 245.433C612.367 245.433 613.481 246.485 613.687 247.928V247.962L612.265 247.969L612.258 247.948C612.094 247.217 611.492 246.67 610.508 246.67C609.271 246.67 608.525 247.654 608.525 249.254V249.268C608.525 250.908 609.284 251.906 610.508 251.906C611.438 251.906 612.012 251.482 612.251 250.683L612.265 250.648H613.687L613.673 250.71C613.406 252.152 612.347 253.144 610.508 253.144ZM618.28 253.048C616.646 253.048 615.977 252.474 615.977 251.045V246.745H614.814V245.576H615.977V243.703H617.487V245.576H619.08V246.745H617.487V250.689C617.487 251.489 617.788 251.817 618.52 251.817C618.745 251.817 618.875 251.811 619.08 251.79V252.973C618.841 253.014 618.567 253.048 618.28 253.048ZM510.3 270.123C508.434 270.123 507.224 268.626 507.224 266.295V266.281C507.224 263.93 508.413 262.446 510.3 262.446C511.318 262.446 512.187 262.952 512.583 263.752H512.699V259.664H514.176V270H512.699V268.831H512.583C512.152 269.645 511.339 270.123 510.3 270.123ZM510.724 268.858C511.961 268.858 512.72 267.881 512.72 266.295V266.281C512.72 264.695 511.954 263.718 510.724 263.718C509.479 263.718 508.734 264.688 508.734 266.281V266.295C508.734 267.888 509.479 268.858 510.724 268.858ZM519.501 270.144C517.327 270.144 516.015 268.66 516.015 266.309V266.302C516.015 263.984 517.354 262.433 519.426 262.433C521.497 262.433 522.769 263.93 522.769 266.158V266.678H517.505C517.532 268.1 518.312 268.927 519.535 268.927C520.485 268.927 521.053 268.455 521.23 268.072L521.258 268.018L522.687 268.011L522.673 268.072C522.427 269.05 521.401 270.144 519.501 270.144ZM519.433 263.649C518.421 263.649 517.655 264.34 517.525 265.618H521.299C521.183 264.292 520.438 263.649 519.433 263.649ZM526.412 270L523.726 262.576H525.298L527.15 268.496H527.267L529.112 262.576H530.671L527.991 270H526.412ZM534.991 270.144C532.817 270.144 531.505 268.66 531.505 266.309V266.302C531.505 263.984 532.845 262.433 534.916 262.433C536.987 262.433 538.259 263.93 538.259 266.158V266.678H532.995C533.022 268.1 533.802 268.927 535.025 268.927C535.976 268.927 536.543 268.455 536.721 268.072L536.748 268.018L538.177 268.011L538.163 268.072C537.917 269.05 536.892 270.144 534.991 270.144ZM534.923 263.649C533.911 263.649 533.146 264.34 533.016 265.618H536.789C536.673 264.292 535.928 263.649 534.923 263.649ZM540.091 270V259.664H541.574V270H540.091ZM546.927 270.144C544.746 270.144 543.413 268.688 543.413 266.295V266.281C543.413 263.896 544.753 262.433 546.927 262.433C549.094 262.433 550.434 263.889 550.434 266.281V266.295C550.434 268.688 549.101 270.144 546.927 270.144ZM546.927 268.906C548.198 268.906 548.923 267.936 548.923 266.295V266.281C548.923 264.634 548.198 263.67 546.927 263.67C545.648 263.67 544.931 264.634 544.931 266.281V266.295C544.931 267.942 545.648 268.906 546.927 268.906ZM552.204 272.475V262.576H553.688V263.745H553.797C554.228 262.932 555.041 262.446 556.08 262.446C557.953 262.446 559.156 263.943 559.156 266.281V266.295C559.156 268.646 557.967 270.123 556.08 270.123C555.062 270.123 554.193 269.624 553.797 268.824H553.688V272.475H552.204ZM555.663 268.858C556.9 268.858 557.646 267.888 557.646 266.295V266.281C557.646 264.682 556.9 263.718 555.663 263.718C554.426 263.718 553.66 264.695 553.66 266.281V266.295C553.66 267.881 554.426 268.858 555.663 268.858ZM560.94 270V262.576H562.424V263.718H562.533C562.861 262.904 563.586 262.433 564.557 262.433C565.568 262.433 566.286 262.959 566.614 263.759H566.73C567.106 262.959 567.961 262.433 568.993 262.433C570.49 262.433 571.365 263.335 571.365 264.88V270H569.889V265.235C569.889 264.21 569.424 263.704 568.453 263.704C567.51 263.704 566.888 264.408 566.888 265.304V270H565.411V265.085C565.411 264.237 564.857 263.704 563.982 263.704C563.087 263.704 562.424 264.47 562.424 265.44V270H560.94ZM576.554 270.144C574.38 270.144 573.067 268.66 573.067 266.309V266.302C573.067 263.984 574.407 262.433 576.479 262.433C578.55 262.433 579.821 263.93 579.821 266.158V266.678H574.558C574.585 268.1 575.364 268.927 576.588 268.927C577.538 268.927 578.105 268.455 578.283 268.072L578.311 268.018L579.739 268.011L579.726 268.072C579.479 269.05 578.454 270.144 576.554 270.144ZM576.485 263.649C575.474 263.649 574.708 264.34 574.578 265.618H578.352C578.235 264.292 577.49 263.649 576.485 263.649ZM581.585 270V262.576H583.068V263.704H583.178C583.54 262.911 584.251 262.433 585.331 262.433C586.992 262.433 587.908 263.424 587.908 265.194V270H586.432V265.543C586.432 264.312 585.919 263.704 584.832 263.704C583.745 263.704 583.068 264.449 583.068 265.646V270H581.585ZM592.782 270.048C591.148 270.048 590.479 269.474 590.479 268.045V263.745H589.316V262.576H590.479V260.703H591.989V262.576H593.582V263.745H591.989V267.689C591.989 268.489 592.29 268.817 593.021 268.817C593.247 268.817 593.377 268.811 593.582 268.79V269.973C593.343 270.014 593.069 270.048 592.782 270.048ZM601.942 270.048C600.309 270.048 599.639 269.474 599.639 268.045V263.745H598.477V262.576H599.639V260.703H601.149V262.576H602.742V263.745H601.149V267.689C601.149 268.489 601.45 268.817 602.182 268.817C602.407 268.817 602.537 268.811 602.742 268.79V269.973C602.503 270.014 602.229 270.048 601.942 270.048ZM607.534 270.144C605.354 270.144 604.021 268.688 604.021 266.295V266.281C604.021 263.896 605.36 262.433 607.534 262.433C609.701 262.433 611.041 263.889 611.041 266.281V266.295C611.041 268.688 609.708 270.144 607.534 270.144ZM607.534 268.906C608.806 268.906 609.53 267.936 609.53 266.295V266.281C609.53 264.634 608.806 263.67 607.534 263.67C606.256 263.67 605.538 264.634 605.538 266.281V266.295C605.538 267.942 606.256 268.906 607.534 268.906ZM615.956 270.144C613.775 270.144 612.442 268.688 612.442 266.295V266.281C612.442 263.896 613.782 262.433 615.956 262.433C618.123 262.433 619.463 263.889 619.463 266.281V266.295C619.463 268.688 618.13 270.144 615.956 270.144ZM615.956 268.906C617.228 268.906 617.952 267.936 617.952 266.295V266.281C617.952 264.634 617.228 263.67 615.956 263.67C614.678 263.67 613.96 264.634 613.96 266.281V266.295C613.96 267.942 614.678 268.906 615.956 268.906ZM621.302 270V259.664H622.785V270H621.302ZM627.693 270.144C625.902 270.144 624.768 269.303 624.624 268.059V268.052H626.107L626.114 268.059C626.299 268.619 626.839 268.995 627.721 268.995C628.637 268.995 629.272 268.578 629.272 267.97V267.956C629.272 267.491 628.924 267.177 628.062 266.979L626.88 266.705C625.479 266.384 624.829 265.748 624.829 264.661V264.654C624.829 263.362 626.032 262.433 627.714 262.433C629.409 262.433 630.496 263.28 630.626 264.49V264.497H629.211V264.483C629.067 263.964 628.541 263.574 627.707 263.574C626.894 263.574 626.306 263.978 626.306 264.572V264.586C626.306 265.051 626.647 265.338 627.481 265.536L628.657 265.803C630.086 266.138 630.77 266.746 630.77 267.819V267.833C630.77 269.207 629.457 270.144 627.693 270.144Z" fill="white"/>
<circle cx="81.5" cy="216.5" r="53.5" fill="url(#paint3_linear_5862_988)"/>
<path d="M50.8008 212V202.136H57.0625V203.455H52.332V206.34H56.8096V207.611H52.332V210.681H57.0625V212H50.8008ZM61.9092 212.048C60.2754 212.048 59.6055 211.474 59.6055 210.045V205.745H58.4434V204.576H59.6055V202.703H61.1162V204.576H62.709V205.745H61.1162V209.689C61.1162 210.489 61.417 210.817 62.1484 210.817C62.374 210.817 62.5039 210.811 62.709 210.79V211.973C62.4697 212.014 62.1963 212.048 61.9092 212.048ZM64.5068 212V201.664H65.9902V205.704H66.0996C66.4619 204.911 67.1729 204.433 68.2529 204.433C69.9141 204.433 70.8301 205.424 70.8301 207.194V212H69.3535V207.543C69.3535 206.312 68.8408 205.704 67.7539 205.704C66.667 205.704 65.9902 206.449 65.9902 207.646V212H64.5068ZM76.0186 212.144C73.8447 212.144 72.5322 210.66 72.5322 208.309V208.302C72.5322 205.984 73.8721 204.433 75.9434 204.433C78.0146 204.433 79.2861 205.93 79.2861 208.158V208.678H74.0225C74.0498 210.1 74.8291 210.927 76.0527 210.927C77.0029 210.927 77.5703 210.455 77.748 210.072L77.7754 210.018L79.2041 210.011L79.1904 210.072C78.9443 211.05 77.9189 212.144 76.0186 212.144ZM75.9502 205.649C74.9385 205.649 74.1729 206.34 74.043 207.618H77.8164C77.7002 206.292 76.9551 205.649 75.9502 205.649ZM81.0498 212V204.576H82.5332V205.697H82.6426C82.9092 204.911 83.5996 204.446 84.5908 204.446C84.8301 204.446 85.0898 204.48 85.2402 204.515V205.882C84.9736 205.827 84.7207 205.793 84.4404 205.793C83.3057 205.793 82.5332 206.49 82.5332 207.563V212H81.0498ZM89.5811 212.144C87.4072 212.144 86.0947 210.66 86.0947 208.309V208.302C86.0947 205.984 87.4346 204.433 89.5059 204.433C91.5771 204.433 92.8486 205.93 92.8486 208.158V208.678H87.585C87.6123 210.1 88.3916 210.927 89.6152 210.927C90.5654 210.927 91.1328 210.455 91.3105 210.072L91.3379 210.018L92.7666 210.011L92.7529 210.072C92.5068 211.05 91.4814 212.144 89.5811 212.144ZM89.5127 205.649C88.501 205.649 87.7354 206.34 87.6055 207.618H91.3789C91.2627 206.292 90.5176 205.649 89.5127 205.649ZM97.0869 212.144C95.4121 212.144 94.5439 211.139 94.5439 209.382V204.576H96.0273V209.033C96.0273 210.264 96.4785 210.872 97.5654 210.872C98.7549 210.872 99.3906 210.127 99.3906 208.931V204.576H100.867V212H99.3906V210.879H99.2744C98.9189 211.679 98.167 212.144 97.0869 212.144ZM103.007 212V204.576H104.49V205.718H104.6C104.928 204.904 105.652 204.433 106.623 204.433C107.635 204.433 108.353 204.959 108.681 205.759H108.797C109.173 204.959 110.027 204.433 111.06 204.433C112.557 204.433 113.432 205.335 113.432 206.88V212H111.955V207.235C111.955 206.21 111.49 205.704 110.52 205.704C109.576 205.704 108.954 206.408 108.954 207.304V212H107.478V207.085C107.478 206.237 106.924 205.704 106.049 205.704C105.153 205.704 104.49 206.47 104.49 207.44V212H103.007ZM55.7021 229V221.576H57.1855V222.704H57.2949C57.6572 221.911 58.3682 221.433 59.4482 221.433C61.1094 221.433 62.0254 222.424 62.0254 224.194V229H60.5488V224.543C60.5488 223.312 60.0361 222.704 58.9492 222.704C57.8623 222.704 57.1855 223.449 57.1855 224.646V229H55.7021ZM67.2139 229.144C65.04 229.144 63.7275 227.66 63.7275 225.309V225.302C63.7275 222.984 65.0674 221.433 67.1387 221.433C69.21 221.433 70.4814 222.93 70.4814 225.158V225.678H65.2178C65.2451 227.1 66.0244 227.927 67.248 227.927C68.1982 227.927 68.7656 227.455 68.9434 227.072L68.9707 227.018L70.3994 227.011L70.3857 227.072C70.1396 228.05 69.1143 229.144 67.2139 229.144ZM67.1455 222.649C66.1338 222.649 65.3682 223.34 65.2383 224.618H69.0117C68.8955 223.292 68.1504 222.649 67.1455 222.649ZM75.0479 229.048C73.4141 229.048 72.7441 228.474 72.7441 227.045V222.745H71.582V221.576H72.7441V219.703H74.2549V221.576H75.8477V222.745H74.2549V226.689C74.2549 227.489 74.5557 227.817 75.2871 227.817C75.5127 227.817 75.6426 227.811 75.8477 227.79V228.973C75.6084 229.014 75.335 229.048 75.0479 229.048ZM79.0059 229L76.9551 221.576H78.4453L79.7783 227.305H79.8877L81.4189 221.576H82.8271L84.3584 227.305H84.4746L85.8008 221.576H87.2705L85.2266 229H83.7021L82.1641 223.463H82.0479L80.5166 229H79.0059ZM91.6455 229.144C89.4648 229.144 88.1318 227.688 88.1318 225.295V225.281C88.1318 222.896 89.4717 221.433 91.6455 221.433C93.8125 221.433 95.1523 222.889 95.1523 225.281V225.295C95.1523 227.688 93.8193 229.144 91.6455 229.144ZM91.6455 227.906C92.917 227.906 93.6416 226.936 93.6416 225.295V225.281C93.6416 223.634 92.917 222.67 91.6455 222.67C90.3672 222.67 89.6494 223.634 89.6494 225.281V225.295C89.6494 226.942 90.3672 227.906 91.6455 227.906ZM96.9229 229V221.576H98.4062V222.697H98.5156C98.7822 221.911 99.4727 221.446 100.464 221.446C100.703 221.446 100.963 221.48 101.113 221.515V222.882C100.847 222.827 100.594 222.793 100.313 222.793C99.1787 222.793 98.4062 223.49 98.4062 224.563V229H96.9229ZM102.597 229V218.664H104.08V224.707H104.189L107.136 221.576H108.872L105.775 224.707L109.077 229H107.272L104.716 225.664L104.08 226.3V229H102.597Z" fill="white"/>
<path d="M136 215H135V217H136V216V215ZM239 216L229 210.226V221.774L239 216ZM136 216V217L230 217V216V215L136 215V216Z" fill="black"/>
<line x1="464" y1="161" x2="464" y2="259" stroke="black" stroke-width="2"/>
<line x1="494" y1="258" x2="464" y2="258" stroke="black" stroke-width="2"/>
<path d="M374 216L384 221.774L384 210.227L374 216ZM463 216L463 215L383 215L383 216L383 217L463 217L463 216Z" fill="black"/>
<line x1="494" y1="162" x2="464" y2="162" stroke="black" stroke-width="2"/>
<defs>
<linearGradient id="paint0_linear_5862_988" x1="435.5" y1="213.505" x2="370.181" y2="101.141" gradientUnits="userSpaceOnUse">
<stop stop-color="#1AA1A1"/>
<stop offset="1" stop-color="#126E6E"/>
</linearGradient>
<linearGradient id="paint1_linear_5862_988" x1="719" y1="161" x2="695.232" y2="79.972" gradientUnits="userSpaceOnUse">
<stop/>
<stop offset="1" stop-opacity="0.6"/>
</linearGradient>
<linearGradient id="paint2_linear_5862_988" x1="719" y1="257" x2="686.815" y2="164.158" gradientUnits="userSpaceOnUse">
<stop/>
<stop offset="1" stop-opacity="0.6"/>
</linearGradient>
<linearGradient id="paint3_linear_5862_988" x1="188.5" y1="212.686" x2="73.8724" y2="105.686" gradientUnits="userSpaceOnUse">
<stop stop-color="#1AA1A1"/>
<stop offset="1" stop-color="#126E6E"/>
</linearGradient>
</defs>
</svg>
