<svg width="753" height="475" viewBox="0 0 753 475" fill="none" xmlns="http://www.w3.org/2000/svg">
<rect width="753" height="475" fill="white"/>
<rect x="35" y="33" width="683" height="316" rx="2" fill="white" stroke="black" stroke-width="2"/>
<path d="M154 192L148.226 202L159.774 202L154 192ZM154 258.08L159.774 248.08L148.226 248.08L154 258.08ZM154 201L153 201L153 225.04L154 225.04L155 225.04L155 201L154 201ZM154 225.04L153 225.04L153 249.08L154 249.08L155 249.08L155 225.04L154 225.04Z" fill="#00A4A2"/>
<path d="M304 192L298.226 202L309.774 202L304 192ZM304 258.08L309.774 248.08L298.226 248.08L304 258.08ZM304 201L303 201L303 225.04L304 225.04L305 225.04L305 201L304 201ZM304 225.04L303 225.04L303 249.08L304 249.08L305 249.08L305 225.04L304 225.04Z" fill="#00A4A2"/>
<path d="M377 314L371.226 324L382.774 324L377 314ZM377 384L382.774 374L371.226 374L377 384ZM377 323L376 323L376 353.231L377 353.231L378 353.231L378 323L377 323ZM377 353.231L376 353.231L376 375L377 375L378 375L378 353.231L377 353.231Z" fill="#00A4A2"/>
<path d="M453 190L447.226 200L458.774 200L453 190ZM453 258.32L458.774 248.32L447.226 248.32L453 258.32ZM453 199L452 199L452 224.16L453 224.16L454 224.16L454 199L453 199ZM453 224.16L452 224.16L452 249.32L453 249.32L454 249.32L454 224.16L453 224.16Z" fill="#00A4A2"/>
<path d="M605 189L599.226 199L610.774 199L605 189ZM605 258.44L610.774 248.44L599.226 248.44L605 258.44ZM605 198L604 198L604 223.72L605 223.72L606 223.72L606 198L605 198ZM605 223.72L604 223.72L604 249.44L605 249.44L606 249.44L606 223.72L605 223.72Z" fill="#00A4A2"/>
<path d="M358.066 66V53.3174H363.164C365.546 53.3174 366.979 54.5303 366.979 56.4727V56.4902C366.979 57.8086 366.003 58.9951 364.755 59.2061V59.3555C366.469 59.54 367.611 60.7529 367.611 62.4053V62.4229C367.611 64.6465 365.985 66 363.278 66H358.066ZM362.707 54.9258H360.035V58.7139H362.373C364.113 58.7139 365.019 58.0635 365.019 56.833V56.8154C365.019 55.6201 364.166 54.9258 362.707 54.9258ZM362.769 60.2168H360.035V64.3916H362.883C364.658 64.3916 365.599 63.6621 365.599 62.2998V62.2822C365.599 60.9199 364.623 60.2168 362.769 60.2168ZM373.931 66.1846C371.136 66.1846 369.448 64.2773 369.448 61.2539V61.2451C369.448 58.2656 371.171 56.2705 373.834 56.2705C376.497 56.2705 378.132 58.1953 378.132 61.0605V61.7285H371.364C371.399 63.5566 372.401 64.6201 373.975 64.6201C375.196 64.6201 375.926 64.0137 376.154 63.5215L376.189 63.4512L378.026 63.4424L378.009 63.5215C377.692 64.7783 376.374 66.1846 373.931 66.1846ZM373.843 57.835C372.542 57.835 371.558 58.7227 371.391 60.3662H376.242C376.093 58.6611 375.135 57.835 373.843 57.835ZM383.871 66.1846C381.568 66.1846 380.109 65.1035 379.925 63.5039V63.4951H381.832L381.841 63.5039C382.078 64.2246 382.772 64.708 383.906 64.708C385.084 64.708 385.901 64.1719 385.901 63.3896V63.3721C385.901 62.7744 385.453 62.3701 384.346 62.1152L382.825 61.7637C381.023 61.3506 380.188 60.5332 380.188 59.1357V59.127C380.188 57.4658 381.735 56.2705 383.897 56.2705C386.077 56.2705 387.475 57.3604 387.642 58.916V58.9248H385.822V58.9072C385.638 58.2393 384.961 57.7383 383.889 57.7383C382.843 57.7383 382.087 58.2568 382.087 59.0215V59.0391C382.087 59.6367 382.526 60.0059 383.599 60.2607L385.11 60.6035C386.947 61.0342 387.826 61.8164 387.826 63.1963V63.2139C387.826 64.9805 386.139 66.1846 383.871 66.1846ZM393.284 66.1846C391.131 66.1846 390.015 64.8926 390.015 62.6338V56.4551H391.922V62.1855C391.922 63.7676 392.502 64.5498 393.899 64.5498C395.429 64.5498 396.246 63.5918 396.246 62.0537V56.4551H398.145V66H396.246V64.5586H396.097C395.64 65.5869 394.673 66.1846 393.284 66.1846Z" fill="black"/>
<rect x="87" y="261" width="580" height="50" rx="2" fill="url(#paint0_linear_68_292)"/>
<path d="M341.536 291V280.431H345.652C347.725 280.431 349.161 281.823 349.161 283.896V283.91C349.161 285.976 347.725 287.389 345.652 287.389H343.177V291H341.536ZM345.242 281.815H343.177V286.012H345.242C346.663 286.012 347.491 285.243 347.491 283.917V283.903C347.491 282.584 346.663 281.815 345.242 281.815ZM351.167 291V279.926H352.757V291H351.167ZM357.774 291.154C355.979 291.154 355.049 290.077 355.049 288.195V283.046H356.639V287.821C356.639 289.14 357.122 289.792 358.287 289.792C359.561 289.792 360.242 288.993 360.242 287.711V283.046H361.824V291H360.242V289.799H360.118C359.737 290.656 358.931 291.154 357.774 291.154ZM367.479 293.805C365.457 293.805 364.212 292.919 364.021 291.593L364.036 291.579H365.64L365.647 291.593C365.779 292.143 366.424 292.531 367.5 292.531C368.812 292.531 369.588 291.916 369.588 290.832V289.264H369.471C368.987 290.128 368.108 290.612 367.017 290.612C364.974 290.612 363.714 289.037 363.714 286.796V286.781C363.714 284.511 364.981 282.907 367.046 282.907C368.16 282.907 369.024 283.456 369.485 284.35H369.581V283.046H371.163V290.839C371.163 292.648 369.734 293.805 367.479 293.805ZM367.457 289.301C368.804 289.301 369.617 288.275 369.617 286.789V286.774C369.617 285.294 368.797 284.254 367.457 284.254C366.102 284.254 365.34 285.294 365.34 286.774V286.789C365.34 288.268 366.102 289.301 367.457 289.301ZM374.275 281.625C373.726 281.625 373.279 281.178 373.279 280.636C373.279 280.087 373.726 279.64 374.275 279.64C374.817 279.64 375.271 280.087 375.271 280.636C375.271 281.178 374.817 281.625 374.275 281.625ZM373.477 291V283.046H375.059V291H373.477ZM377.374 291V283.046H378.963V284.254H379.08C379.468 283.405 380.23 282.892 381.387 282.892C383.167 282.892 384.148 283.954 384.148 285.851V291H382.566V286.225C382.566 284.906 382.017 284.254 380.853 284.254C379.688 284.254 378.963 285.053 378.963 286.334V291H377.374ZM389.839 291L393.655 280.431H395.428L399.244 291H397.515L396.563 288.144H392.52L391.561 291H389.839ZM394.476 282.284L392.959 286.825H396.124L394.6 282.284H394.476ZM401.082 291V280.431H405.198C407.271 280.431 408.707 281.823 408.707 283.896V283.91C408.707 285.976 407.271 287.389 405.198 287.389H402.723V291H401.082ZM404.788 281.815H402.723V286.012H404.788C406.209 286.012 407.037 285.243 407.037 283.917V283.903C407.037 282.584 406.209 281.815 404.788 281.815ZM410.823 291V280.431H412.464V291H410.823Z" fill="white"/>
<g clip-path="url(#clip0_68_292)">
<rect x="89" y="139" width="130" height="50" rx="2" fill="url(#paint1_linear_68_292)"/>
<path d="M147.738 169.256C144.801 169.256 142.97 167.132 142.97 163.727V163.712C142.97 160.299 144.793 158.175 147.73 158.175C150.06 158.175 151.847 159.647 152.125 161.749L152.118 161.786H150.492V161.764C150.184 160.467 149.122 159.625 147.73 159.625C145.833 159.625 144.647 161.2 144.647 163.712V163.727C144.647 166.231 145.833 167.806 147.738 167.806C149.137 167.806 150.184 167.059 150.484 165.865L150.499 165.836H152.125V165.88C151.817 167.909 150.096 169.256 147.738 169.256ZM154.286 169V158.431H155.926V167.586H160.877V169H154.286ZM162.958 169V158.431H164.598V169H162.958Z" fill="white"/>
</g>
<g clip-path="url(#clip1_68_292)">
<rect x="239" y="139" width="130" height="50" rx="2" fill="url(#paint2_linear_68_292)"/>
<path d="M280.438 169.256C278.05 169.256 276.52 168.048 276.373 166.268L276.366 166.173H277.977L277.984 166.253C278.072 167.213 279.09 167.828 280.504 167.828C281.852 167.828 282.811 167.154 282.811 166.173V166.166C282.811 165.353 282.24 164.825 280.841 164.525L279.684 164.276C277.538 163.822 276.615 162.826 276.615 161.266V161.258C276.622 159.435 278.204 158.175 280.445 158.175C282.687 158.175 284.151 159.442 284.269 161.083L284.276 161.185H282.687L282.672 161.09C282.533 160.226 281.705 159.596 280.423 159.603C279.186 159.603 278.27 160.182 278.27 161.178V161.185C278.27 161.969 278.827 162.481 280.196 162.774L281.346 163.031C283.565 163.507 284.474 164.4 284.474 165.968V165.975C284.474 167.997 282.899 169.256 280.438 169.256ZM289.454 169.051C287.704 169.051 286.986 168.436 286.986 166.905V162.298H285.741V161.046H286.986V159.039H288.604V161.046H290.311V162.298H288.604V166.524C288.604 167.381 288.927 167.733 289.71 167.733C289.952 167.733 290.091 167.726 290.311 167.704V168.971C290.055 169.015 289.762 169.051 289.454 169.051ZM295.445 169.154C293.109 169.154 291.681 167.594 291.681 165.03V165.016C291.681 162.459 293.116 160.892 295.445 160.892C297.767 160.892 299.203 162.452 299.203 165.016V165.03C299.203 167.594 297.774 169.154 295.445 169.154ZM295.445 167.828C296.808 167.828 297.584 166.788 297.584 165.03V165.016C297.584 163.25 296.808 162.218 295.445 162.218C294.076 162.218 293.307 163.25 293.307 165.016V165.03C293.307 166.795 294.076 167.828 295.445 167.828ZM301.1 169V161.046H302.689V162.247H302.806C303.092 161.405 303.832 160.907 304.894 160.907C305.15 160.907 305.428 160.943 305.589 160.98V162.445C305.304 162.386 305.033 162.35 304.732 162.35C303.517 162.35 302.689 163.097 302.689 164.247V169H301.1ZM309.244 169.132C307.728 169.132 306.607 168.209 306.607 166.766V166.751C306.607 165.331 307.677 164.503 309.574 164.386L311.727 164.261V163.558C311.727 162.687 311.178 162.203 310.101 162.203C309.222 162.203 308.644 162.525 308.453 163.089L308.446 163.119H306.915L306.922 163.067C307.113 161.764 308.365 160.892 310.174 160.892C312.174 160.892 313.302 161.888 313.302 163.558V169H311.727V167.872H311.603C311.134 168.678 310.299 169.132 309.244 169.132ZM308.189 166.7C308.189 167.433 308.812 167.865 309.669 167.865C310.855 167.865 311.727 167.088 311.727 166.063V165.382L309.786 165.506C308.688 165.572 308.189 165.968 308.189 166.686V166.7ZM318.905 171.805C316.883 171.805 315.638 170.919 315.448 169.593L315.462 169.579H317.066L317.074 169.593C317.206 170.143 317.85 170.531 318.927 170.531C320.238 170.531 321.014 169.916 321.014 168.832V167.264H320.897C320.414 168.128 319.535 168.612 318.443 168.612C316.4 168.612 315.14 167.037 315.14 164.796V164.781C315.14 162.511 316.407 160.907 318.473 160.907C319.586 160.907 320.45 161.456 320.912 162.35H321.007V161.046H322.589V168.839C322.589 170.648 321.161 171.805 318.905 171.805ZM318.883 167.301C320.23 167.301 321.043 166.275 321.043 164.789V164.774C321.043 163.294 320.223 162.254 318.883 162.254C317.528 162.254 316.766 163.294 316.766 164.774V164.789C316.766 166.268 317.528 167.301 318.883 167.301ZM328.214 169.154C325.885 169.154 324.479 167.564 324.479 165.045V165.038C324.479 162.555 325.914 160.892 328.133 160.892C330.353 160.892 331.715 162.496 331.715 164.884V165.44H326.075C326.104 166.964 326.939 167.85 328.25 167.85C329.269 167.85 329.876 167.345 330.067 166.935L330.096 166.876L331.627 166.869L331.612 166.935C331.349 167.982 330.25 169.154 328.214 169.154ZM328.141 162.196C327.057 162.196 326.236 162.936 326.097 164.305H330.14C330.016 162.884 329.217 162.196 328.141 162.196Z" fill="white"/>
</g>
<g clip-path="url(#clip2_68_292)">
<rect x="389" y="137" width="130" height="50" rx="2" fill="url(#paint3_linear_68_292)"/>
<path d="M428.175 167V156.431H430.064L433.434 164.861H433.551L436.92 156.431H438.81V167H437.315V159.244H437.206L434.1 167H432.884L429.786 159.244H429.669V167H428.175ZM444.618 167.154C442.289 167.154 440.882 165.564 440.882 163.045V163.038C440.882 160.555 442.318 158.892 444.537 158.892C446.756 158.892 448.119 160.496 448.119 162.884V163.44H442.479C442.508 164.964 443.343 165.85 444.654 165.85C445.672 165.85 446.28 165.345 446.471 164.935L446.5 164.876L448.031 164.869L448.016 164.935C447.752 165.982 446.654 167.154 444.618 167.154ZM444.544 160.196C443.46 160.196 442.64 160.936 442.501 162.305H446.544C446.419 160.884 445.621 160.196 444.544 160.196ZM453.011 167.051C451.261 167.051 450.543 166.436 450.543 164.905V160.298H449.298V159.046H450.543V157.039H452.162V159.046H453.868V160.298H452.162V164.524C452.162 165.381 452.484 165.733 453.268 165.733C453.509 165.733 453.648 165.726 453.868 165.704V166.971C453.612 167.015 453.319 167.051 453.011 167.051ZM455.721 167V159.046H457.311V160.247H457.428C457.713 159.405 458.453 158.907 459.515 158.907C459.771 158.907 460.05 158.943 460.211 158.98V160.445C459.925 160.386 459.654 160.35 459.354 160.35C458.138 160.35 457.311 161.097 457.311 162.247V167H455.721ZM462.555 157.625C462.005 157.625 461.559 157.178 461.559 156.636C461.559 156.087 462.005 155.64 462.555 155.64C463.097 155.64 463.551 156.087 463.551 156.636C463.551 157.178 463.097 157.625 462.555 157.625ZM461.756 167V159.046H463.338V167H461.756ZM469 167.154C466.678 167.154 465.257 165.572 465.257 163.001V162.986C465.257 160.467 466.671 158.892 468.993 158.892C470.992 158.892 472.186 160.02 472.406 161.565V161.602L470.882 161.609L470.875 161.587C470.699 160.804 470.055 160.218 469 160.218C467.674 160.218 466.876 161.272 466.876 162.986V163.001C466.876 164.759 467.689 165.828 469 165.828C469.996 165.828 470.611 165.374 470.868 164.517L470.882 164.48H472.406L472.391 164.546C472.105 166.092 470.97 167.154 469 167.154ZM477.101 167.154C475.182 167.154 473.966 166.253 473.812 164.92V164.913H475.401L475.409 164.92C475.606 165.521 476.185 165.923 477.13 165.923C478.111 165.923 478.792 165.477 478.792 164.825V164.81C478.792 164.312 478.419 163.975 477.496 163.763L476.229 163.47C474.728 163.125 474.032 162.444 474.032 161.28V161.272C474.032 159.888 475.321 158.892 477.123 158.892C478.939 158.892 480.104 159.8 480.243 161.097V161.104H478.727V161.089C478.573 160.533 478.009 160.115 477.115 160.115C476.244 160.115 475.614 160.547 475.614 161.185V161.199C475.614 161.697 475.98 162.005 476.874 162.217L478.133 162.503C479.664 162.862 480.396 163.514 480.396 164.664V164.678C480.396 166.15 478.99 167.154 477.101 167.154Z" fill="white"/>
</g>
<g clip-path="url(#clip3_68_292)">
<rect x="312" y="387" width="130" height="50" rx="2" fill="url(#paint4_linear_68_292)"/>
<path d="M355.818 417V406.431H359.935C362.007 406.431 363.443 407.823 363.443 409.896V409.91C363.443 411.976 362.007 413.389 359.935 413.389H357.459V417H355.818ZM359.524 407.815H357.459V412.012H359.524C360.945 412.012 361.773 411.243 361.773 409.917V409.903C361.773 408.584 360.945 407.815 359.524 407.815ZM365.45 417V405.926H367.039V417H365.45ZM372.056 417.154C370.262 417.154 369.332 416.077 369.332 414.195V409.046H370.921V413.821C370.921 415.14 371.404 415.792 372.569 415.792C373.843 415.792 374.524 414.993 374.524 413.711V409.046H376.106V417H374.524V415.799H374.4C374.019 416.656 373.213 417.154 372.056 417.154ZM381.761 419.805C379.739 419.805 378.494 418.919 378.304 417.593L378.318 417.579H379.922L379.93 417.593C380.062 418.143 380.706 418.531 381.783 418.531C383.094 418.531 383.87 417.916 383.87 416.832V415.264H383.753C383.27 416.128 382.391 416.612 381.299 416.612C379.256 416.612 377.996 415.037 377.996 412.796V412.781C377.996 410.511 379.263 408.907 381.329 408.907C382.442 408.907 383.306 409.456 383.768 410.35H383.863V409.046H385.445V416.839C385.445 418.648 384.017 419.805 381.761 419.805ZM381.739 415.301C383.086 415.301 383.899 414.275 383.899 412.789V412.774C383.899 411.294 383.079 410.254 381.739 410.254C380.384 410.254 379.622 411.294 379.622 412.774V412.789C379.622 414.268 380.384 415.301 381.739 415.301ZM388.558 407.625C388.008 407.625 387.562 407.178 387.562 406.636C387.562 406.087 388.008 405.64 388.558 405.64C389.1 405.64 389.554 406.087 389.554 406.636C389.554 407.178 389.1 407.625 388.558 407.625ZM387.759 417V409.046H389.341V417H387.759ZM391.656 417V409.046H393.245V410.254H393.362C393.75 409.405 394.512 408.892 395.669 408.892C397.449 408.892 398.431 409.954 398.431 411.851V417H396.849V412.225C396.849 410.906 396.299 410.254 395.135 410.254C393.97 410.254 393.245 411.053 393.245 412.334V417H391.656Z" fill="white"/>
</g>
<g clip-path="url(#clip4_68_292)">
<rect x="539" y="136" width="130" height="50" rx="2" fill="url(#paint5_linear_68_292)"/>
<path d="M591.021 166.256C588.634 166.256 587.103 165.048 586.957 163.268L586.949 163.173H588.561L588.568 163.253C588.656 164.213 589.674 164.828 591.087 164.828C592.435 164.828 593.395 164.154 593.395 163.173V163.166C593.395 162.353 592.823 161.825 591.424 161.525L590.267 161.276C588.121 160.822 587.198 159.826 587.198 158.266V158.258C587.206 156.435 588.788 155.175 591.029 155.175C593.27 155.175 594.735 156.442 594.852 158.083L594.859 158.185H593.27L593.255 158.09C593.116 157.226 592.289 156.596 591.007 156.603C589.769 156.603 588.854 157.182 588.854 158.178V158.185C588.854 158.969 589.41 159.481 590.78 159.774L591.93 160.031C594.149 160.507 595.057 161.4 595.057 162.968V162.975C595.057 164.997 593.482 166.256 591.021 166.256ZM597.811 168.798C597.613 168.798 597.379 168.783 597.174 168.761V167.509C597.328 167.531 597.525 167.538 597.708 167.538C598.448 167.538 598.895 167.223 599.129 166.417L599.247 166.007L596.361 158.046H598.075L600.067 164.403H600.206L602.191 158.046H603.861L600.902 166.308C600.228 168.205 599.422 168.798 597.811 168.798ZM605.472 166V158.046H607.062V159.254H607.179C607.567 158.405 608.329 157.892 609.486 157.892C611.266 157.892 612.247 158.954 612.247 160.851V166H610.665V161.225C610.665 159.906 610.116 159.254 608.951 159.254C607.787 159.254 607.062 160.053 607.062 161.334V166H605.472ZM617.813 166.154C615.492 166.154 614.071 164.572 614.071 162.001V161.986C614.071 159.467 615.484 157.892 617.806 157.892C619.806 157.892 621 159.02 621.219 160.565V160.602L619.696 160.609L619.688 160.587C619.513 159.804 618.868 159.218 617.813 159.218C616.488 159.218 615.689 160.272 615.689 161.986V162.001C615.689 163.759 616.502 164.828 617.813 164.828C618.81 164.828 619.425 164.374 619.681 163.517L619.696 163.48H621.219L621.205 163.546C620.919 165.092 619.784 166.154 617.813 166.154Z" fill="white"/>
</g>
<path d="M66.8566 133.91L66.8566 119.41L688.703 119.41L688.703 133.91" stroke="#B9B9B9" stroke-width="2" stroke-miterlimit="1.00382" stroke-linecap="round" stroke-linejoin="round"/>
<mask id="path-22-outside-1_68_292" maskUnits="userSpaceOnUse" x="313.283" y="110.59" width="130" height="20" fill="black">
<rect fill="white" x="313.283" y="110.59" width="130" height="20"/>
<path d="M317.015 124.59V114.725H323.277V116.045H318.547V118.93H323.024V120.201H318.547V123.27H323.277V124.59H317.015ZM325.169 124.59L327.637 120.891L325.149 117.166H326.864L328.464 119.818H328.58L330.166 117.166H331.807L329.353 120.83L331.834 124.59H330.146L328.519 121.91H328.409L326.782 124.59H325.169ZM333.794 127.064V117.166H335.278V118.335H335.387C335.818 117.521 336.631 117.036 337.67 117.036C339.543 117.036 340.746 118.533 340.746 120.871V120.885C340.746 123.236 339.557 124.713 337.67 124.713C336.652 124.713 335.784 124.214 335.387 123.414H335.278V127.064H333.794ZM337.253 123.448C338.491 123.448 339.236 122.477 339.236 120.885V120.871C339.236 119.271 338.491 118.307 337.253 118.307C336.016 118.307 335.25 119.285 335.25 120.871V120.885C335.25 122.471 336.016 123.448 337.253 123.448ZM346.097 124.733C343.917 124.733 342.584 123.277 342.584 120.885V120.871C342.584 118.485 343.924 117.022 346.097 117.022C348.264 117.022 349.604 118.478 349.604 120.871V120.885C349.604 123.277 348.271 124.733 346.097 124.733ZM346.097 123.496C347.369 123.496 348.093 122.525 348.093 120.885V120.871C348.093 119.224 347.369 118.26 346.097 118.26C344.819 118.26 344.101 119.224 344.101 120.871V120.885C344.101 122.532 344.819 123.496 346.097 123.496ZM354.497 124.733C352.706 124.733 351.571 123.892 351.428 122.648V122.641H352.911L352.918 122.648C353.103 123.209 353.643 123.585 354.524 123.585C355.44 123.585 356.076 123.168 356.076 122.559V122.546C356.076 122.081 355.728 121.766 354.866 121.568L353.684 121.295C352.282 120.974 351.633 120.338 351.633 119.251V119.244C351.633 117.952 352.836 117.022 354.518 117.022C356.213 117.022 357.3 117.87 357.43 119.08V119.087H356.015V119.073C355.871 118.554 355.345 118.164 354.511 118.164C353.697 118.164 353.109 118.567 353.109 119.162V119.176C353.109 119.641 353.451 119.928 354.285 120.126L355.461 120.392C356.89 120.727 357.573 121.336 357.573 122.409V122.423C357.573 123.797 356.261 124.733 354.497 124.733ZM362.883 124.733C360.709 124.733 359.397 123.25 359.397 120.898V120.891C359.397 118.574 360.737 117.022 362.808 117.022C364.879 117.022 366.151 118.519 366.151 120.748V121.267H360.887C360.914 122.689 361.694 123.516 362.917 123.516C363.867 123.516 364.435 123.045 364.613 122.662L364.64 122.607L366.069 122.6L366.055 122.662C365.809 123.64 364.783 124.733 362.883 124.733ZM362.815 118.239C361.803 118.239 361.037 118.93 360.907 120.208H364.681C364.565 118.882 363.82 118.239 362.815 118.239ZM371.044 124.713C369.177 124.713 367.967 123.216 367.967 120.885V120.871C367.967 118.519 369.157 117.036 371.044 117.036C372.062 117.036 372.93 117.542 373.327 118.342H373.443V114.254H374.919V124.59H373.443V123.421H373.327C372.896 124.234 372.083 124.713 371.044 124.713ZM371.467 123.448C372.705 123.448 373.463 122.471 373.463 120.885V120.871C373.463 119.285 372.698 118.307 371.467 118.307C370.223 118.307 369.478 119.278 369.478 120.871V120.885C369.478 122.477 370.223 123.448 371.467 123.448ZM384.5 124.733C382.709 124.733 381.574 123.892 381.431 122.648V122.641H382.914L382.921 122.648C383.106 123.209 383.646 123.585 384.527 123.585C385.443 123.585 386.079 123.168 386.079 122.559V122.546C386.079 122.081 385.731 121.766 384.869 121.568L383.687 121.295C382.285 120.974 381.636 120.338 381.636 119.251V119.244C381.636 117.952 382.839 117.022 384.521 117.022C386.216 117.022 387.303 117.87 387.433 119.08V119.087H386.018V119.073C385.874 118.554 385.348 118.164 384.514 118.164C383.7 118.164 383.112 118.567 383.112 119.162V119.176C383.112 119.641 383.454 119.928 384.288 120.126L385.464 120.392C386.893 120.727 387.576 121.336 387.576 122.409V122.423C387.576 123.797 386.264 124.733 384.5 124.733ZM392.886 124.733C390.712 124.733 389.4 123.25 389.4 120.898V120.891C389.4 118.574 390.74 117.022 392.811 117.022C394.882 117.022 396.154 118.519 396.154 120.748V121.267H390.89C390.917 122.689 391.697 123.516 392.92 123.516C393.871 123.516 394.438 123.045 394.616 122.662L394.643 122.607L396.072 122.6L396.058 122.662C395.812 123.64 394.787 124.733 392.886 124.733ZM392.818 118.239C391.806 118.239 391.04 118.93 390.911 120.208H394.684C394.568 118.882 393.823 118.239 392.818 118.239ZM398.34 124.59V117.166H399.823V118.287H399.932C400.199 117.501 400.889 117.036 401.881 117.036C402.12 117.036 402.38 117.07 402.53 117.104V118.472C402.263 118.417 402.01 118.383 401.73 118.383C400.595 118.383 399.823 119.08 399.823 120.153V124.59H398.34ZM406.507 124.59L403.82 117.166H405.393L407.245 123.086H407.361L409.207 117.166H410.766L408.086 124.59H406.507ZM413.45 115.84C412.938 115.84 412.521 115.423 412.521 114.917C412.521 114.404 412.938 113.987 413.45 113.987C413.956 113.987 414.38 114.404 414.38 114.917C414.38 115.423 413.956 115.84 413.45 115.84ZM412.705 124.59V117.166H414.182V124.59H412.705ZM419.888 124.733C417.721 124.733 416.395 123.257 416.395 120.857V120.844C416.395 118.492 417.714 117.022 419.881 117.022C421.748 117.022 422.862 118.075 423.067 119.517V119.552L421.645 119.558L421.638 119.538C421.474 118.807 420.873 118.26 419.888 118.26C418.651 118.26 417.906 119.244 417.906 120.844V120.857C417.906 122.498 418.665 123.496 419.888 123.496C420.818 123.496 421.392 123.072 421.631 122.272L421.645 122.238H423.067L423.053 122.3C422.787 123.742 421.727 124.733 419.888 124.733ZM428.288 124.733C426.114 124.733 424.802 123.25 424.802 120.898V120.891C424.802 118.574 426.141 117.022 428.213 117.022C430.284 117.022 431.556 118.519 431.556 120.748V121.267H426.292C426.319 122.689 427.098 123.516 428.322 123.516C429.272 123.516 429.84 123.045 430.017 122.662L430.045 122.607L431.473 122.6L431.46 122.662C431.214 123.64 430.188 124.733 428.288 124.733ZM428.22 118.239C427.208 118.239 426.442 118.93 426.312 120.208H430.086C429.97 118.882 429.224 118.239 428.22 118.239ZM436.442 124.733C434.651 124.733 433.516 123.892 433.372 122.648V122.641H434.856L434.862 122.648C435.047 123.209 435.587 123.585 436.469 123.585C437.385 123.585 438.021 123.168 438.021 122.559V122.546C438.021 122.081 437.672 121.766 436.811 121.568L435.628 121.295C434.227 120.974 433.577 120.338 433.577 119.251V119.244C433.577 117.952 434.78 117.022 436.462 117.022C438.157 117.022 439.244 117.87 439.374 119.08V119.087H437.959V119.073C437.816 118.554 437.289 118.164 436.455 118.164C435.642 118.164 435.054 118.567 435.054 119.162V119.176C435.054 119.641 435.396 119.928 436.23 120.126L437.405 120.392C438.834 120.727 439.518 121.336 439.518 122.409V122.423C439.518 123.797 438.205 124.733 436.442 124.733Z"/>
</mask>
<path d="M317.015 124.59V114.725H323.277V116.045H318.547V118.93H323.024V120.201H318.547V123.27H323.277V124.59H317.015ZM325.169 124.59L327.637 120.891L325.149 117.166H326.864L328.464 119.818H328.58L330.166 117.166H331.807L329.353 120.83L331.834 124.59H330.146L328.519 121.91H328.409L326.782 124.59H325.169ZM333.794 127.064V117.166H335.278V118.335H335.387C335.818 117.521 336.631 117.036 337.67 117.036C339.543 117.036 340.746 118.533 340.746 120.871V120.885C340.746 123.236 339.557 124.713 337.67 124.713C336.652 124.713 335.784 124.214 335.387 123.414H335.278V127.064H333.794ZM337.253 123.448C338.491 123.448 339.236 122.477 339.236 120.885V120.871C339.236 119.271 338.491 118.307 337.253 118.307C336.016 118.307 335.25 119.285 335.25 120.871V120.885C335.25 122.471 336.016 123.448 337.253 123.448ZM346.097 124.733C343.917 124.733 342.584 123.277 342.584 120.885V120.871C342.584 118.485 343.924 117.022 346.097 117.022C348.264 117.022 349.604 118.478 349.604 120.871V120.885C349.604 123.277 348.271 124.733 346.097 124.733ZM346.097 123.496C347.369 123.496 348.093 122.525 348.093 120.885V120.871C348.093 119.224 347.369 118.26 346.097 118.26C344.819 118.26 344.101 119.224 344.101 120.871V120.885C344.101 122.532 344.819 123.496 346.097 123.496ZM354.497 124.733C352.706 124.733 351.571 123.892 351.428 122.648V122.641H352.911L352.918 122.648C353.103 123.209 353.643 123.585 354.524 123.585C355.44 123.585 356.076 123.168 356.076 122.559V122.546C356.076 122.081 355.728 121.766 354.866 121.568L353.684 121.295C352.282 120.974 351.633 120.338 351.633 119.251V119.244C351.633 117.952 352.836 117.022 354.518 117.022C356.213 117.022 357.3 117.87 357.43 119.08V119.087H356.015V119.073C355.871 118.554 355.345 118.164 354.511 118.164C353.697 118.164 353.109 118.567 353.109 119.162V119.176C353.109 119.641 353.451 119.928 354.285 120.126L355.461 120.392C356.89 120.727 357.573 121.336 357.573 122.409V122.423C357.573 123.797 356.261 124.733 354.497 124.733ZM362.883 124.733C360.709 124.733 359.397 123.25 359.397 120.898V120.891C359.397 118.574 360.737 117.022 362.808 117.022C364.879 117.022 366.151 118.519 366.151 120.748V121.267H360.887C360.914 122.689 361.694 123.516 362.917 123.516C363.867 123.516 364.435 123.045 364.613 122.662L364.64 122.607L366.069 122.6L366.055 122.662C365.809 123.64 364.783 124.733 362.883 124.733ZM362.815 118.239C361.803 118.239 361.037 118.93 360.907 120.208H364.681C364.565 118.882 363.82 118.239 362.815 118.239ZM371.044 124.713C369.177 124.713 367.967 123.216 367.967 120.885V120.871C367.967 118.519 369.157 117.036 371.044 117.036C372.062 117.036 372.93 117.542 373.327 118.342H373.443V114.254H374.919V124.59H373.443V123.421H373.327C372.896 124.234 372.083 124.713 371.044 124.713ZM371.467 123.448C372.705 123.448 373.463 122.471 373.463 120.885V120.871C373.463 119.285 372.698 118.307 371.467 118.307C370.223 118.307 369.478 119.278 369.478 120.871V120.885C369.478 122.477 370.223 123.448 371.467 123.448ZM384.5 124.733C382.709 124.733 381.574 123.892 381.431 122.648V122.641H382.914L382.921 122.648C383.106 123.209 383.646 123.585 384.527 123.585C385.443 123.585 386.079 123.168 386.079 122.559V122.546C386.079 122.081 385.731 121.766 384.869 121.568L383.687 121.295C382.285 120.974 381.636 120.338 381.636 119.251V119.244C381.636 117.952 382.839 117.022 384.521 117.022C386.216 117.022 387.303 117.87 387.433 119.08V119.087H386.018V119.073C385.874 118.554 385.348 118.164 384.514 118.164C383.7 118.164 383.112 118.567 383.112 119.162V119.176C383.112 119.641 383.454 119.928 384.288 120.126L385.464 120.392C386.893 120.727 387.576 121.336 387.576 122.409V122.423C387.576 123.797 386.264 124.733 384.5 124.733ZM392.886 124.733C390.712 124.733 389.4 123.25 389.4 120.898V120.891C389.4 118.574 390.74 117.022 392.811 117.022C394.882 117.022 396.154 118.519 396.154 120.748V121.267H390.89C390.917 122.689 391.697 123.516 392.92 123.516C393.871 123.516 394.438 123.045 394.616 122.662L394.643 122.607L396.072 122.6L396.058 122.662C395.812 123.64 394.787 124.733 392.886 124.733ZM392.818 118.239C391.806 118.239 391.04 118.93 390.911 120.208H394.684C394.568 118.882 393.823 118.239 392.818 118.239ZM398.34 124.59V117.166H399.823V118.287H399.932C400.199 117.501 400.889 117.036 401.881 117.036C402.12 117.036 402.38 117.07 402.53 117.104V118.472C402.263 118.417 402.01 118.383 401.73 118.383C400.595 118.383 399.823 119.08 399.823 120.153V124.59H398.34ZM406.507 124.59L403.82 117.166H405.393L407.245 123.086H407.361L409.207 117.166H410.766L408.086 124.59H406.507ZM413.45 115.84C412.938 115.84 412.521 115.423 412.521 114.917C412.521 114.404 412.938 113.987 413.45 113.987C413.956 113.987 414.38 114.404 414.38 114.917C414.38 115.423 413.956 115.84 413.45 115.84ZM412.705 124.59V117.166H414.182V124.59H412.705ZM419.888 124.733C417.721 124.733 416.395 123.257 416.395 120.857V120.844C416.395 118.492 417.714 117.022 419.881 117.022C421.748 117.022 422.862 118.075 423.067 119.517V119.552L421.645 119.558L421.638 119.538C421.474 118.807 420.873 118.26 419.888 118.26C418.651 118.26 417.906 119.244 417.906 120.844V120.857C417.906 122.498 418.665 123.496 419.888 123.496C420.818 123.496 421.392 123.072 421.631 122.272L421.645 122.238H423.067L423.053 122.3C422.787 123.742 421.727 124.733 419.888 124.733ZM428.288 124.733C426.114 124.733 424.802 123.25 424.802 120.898V120.891C424.802 118.574 426.141 117.022 428.213 117.022C430.284 117.022 431.556 118.519 431.556 120.748V121.267H426.292C426.319 122.689 427.098 123.516 428.322 123.516C429.272 123.516 429.84 123.045 430.017 122.662L430.045 122.607L431.473 122.6L431.46 122.662C431.214 123.64 430.188 124.733 428.288 124.733ZM428.22 118.239C427.208 118.239 426.442 118.93 426.312 120.208H430.086C429.97 118.882 429.224 118.239 428.22 118.239ZM436.442 124.733C434.651 124.733 433.516 123.892 433.372 122.648V122.641H434.856L434.862 122.648C435.047 123.209 435.587 123.585 436.469 123.585C437.385 123.585 438.021 123.168 438.021 122.559V122.546C438.021 122.081 437.672 121.766 436.811 121.568L435.628 121.295C434.227 120.974 433.577 120.338 433.577 119.251V119.244C433.577 117.952 434.78 117.022 436.462 117.022C438.157 117.022 439.244 117.87 439.374 119.08V119.087H437.959V119.073C437.816 118.554 437.289 118.164 436.455 118.164C435.642 118.164 435.054 118.567 435.054 119.162V119.176C435.054 119.641 435.396 119.928 436.23 120.126L437.405 120.392C438.834 120.727 439.518 121.336 439.518 122.409V122.423C439.518 123.797 438.205 124.733 436.442 124.733Z" fill="black"/>
<path d="M317.015 124.59H314.015V127.59H317.015V124.59ZM317.015 114.725V111.725H314.015V114.725H317.015ZM323.277 114.725H326.277V111.725H323.277V114.725ZM323.277 116.045V119.045H326.277V116.045H323.277ZM318.547 116.045V113.045H315.547V116.045H318.547ZM318.547 118.93H315.547V121.93H318.547V118.93ZM323.024 118.93H326.024V115.93H323.024V118.93ZM323.024 120.201V123.201H326.024V120.201H323.024ZM318.547 120.201V117.201H315.547V120.201H318.547ZM318.547 123.27H315.547V126.27H318.547V123.27ZM323.277 123.27H326.277V120.27H323.277V123.27ZM323.277 124.59V127.59H326.277V124.59H323.277ZM317.015 124.59H320.015V114.725H317.015H314.015V124.59H317.015ZM317.015 114.725V117.725H323.277V114.725V111.725H317.015V114.725ZM323.277 114.725H320.277V116.045H323.277H326.277V114.725H323.277ZM323.277 116.045V113.045H318.547V116.045V119.045H323.277V116.045ZM318.547 116.045H315.547V118.93H318.547H321.547V116.045H318.547ZM318.547 118.93V121.93H323.024V118.93V115.93H318.547V118.93ZM323.024 118.93H320.024V120.201H323.024H326.024V118.93H323.024ZM323.024 120.201V117.201H318.547V120.201V123.201H323.024V120.201ZM318.547 120.201H315.547V123.27H318.547H321.547V120.201H318.547ZM318.547 123.27V126.27H323.277V123.27V120.27H318.547V123.27ZM323.277 123.27H320.277V124.59H323.277H326.277V123.27H323.277ZM323.277 124.59V121.59H317.015V124.59V127.59H323.277V124.59ZM325.169 124.59L322.674 122.925L319.561 127.59H325.169V124.59ZM327.637 120.891L330.132 122.557L331.244 120.891L330.132 119.225L327.637 120.891ZM325.149 117.166V114.166H319.537L322.654 118.832L325.149 117.166ZM326.864 117.166L329.433 115.617L328.558 114.166H326.864V117.166ZM328.464 119.818L325.895 121.368L326.77 122.818H328.464V119.818ZM328.58 119.818V122.818H330.282L331.155 121.358L328.58 119.818ZM330.166 117.166V114.166H328.465L327.591 115.626L330.166 117.166ZM331.807 117.166L334.299 118.835L337.427 114.166H331.807V117.166ZM329.353 120.83L326.86 119.16L325.75 120.818L326.849 122.482L329.353 120.83ZM331.834 124.59V127.59H337.409L334.338 122.937L331.834 124.59ZM330.146 124.59L327.581 126.147L328.457 127.59H330.146V124.59ZM328.519 121.91L331.083 120.353L330.207 118.91H328.519V121.91ZM328.409 121.91V118.91H326.721L325.845 120.353L328.409 121.91ZM326.782 124.59V127.59H328.471L329.347 126.147L326.782 124.59ZM325.169 124.59L327.665 126.255L330.132 122.557L327.637 120.891L325.141 119.226L322.674 122.925L325.169 124.59ZM327.637 120.891L330.132 119.225L327.643 115.5L325.149 117.166L322.654 118.832L325.142 122.558L327.637 120.891ZM325.149 117.166V120.166H326.864V117.166V114.166H325.149V117.166ZM326.864 117.166L324.295 118.715L325.895 121.368L328.464 119.818L331.033 118.269L329.433 115.617L326.864 117.166ZM328.464 119.818V122.818H328.58V119.818V116.818H328.464V119.818ZM328.58 119.818L331.155 121.358L332.741 118.705L330.166 117.166L327.591 115.626L326.005 118.279L328.58 119.818ZM330.166 117.166V120.166H331.807V117.166V114.166H330.166V117.166ZM331.807 117.166L329.314 115.496L326.86 119.16L329.353 120.83L331.845 122.499L334.299 118.835L331.807 117.166ZM329.353 120.83L326.849 122.482L329.33 126.242L331.834 124.59L334.338 122.937L331.856 119.177L329.353 120.83ZM331.834 124.59V121.59H330.146V124.59V127.59H331.834V124.59ZM330.146 124.59L332.71 123.033L331.083 120.353L328.519 121.91L325.954 123.467L327.581 126.147L330.146 124.59ZM328.519 121.91V118.91H328.409V121.91V124.91H328.519V121.91ZM328.409 121.91L325.845 120.353L324.218 123.033L326.782 124.59L329.347 126.147L330.974 123.467L328.409 121.91ZM326.782 124.59V121.59H325.169V124.59V127.59H326.782V124.59ZM333.794 127.064H330.794V130.064H333.794V127.064ZM333.794 117.166V114.166H330.794V117.166H333.794ZM335.278 117.166H338.278V114.166H335.278V117.166ZM335.278 118.335H332.278V121.335H335.278V118.335ZM335.387 118.335V121.335H337.193L338.038 119.739L335.387 118.335ZM335.387 123.414L338.075 122.081L337.248 120.414H335.387V123.414ZM335.278 123.414V120.414H332.278V123.414H335.278ZM335.278 127.064V130.064H338.278V127.064H335.278ZM333.794 127.064H336.794V117.166H333.794H330.794V127.064H333.794ZM333.794 117.166V120.166H335.278V117.166V114.166H333.794V117.166ZM335.278 117.166H332.278V118.335H335.278H338.278V117.166H335.278ZM335.278 118.335V121.335H335.387V118.335V115.335H335.278V118.335ZM335.387 118.335L338.038 119.739C337.997 119.816 337.915 119.913 337.798 119.98C337.686 120.045 337.623 120.036 337.67 120.036V117.036V114.036C335.611 114.036 333.728 115.057 332.736 116.931L335.387 118.335ZM337.67 117.036V120.036C337.733 120.036 337.719 120.047 337.665 120.021C337.609 119.995 337.577 119.962 337.571 119.955C337.569 119.952 337.746 120.186 337.746 120.871H340.746H343.746C343.746 119.218 343.322 117.535 342.25 116.199C341.125 114.797 339.482 114.036 337.67 114.036V117.036ZM340.746 120.871H337.746V120.885H340.746H343.746V120.871H340.746ZM340.746 120.885H337.746C337.746 121.588 337.567 121.814 337.578 121.801C337.589 121.787 337.626 121.751 337.682 121.725C337.737 121.7 337.745 121.713 337.67 121.713V124.713V127.713C339.47 127.713 341.119 126.971 342.254 125.561C343.331 124.221 343.746 122.533 343.746 120.885H340.746ZM337.67 124.713V121.713C337.65 121.713 337.695 121.708 337.782 121.758C337.872 121.809 337.991 121.913 338.075 122.081L335.387 123.414L332.699 124.746C333.677 126.718 335.69 127.713 337.67 127.713V124.713ZM335.387 123.414V120.414H335.278V123.414V126.414H335.387V123.414ZM335.278 123.414H332.278V127.064H335.278H338.278V123.414H335.278ZM335.278 127.064V124.064H333.794V127.064V130.064H335.278V127.064ZM337.253 123.448V126.448C338.743 126.448 340.139 125.82 341.083 124.597C341.955 123.467 342.236 122.104 342.236 120.885H339.236H336.236C336.236 121.258 336.144 121.177 336.334 120.931C336.437 120.796 336.594 120.658 336.797 120.562C336.997 120.467 337.165 120.448 337.253 120.448V123.448ZM339.236 120.885H342.236V120.871H339.236H336.236V120.885H339.236ZM339.236 120.871H342.236C342.236 119.65 341.956 118.285 341.082 117.154C340.134 115.929 338.736 115.307 337.253 115.307V118.307V121.307C337.168 121.307 337.001 121.289 336.802 121.195C336.599 121.099 336.441 120.961 336.335 120.825C336.143 120.575 336.236 120.492 336.236 120.871H339.236ZM337.253 118.307V115.307C335.762 115.307 334.37 115.938 333.424 117.147C332.545 118.271 332.25 119.635 332.25 120.871H335.25H338.25C338.25 120.521 338.338 120.603 338.151 120.842C338.05 120.971 337.898 121.103 337.703 121.196C337.51 121.288 337.345 121.307 337.253 121.307V118.307ZM335.25 120.871H332.25V120.885H335.25H338.25V120.871H335.25ZM335.25 120.885H332.25C332.25 122.121 332.545 123.484 333.424 124.609C334.37 125.818 335.762 126.448 337.253 126.448V123.448V120.448C337.345 120.448 337.51 120.468 337.703 120.559C337.898 120.652 338.05 120.784 338.151 120.913C338.338 121.153 338.25 121.234 338.25 120.885H335.25ZM346.097 124.733V121.733C345.886 121.733 345.781 121.698 345.749 121.686C345.733 121.679 345.729 121.675 345.731 121.677C345.732 121.678 345.734 121.679 345.735 121.68C345.736 121.681 345.736 121.681 345.737 121.682C345.737 121.682 345.738 121.683 345.738 121.683C345.738 121.683 345.737 121.682 345.737 121.681C345.736 121.681 345.735 121.679 345.733 121.677C345.731 121.673 345.726 121.667 345.72 121.656C345.708 121.636 345.69 121.599 345.67 121.539C345.629 121.418 345.584 121.208 345.584 120.885H342.584H339.584C339.584 122.622 340.072 124.377 341.308 125.73C342.574 127.115 344.311 127.733 346.097 127.733V124.733ZM342.584 120.885H345.584V120.871H342.584H339.584V120.885H342.584ZM342.584 120.871H345.584C345.584 120.552 345.629 120.343 345.669 120.223C345.689 120.163 345.708 120.126 345.72 120.105C345.732 120.084 345.74 120.076 345.74 120.076C345.74 120.076 345.738 120.077 345.736 120.079C345.735 120.08 345.74 120.076 345.756 120.069C345.787 120.057 345.891 120.022 346.097 120.022V117.022V114.022C344.308 114.022 342.574 114.646 341.311 116.028C340.077 117.378 339.584 119.131 339.584 120.871H342.584ZM346.097 117.022V120.022C346.303 120.022 346.405 120.056 346.436 120.069C346.452 120.075 346.456 120.079 346.454 120.077C346.453 120.077 346.452 120.076 346.45 120.075C346.449 120.073 346.448 120.073 346.449 120.073C346.449 120.073 346.451 120.075 346.453 120.079C346.456 120.083 346.461 120.09 346.467 120.101C346.479 120.122 346.498 120.159 346.518 120.219C346.559 120.34 346.604 120.55 346.604 120.871H349.604H352.604C352.604 119.13 352.112 117.376 350.878 116.026C349.615 114.644 347.882 114.022 346.097 114.022V117.022ZM349.604 120.871H346.604V120.885H349.604H352.604V120.871H349.604ZM349.604 120.885H346.604C346.604 121.208 346.559 121.419 346.518 121.54C346.498 121.599 346.479 121.637 346.468 121.658C346.462 121.668 346.457 121.675 346.454 121.679C346.453 121.681 346.452 121.682 346.451 121.683C346.45 121.684 346.45 121.684 346.45 121.684C346.45 121.684 346.45 121.684 346.45 121.684C346.451 121.683 346.451 121.683 346.452 121.682C346.454 121.68 346.455 121.679 346.456 121.679C346.459 121.677 346.455 121.68 346.439 121.687C346.409 121.699 346.306 121.733 346.097 121.733V124.733V127.733C347.883 127.733 349.618 127.113 350.882 125.728C352.115 124.376 352.604 122.622 352.604 120.885H349.604ZM346.097 123.496V126.496C347.584 126.496 349.004 125.881 349.961 124.62C350.834 123.471 351.093 122.093 351.093 120.885H348.093H345.093C345.093 121.317 344.991 121.244 345.183 120.991C345.291 120.849 345.455 120.705 345.664 120.606C345.866 120.511 346.029 120.496 346.097 120.496V123.496ZM348.093 120.885H351.093V120.871H348.093H345.093V120.885H348.093ZM348.093 120.871H351.093C351.093 119.662 350.835 118.281 349.96 117.131C348.998 115.868 347.577 115.26 346.097 115.26V118.26V121.26C346.032 121.26 345.871 121.246 345.668 121.15C345.459 121.052 345.294 120.908 345.185 120.764C344.99 120.508 345.093 120.432 345.093 120.871H348.093ZM346.097 118.26V115.26C344.618 115.26 343.193 115.865 342.23 117.134C341.356 118.286 341.101 119.668 341.101 120.871H344.101H347.101C347.101 120.427 347.206 120.503 347.009 120.761C346.899 120.907 346.732 121.052 346.522 121.151C346.319 121.247 346.158 121.26 346.097 121.26V118.26ZM344.101 120.871H341.101V120.885H344.101H347.101V120.871H344.101ZM344.101 120.885H341.101C341.101 122.088 341.356 123.47 342.23 124.622C343.193 125.891 344.618 126.496 346.097 126.496V123.496V120.496C346.158 120.496 346.319 120.509 346.522 120.605C346.732 120.703 346.899 120.849 347.009 120.994C347.206 121.253 347.101 121.329 347.101 120.885H344.101ZM351.428 122.648H348.428V122.821L348.447 122.992L351.428 122.648ZM351.428 122.641V119.641H348.428V122.641H351.428ZM352.911 122.641L355.032 120.52L354.154 119.641H352.911V122.641ZM352.918 122.648L355.767 121.71L355.544 121.032L355.039 120.527L352.918 122.648ZM354.866 121.568L354.19 124.491L354.193 124.492L354.866 121.568ZM353.684 121.295L354.359 118.372L354.354 118.371L353.684 121.295ZM357.43 119.08H360.43V118.919L360.413 118.76L357.43 119.08ZM357.43 119.087V122.087H360.43V119.087H357.43ZM356.015 119.087H353.015V122.087H356.015V119.087ZM356.015 119.073H359.015V118.666L358.906 118.274L356.015 119.073ZM354.285 120.126L353.591 123.045L353.607 123.048L353.622 123.052L354.285 120.126ZM355.461 120.392L356.146 117.472L356.135 117.469L356.124 117.467L355.461 120.392ZM354.497 124.733V121.733C354.046 121.733 353.958 121.625 354.058 121.695C354.114 121.734 354.201 121.812 354.278 121.939C354.357 122.067 354.396 122.199 354.408 122.304L351.428 122.648L348.447 122.992C348.622 124.505 349.429 125.783 350.631 126.62C351.782 127.421 353.157 127.733 354.497 127.733V124.733ZM351.428 122.648H354.428V122.641H351.428H348.428V122.648H351.428ZM351.428 122.641V125.641H352.911V122.641V119.641H351.428V122.641ZM352.911 122.641L350.79 124.763L350.797 124.77L352.918 122.648L355.039 120.527L355.032 120.52L352.911 122.641ZM352.918 122.648L350.068 123.587C350.771 125.721 352.75 126.585 354.524 126.585V123.585V120.585C354.498 120.585 354.717 120.579 355.025 120.767C355.364 120.975 355.637 121.315 355.767 121.71L352.918 122.648ZM354.524 123.585V126.585C355.396 126.585 356.404 126.392 357.295 125.805C358.248 125.177 359.076 124.053 359.076 122.559H356.076H353.076C353.076 122.169 353.184 121.781 353.382 121.446C353.573 121.124 353.808 120.917 353.992 120.796C354.336 120.569 354.569 120.585 354.524 120.585V123.585ZM356.076 122.559H359.076V122.546H356.076H353.076V122.559H356.076ZM356.076 122.546H359.076C359.076 121.416 358.588 120.376 357.709 119.647C356.984 119.047 356.148 118.785 355.539 118.645L354.866 121.568L354.193 124.492C354.446 124.55 354.214 124.544 353.88 124.267C353.683 124.103 353.459 123.853 353.294 123.503C353.129 123.153 353.076 122.815 353.076 122.546H356.076ZM354.866 121.568L355.542 118.645L354.359 118.372L353.684 121.295L353.008 124.218L354.19 124.491L354.866 121.568ZM353.684 121.295L354.354 118.371C354.157 118.326 354.069 118.287 354.053 118.28C354.04 118.274 354.127 118.313 354.246 118.431C354.374 118.558 354.488 118.726 354.56 118.916C354.628 119.096 354.633 119.223 354.633 119.251H351.633H348.633C348.633 120.455 349.023 121.7 350.019 122.689C350.918 123.581 352.048 123.998 353.013 124.219L353.684 121.295ZM351.633 119.251H354.633V119.244H351.633H348.633V119.251H351.633ZM351.633 119.244H354.633C354.633 119.398 354.594 119.571 354.512 119.73C354.432 119.884 354.337 119.978 354.276 120.025C354.166 120.11 354.206 120.022 354.518 120.022V117.022V114.022C351.952 114.022 348.633 115.616 348.633 119.244H351.633ZM354.518 117.022V120.022C354.884 120.022 354.921 120.114 354.797 120.025C354.733 119.978 354.646 119.894 354.572 119.768C354.497 119.64 354.459 119.509 354.447 119.4L357.43 119.08L360.413 118.76C360.063 115.504 357.157 114.022 354.518 114.022V117.022ZM357.43 119.08H354.43V119.087H357.43H360.43V119.08H357.43ZM357.43 119.087V116.087H356.015V119.087V122.087H357.43V119.087ZM356.015 119.087H359.015V119.073H356.015H353.015V119.087H356.015ZM356.015 119.073L358.906 118.274C358.3 116.081 356.263 115.164 354.511 115.164V118.164V121.164C354.468 121.164 354.221 121.153 353.905 120.951C353.572 120.738 353.26 120.367 353.123 119.872L356.015 119.073ZM354.511 118.164V115.164C353.644 115.164 352.647 115.374 351.777 115.987C350.848 116.642 350.109 117.754 350.109 119.162H353.109H356.109C356.109 119.975 355.665 120.588 355.233 120.892C354.86 121.155 354.564 121.164 354.511 121.164V118.164ZM353.109 119.162H350.109V119.176H353.109H356.109V119.162H353.109ZM353.109 119.176H350.109C350.109 120.301 350.594 121.346 351.489 122.076C352.206 122.661 353.029 122.911 353.591 123.045L354.285 120.126L354.979 117.207C354.707 117.143 354.942 117.15 355.28 117.426C355.484 117.592 355.717 117.849 355.888 118.211C356.059 118.571 356.109 118.914 356.109 119.176H353.109ZM354.285 120.126L353.622 123.052L354.798 123.318L355.461 120.392L356.124 117.467L354.949 117.2L354.285 120.126ZM355.461 120.392L354.776 123.313C354.996 123.365 355.109 123.409 355.148 123.427C355.186 123.444 355.113 123.417 354.999 123.311C354.875 123.194 354.749 123.024 354.664 122.815C354.582 122.615 354.573 122.462 354.573 122.409H357.573H360.573C360.573 121.149 360.132 119.9 359.106 118.937C358.203 118.089 357.084 117.692 356.146 117.472L355.461 120.392ZM357.573 122.409H354.573V122.423H357.573H360.573V122.409H357.573ZM357.573 122.423H354.573C354.573 122.275 354.612 122.104 354.696 121.946C354.777 121.796 354.868 121.714 354.912 121.682C354.983 121.629 354.878 121.733 354.497 121.733V124.733V127.733C355.879 127.733 357.312 127.369 358.481 126.505C359.702 125.602 360.573 124.17 360.573 122.423H357.573ZM366.151 121.267V124.267H369.151V121.267H366.151ZM360.887 121.267V118.267H357.829L357.888 121.325L360.887 121.267ZM364.613 122.662L361.929 121.32L361.91 121.359L361.892 121.399L364.613 122.662ZM364.64 122.607L364.626 119.607L362.781 119.616L361.957 121.266L364.64 122.607ZM366.069 122.6L368.997 123.251L369.812 119.583L366.054 119.6L366.069 122.6ZM366.055 122.662L368.964 123.394L368.974 123.354L368.984 123.313L366.055 122.662ZM360.907 120.208L357.923 119.905L357.587 123.208H360.907V120.208ZM364.681 120.208V123.208H367.955L367.669 119.946L364.681 120.208ZM362.883 124.733V121.733C362.682 121.733 362.585 121.699 362.559 121.689C362.546 121.683 362.543 121.681 362.546 121.683C362.547 121.684 362.549 121.685 362.55 121.686C362.552 121.688 362.552 121.688 362.552 121.688C362.552 121.688 362.544 121.68 362.532 121.658C362.52 121.637 362.501 121.598 362.481 121.539C362.441 121.417 362.397 121.21 362.397 120.898H359.397H356.397C356.397 122.615 356.88 124.358 358.097 125.707C359.349 127.094 361.079 127.733 362.883 127.733V124.733ZM359.397 120.898H362.397V120.891H359.397H356.397V120.898H359.397ZM359.397 120.891H362.397C362.397 120.297 362.565 120.084 362.582 120.065C362.591 120.055 362.593 120.054 362.6 120.051C362.608 120.047 362.668 120.022 362.808 120.022V117.022V114.022C360.973 114.022 359.274 114.736 358.069 116.111C356.898 117.447 356.397 119.169 356.397 120.891H359.397ZM362.808 117.022V120.022C362.962 120.022 363.024 120.049 363.027 120.05C363.03 120.052 363.026 120.05 363.019 120.045C363.016 120.043 363.013 120.041 363.011 120.039C363.009 120.037 363.008 120.036 363.008 120.036C363.008 120.036 363.01 120.038 363.013 120.042C363.016 120.047 363.02 120.054 363.026 120.064C363.038 120.085 363.056 120.121 363.074 120.176C363.111 120.287 363.151 120.473 363.151 120.748H366.151H369.151C369.151 119.079 368.671 117.384 367.504 116.063C366.301 114.701 364.613 114.022 362.808 114.022V117.022ZM366.151 120.748H363.151V121.267H366.151H369.151V120.748H366.151ZM366.151 121.267V118.267H360.887V121.267V124.267H366.151V121.267ZM360.887 121.267L357.888 121.325C357.911 122.554 358.27 123.888 359.238 124.948C360.242 126.047 361.596 126.516 362.917 126.516V123.516V120.516C362.95 120.516 363.061 120.522 363.217 120.586C363.378 120.651 363.538 120.759 363.669 120.902C363.935 121.193 363.89 121.403 363.886 121.21L360.887 121.267ZM362.917 123.516V126.516C364.85 126.516 366.591 125.526 367.334 123.925L364.613 122.662L361.892 121.399C362.096 120.957 362.374 120.741 362.538 120.645C362.737 120.528 362.885 120.516 362.917 120.516V123.516ZM364.613 122.662L367.296 124.004L367.323 123.949L364.64 122.607L361.957 121.266L361.929 121.32L364.613 122.662ZM364.64 122.607L364.654 125.607L366.083 125.6L366.069 122.6L366.054 119.6L364.626 119.607L364.64 122.607ZM366.069 122.6L363.14 121.95L363.126 122.011L366.055 122.662L368.984 123.313L368.997 123.251L366.069 122.6ZM366.055 122.662L363.146 121.93C363.171 121.828 363.206 121.765 363.229 121.731C363.254 121.693 363.275 121.675 363.283 121.669C363.293 121.661 363.281 121.674 363.229 121.691C363.178 121.707 363.068 121.733 362.883 121.733V124.733V127.733C366.076 127.733 368.363 125.783 368.964 123.394L366.055 122.662ZM362.815 118.239V115.239C361.595 115.239 360.364 115.672 359.415 116.617C358.486 117.541 358.042 118.735 357.923 119.905L360.907 120.208L363.892 120.511C363.903 120.402 363.907 120.612 363.646 120.871C363.365 121.151 363.023 121.239 362.815 121.239V118.239ZM360.907 120.208V123.208H364.681V120.208V117.208H360.907V120.208ZM364.681 120.208L367.669 119.946C367.567 118.782 367.154 117.556 366.202 116.605C365.226 115.629 363.981 115.239 362.815 115.239V118.239V121.239C362.653 121.239 362.283 121.171 361.96 120.848C361.661 120.549 361.678 120.308 361.692 120.47L364.681 120.208ZM373.327 118.342L370.639 119.674L371.466 121.342H373.327V118.342ZM373.443 118.342V121.342H376.443V118.342H373.443ZM373.443 114.254V111.254H370.443V114.254H373.443ZM374.919 114.254H377.919V111.254H374.919V114.254ZM374.919 124.59V127.59H377.919V124.59H374.919ZM373.443 124.59H370.443V127.59H373.443V124.59ZM373.443 123.421H376.443V120.421H373.443V123.421ZM373.327 123.421V120.421H371.52L370.675 122.017L373.327 123.421ZM371.044 124.713V121.713C370.984 121.713 370.999 121.703 371.052 121.728C371.076 121.739 371.098 121.753 371.116 121.767C371.125 121.774 371.131 121.78 371.136 121.785C371.141 121.789 371.143 121.792 371.143 121.792C371.143 121.792 371.14 121.789 371.135 121.782C371.131 121.775 371.124 121.763 371.116 121.748C371.1 121.716 371.078 121.666 371.055 121.592C371.01 121.443 370.967 121.211 370.967 120.885H367.967H364.967C364.967 122.54 365.396 124.221 366.469 125.554C367.593 126.951 369.233 127.713 371.044 127.713V124.713ZM367.967 120.885H370.967V120.871H367.967H364.967V120.885H367.967ZM367.967 120.871H370.967C370.967 120.168 371.147 119.938 371.138 119.949C371.129 119.961 371.092 119.997 371.035 120.023C370.981 120.049 370.971 120.036 371.044 120.036V117.036V114.036C369.239 114.036 367.59 114.783 366.458 116.195C365.382 117.535 364.967 119.222 364.967 120.871H367.967ZM371.044 117.036V120.036C371.057 120.036 371.009 120.039 370.923 119.99C370.836 119.939 370.72 119.839 370.639 119.674L373.327 118.342L376.015 117.009C375.043 115.05 373.04 114.036 371.044 114.036V117.036ZM373.327 118.342V121.342H373.443V118.342V115.342H373.327V118.342ZM373.443 118.342H376.443V114.254H373.443H370.443V118.342H373.443ZM373.443 114.254V117.254H374.919V114.254V111.254H373.443V114.254ZM374.919 114.254H371.919V124.59H374.919H377.919V114.254H374.919ZM374.919 124.59V121.59H373.443V124.59V127.59H374.919V124.59ZM373.443 124.59H376.443V123.421H373.443H370.443V124.59H373.443ZM373.443 123.421V120.421H373.327V123.421V126.421H373.443V123.421ZM373.327 123.421L370.675 122.017C370.719 121.935 370.805 121.836 370.924 121.767C371.038 121.702 371.098 121.713 371.044 121.713V124.713V127.713C373.086 127.713 374.979 126.711 375.978 124.824L373.327 123.421ZM371.467 123.448V126.448C372.96 126.448 374.354 125.816 375.297 124.603C376.173 123.478 376.463 122.115 376.463 120.885H373.463H370.463C370.463 121.24 370.374 121.159 370.562 120.919C370.663 120.789 370.816 120.655 371.014 120.561C371.209 120.468 371.376 120.448 371.467 120.448V123.448ZM373.463 120.885H376.463V120.871H373.463H370.463V120.885H373.463ZM373.463 120.871H376.463C376.463 119.635 376.169 118.273 375.292 117.15C374.351 115.942 372.961 115.307 371.467 115.307V118.307V121.307C371.372 121.307 371.204 121.287 371.01 121.194C370.813 121.101 370.661 120.968 370.561 120.839C370.375 120.601 370.463 120.521 370.463 120.871H373.463ZM371.467 118.307V115.307C369.98 115.307 368.581 115.931 367.633 117.156C366.759 118.287 366.478 119.651 366.478 120.871H369.478H372.478C372.478 120.498 372.57 120.581 372.379 120.828C372.274 120.963 372.117 121.1 371.915 121.196C371.717 121.289 371.552 121.307 371.467 121.307V118.307ZM369.478 120.871H366.478V120.885H369.478H372.478V120.871H369.478ZM369.478 120.885H366.478C366.478 122.104 366.759 123.469 367.633 124.599C368.581 125.824 369.98 126.448 371.467 126.448V123.448V120.448C371.552 120.448 371.717 120.466 371.915 120.56C372.117 120.656 372.274 120.793 372.379 120.928C372.57 121.175 372.478 121.258 372.478 120.885H369.478ZM381.431 122.648H378.431V122.821L378.451 122.992L381.431 122.648ZM381.431 122.641V119.641H378.431V122.641H381.431ZM382.914 122.641L385.036 120.52L384.157 119.641H382.914V122.641ZM382.921 122.648L385.771 121.71L385.547 121.032L385.042 120.527L382.921 122.648ZM384.869 121.568L384.193 124.491L384.196 124.492L384.869 121.568ZM383.687 121.295L384.362 118.372L384.357 118.371L383.687 121.295ZM387.433 119.08H390.433V118.919L390.416 118.76L387.433 119.08ZM387.433 119.087V122.087H390.433V119.087H387.433ZM386.018 119.087H383.018V122.087H386.018V119.087ZM386.018 119.073H389.018V118.666L388.909 118.274L386.018 119.073ZM384.288 120.126L383.594 123.045L383.61 123.048L383.625 123.052L384.288 120.126ZM385.464 120.392L386.149 117.472L386.138 117.469L386.127 117.467L385.464 120.392ZM384.5 124.733V121.733C384.049 121.733 383.962 121.625 384.061 121.695C384.117 121.734 384.204 121.812 384.281 121.939C384.36 122.067 384.399 122.199 384.411 122.304L381.431 122.648L378.451 122.992C378.625 124.505 379.432 125.783 380.634 126.62C381.785 127.421 383.16 127.733 384.5 127.733V124.733ZM381.431 122.648H384.431V122.641H381.431H378.431V122.648H381.431ZM381.431 122.641V125.641H382.914V122.641V119.641H381.431V122.641ZM382.914 122.641L380.793 124.763L380.8 124.77L382.921 122.648L385.042 120.527L385.036 120.52L382.914 122.641ZM382.921 122.648L380.072 123.587C380.774 125.721 382.753 126.585 384.527 126.585V123.585V120.585C384.501 120.585 384.72 120.579 385.028 120.767C385.367 120.975 385.641 121.315 385.771 121.71L382.921 122.648ZM384.527 123.585V126.585C385.399 126.585 386.408 126.392 387.298 125.805C388.251 125.177 389.079 124.053 389.079 122.559H386.079H383.079C383.079 122.169 383.187 121.781 383.385 121.446C383.576 121.124 383.811 120.917 383.995 120.796C384.339 120.569 384.572 120.585 384.527 120.585V123.585ZM386.079 122.559H389.079V122.546H386.079H383.079V122.559H386.079ZM386.079 122.546H389.079C389.079 121.416 388.591 120.376 387.712 119.647C386.987 119.047 386.151 118.785 385.542 118.645L384.869 121.568L384.196 124.492C384.449 124.55 384.217 124.544 383.883 124.267C383.686 124.103 383.462 123.853 383.297 123.503C383.132 123.153 383.079 122.815 383.079 122.546H386.079ZM384.869 121.568L385.545 118.645L384.362 118.372L383.687 121.295L383.011 124.218L384.193 124.491L384.869 121.568ZM383.687 121.295L384.357 118.371C384.16 118.326 384.072 118.287 384.056 118.28C384.043 118.274 384.13 118.313 384.249 118.431C384.377 118.558 384.491 118.726 384.563 118.916C384.631 119.096 384.636 119.223 384.636 119.251H381.636H378.636C378.636 120.455 379.026 121.7 380.023 122.689C380.922 123.581 382.051 123.998 383.016 124.219L383.687 121.295ZM381.636 119.251H384.636V119.244H381.636H378.636V119.251H381.636ZM381.636 119.244H384.636C384.636 119.398 384.597 119.571 384.515 119.73C384.435 119.884 384.34 119.978 384.279 120.025C384.169 120.11 384.209 120.022 384.521 120.022V117.022V114.022C381.955 114.022 378.636 115.616 378.636 119.244H381.636ZM384.521 117.022V120.022C384.887 120.022 384.924 120.114 384.8 120.025C384.736 119.978 384.649 119.894 384.575 119.768C384.5 119.64 384.462 119.509 384.45 119.4L387.433 119.08L390.416 118.76C390.066 115.504 387.16 114.022 384.521 114.022V117.022ZM387.433 119.08H384.433V119.087H387.433H390.433V119.08H387.433ZM387.433 119.087V116.087H386.018V119.087V122.087H387.433V119.087ZM386.018 119.087H389.018V119.073H386.018H383.018V119.087H386.018ZM386.018 119.073L388.909 118.274C388.303 116.081 386.266 115.164 384.514 115.164V118.164V121.164C384.471 121.164 384.224 121.153 383.908 120.951C383.575 120.738 383.263 120.367 383.126 119.872L386.018 119.073ZM384.514 118.164V115.164C383.647 115.164 382.651 115.374 381.78 115.987C380.851 116.642 380.112 117.754 380.112 119.162H383.112H386.112C386.112 119.975 385.668 120.588 385.236 120.892C384.863 121.155 384.567 121.164 384.514 121.164V118.164ZM383.112 119.162H380.112V119.176H383.112H386.112V119.162H383.112ZM383.112 119.176H380.112C380.112 120.301 380.597 121.346 381.492 122.076C382.209 122.661 383.032 122.911 383.594 123.045L384.288 120.126L384.982 117.207C384.71 117.143 384.945 117.15 385.283 117.426C385.487 117.592 385.72 117.849 385.891 118.211C386.062 118.571 386.112 118.914 386.112 119.176H383.112ZM384.288 120.126L383.625 123.052L384.801 123.318L385.464 120.392L386.127 117.467L384.952 117.2L384.288 120.126ZM385.464 120.392L384.779 123.313C384.999 123.365 385.112 123.409 385.151 123.427C385.189 123.444 385.116 123.417 385.002 123.311C384.878 123.194 384.752 123.024 384.667 122.815C384.586 122.615 384.576 122.462 384.576 122.409H387.576H390.576C390.576 121.149 390.135 119.9 389.109 118.937C388.206 118.089 387.087 117.692 386.149 117.472L385.464 120.392ZM387.576 122.409H384.576V122.423H387.576H390.576V122.409H387.576ZM387.576 122.423H384.576C384.576 122.275 384.615 122.104 384.699 121.946C384.78 121.796 384.872 121.714 384.915 121.682C384.987 121.629 384.881 121.733 384.5 121.733V124.733V127.733C385.883 127.733 387.315 127.369 388.484 126.505C389.705 125.602 390.576 124.17 390.576 122.423H387.576ZM396.154 121.267V124.267H399.154V121.267H396.154ZM390.89 121.267V118.267H387.832L387.891 121.325L390.89 121.267ZM394.616 122.662L391.932 121.32L391.913 121.359L391.895 121.399L394.616 122.662ZM394.643 122.607L394.629 119.607L392.784 119.616L391.96 121.266L394.643 122.607ZM396.072 122.6L399 123.251L399.816 119.583L396.057 119.6L396.072 122.6ZM396.058 122.662L398.967 123.394L398.977 123.354L398.987 123.313L396.058 122.662ZM390.911 120.208L387.926 119.905L387.59 123.208H390.911V120.208ZM394.684 120.208V123.208H397.958L397.673 119.946L394.684 120.208ZM392.886 124.733V121.733C392.685 121.733 392.588 121.699 392.563 121.689C392.549 121.683 392.546 121.681 392.549 121.683C392.55 121.684 392.552 121.685 392.553 121.686C392.555 121.688 392.555 121.688 392.555 121.688C392.555 121.688 392.548 121.68 392.535 121.658C392.523 121.637 392.504 121.598 392.484 121.539C392.444 121.417 392.4 121.21 392.4 120.898H389.4H386.4C386.4 122.615 386.883 124.358 388.1 125.707C389.352 127.094 391.082 127.733 392.886 127.733V124.733ZM389.4 120.898H392.4V120.891H389.4H386.4V120.898H389.4ZM389.4 120.891H392.4C392.4 120.297 392.568 120.084 392.585 120.065C392.594 120.055 392.596 120.054 392.603 120.051C392.611 120.047 392.672 120.022 392.811 120.022V117.022V114.022C390.976 114.022 389.278 114.736 388.073 116.111C386.901 117.447 386.4 119.169 386.4 120.891H389.4ZM392.811 117.022V120.022C392.965 120.022 393.027 120.049 393.03 120.05C393.033 120.052 393.029 120.05 393.022 120.045C393.019 120.043 393.016 120.041 393.014 120.039C393.012 120.037 393.011 120.036 393.011 120.036C393.011 120.036 393.013 120.038 393.016 120.042C393.019 120.047 393.024 120.054 393.03 120.064C393.041 120.085 393.059 120.121 393.077 120.176C393.114 120.287 393.154 120.473 393.154 120.748H396.154H399.154C399.154 119.079 398.674 117.384 397.507 116.063C396.304 114.701 394.616 114.022 392.811 114.022V117.022ZM396.154 120.748H393.154V121.267H396.154H399.154V120.748H396.154ZM396.154 121.267V118.267H390.89V121.267V124.267H396.154V121.267ZM390.89 121.267L387.891 121.325C387.914 122.554 388.273 123.888 389.241 124.948C390.245 126.047 391.599 126.516 392.92 126.516V123.516V120.516C392.953 120.516 393.064 120.522 393.22 120.586C393.381 120.651 393.541 120.759 393.672 120.902C393.938 121.193 393.893 121.403 393.889 121.21L390.89 121.267ZM392.92 123.516V126.516C394.853 126.516 396.594 125.526 397.337 123.925L394.616 122.662L391.895 121.399C392.099 120.957 392.377 120.741 392.541 120.645C392.74 120.528 392.888 120.516 392.92 120.516V123.516ZM394.616 122.662L397.299 124.004L397.326 123.949L394.643 122.607L391.96 121.266L391.932 121.32L394.616 122.662ZM394.643 122.607L394.657 125.607L396.086 125.6L396.072 122.6L396.057 119.6L394.629 119.607L394.643 122.607ZM396.072 122.6L393.143 121.95L393.129 122.011L396.058 122.662L398.987 123.313L399 123.251L396.072 122.6ZM396.058 122.662L393.149 121.93C393.174 121.828 393.209 121.765 393.232 121.731C393.257 121.693 393.278 121.675 393.286 121.669C393.296 121.661 393.284 121.674 393.232 121.691C393.181 121.707 393.071 121.733 392.886 121.733V124.733V127.733C396.079 127.733 398.366 125.783 398.967 123.394L396.058 122.662ZM392.818 118.239V115.239C391.598 115.239 390.367 115.672 389.418 116.617C388.489 117.541 388.045 118.735 387.926 119.905L390.911 120.208L393.895 120.511C393.906 120.402 393.91 120.612 393.649 120.871C393.368 121.151 393.026 121.239 392.818 121.239V118.239ZM390.911 120.208V123.208H394.684V120.208V117.208H390.911V120.208ZM394.684 120.208L397.673 119.946C397.571 118.782 397.157 117.556 396.205 116.605C395.23 115.629 393.984 115.239 392.818 115.239V118.239V121.239C392.657 121.239 392.286 121.171 391.963 120.848C391.664 120.549 391.681 120.308 391.695 120.47L394.684 120.208ZM398.34 124.59H395.34V127.59H398.34V124.59ZM398.34 117.166V114.166H395.34V117.166H398.34ZM399.823 117.166H402.823V114.166H399.823V117.166ZM399.823 118.287H396.823V121.287H399.823V118.287ZM399.932 118.287V121.287H402.083L402.773 119.25L399.932 118.287ZM402.53 117.104H405.53V114.71L403.195 114.179L402.53 117.104ZM402.53 118.472L401.927 121.41L405.53 122.149V118.472H402.53ZM399.823 124.59V127.59H402.823V124.59H399.823ZM398.34 124.59H401.34V117.166H398.34H395.34V124.59H398.34ZM398.34 117.166V120.166H399.823V117.166V114.166H398.34V117.166ZM399.823 117.166H396.823V118.287H399.823H402.823V117.166H399.823ZM399.823 118.287V121.287H399.932V118.287V115.287H399.823V118.287ZM399.932 118.287L402.773 119.25C402.702 119.461 402.534 119.71 402.27 119.882C402.026 120.041 401.851 120.036 401.881 120.036V117.036V114.036C399.834 114.036 397.84 115.115 397.091 117.323L399.932 118.287ZM401.881 117.036V120.036C401.875 120.036 401.872 120.036 401.872 120.036C401.872 120.036 401.873 120.036 401.876 120.036C401.879 120.036 401.883 120.037 401.888 120.037C401.893 120.037 401.898 120.038 401.902 120.038C401.907 120.039 401.911 120.039 401.914 120.04C401.917 120.04 401.918 120.04 401.917 120.04C401.916 120.04 401.912 120.04 401.904 120.038C401.897 120.037 401.884 120.034 401.865 120.03L402.53 117.104L403.195 114.179C402.829 114.096 402.346 114.036 401.881 114.036V117.036ZM402.53 117.104H399.53V118.472H402.53H405.53V117.104H402.53ZM402.53 118.472L403.133 115.533C402.732 115.451 402.269 115.383 401.73 115.383V118.383V121.383C401.746 121.383 401.763 121.383 401.787 121.386C401.813 121.389 401.856 121.396 401.927 121.41L402.53 118.472ZM401.73 118.383V115.383C400.552 115.383 399.304 115.751 398.319 116.659C397.309 117.588 396.823 118.86 396.823 120.153H399.823H402.823C402.823 120.373 402.723 120.759 402.383 121.072C402.068 121.363 401.773 121.383 401.73 121.383V118.383ZM399.823 120.153H396.823V124.59H399.823H402.823V120.153H399.823ZM399.823 124.59V121.59H398.34V124.59V127.59H399.823V124.59ZM406.507 124.59L403.686 125.611L404.402 127.59H406.507V124.59ZM403.82 117.166V114.166H399.544L400.999 118.187L403.82 117.166ZM405.393 117.166L408.256 116.27L407.597 114.166H405.393V117.166ZM407.245 123.086L404.382 123.982L405.04 126.086H407.245V123.086ZM407.361 123.086V126.086H409.568L410.225 123.979L407.361 123.086ZM409.207 117.166V114.166H407L406.343 116.273L409.207 117.166ZM410.766 117.166L413.587 118.184L415.038 114.166H410.766V117.166ZM408.086 124.59V127.59H410.193L410.908 125.608L408.086 124.59ZM406.507 124.59L409.328 123.569L406.641 116.145L403.82 117.166L400.999 118.187L403.686 125.611L406.507 124.59ZM403.82 117.166V120.166H405.393V117.166V114.166H403.82V117.166ZM405.393 117.166L402.529 118.062L404.382 123.982L407.245 123.086L410.108 122.19L408.256 116.27L405.393 117.166ZM407.245 123.086V126.086H407.361V123.086V120.086H407.245V123.086ZM407.361 123.086L410.225 123.979L412.071 118.059L409.207 117.166L406.343 116.273L404.497 122.193L407.361 123.086ZM409.207 117.166V120.166H410.766V117.166V114.166H409.207V117.166ZM410.766 117.166L407.944 116.147L405.264 123.571L408.086 124.59L410.908 125.608L413.587 118.184L410.766 117.166ZM408.086 124.59V121.59H406.507V124.59V127.59H408.086V124.59ZM412.705 124.59H409.705V127.59H412.705V124.59ZM412.705 117.166V114.166H409.705V117.166H412.705ZM414.182 117.166H417.182V114.166H414.182V117.166ZM414.182 124.59V127.59H417.182V124.59H414.182ZM413.45 115.84V112.84C414.58 112.84 415.521 113.751 415.521 114.917H412.521H409.521C409.521 117.094 411.295 118.84 413.45 118.84V115.84ZM412.521 114.917H415.521C415.521 116.061 414.595 116.987 413.45 116.987V113.987V110.987C411.281 110.987 409.521 112.747 409.521 114.917H412.521ZM413.45 113.987V116.987C412.314 116.987 411.38 116.075 411.38 114.917H414.38H417.38C417.38 112.733 415.599 110.987 413.45 110.987V113.987ZM414.38 114.917H411.38C411.38 113.737 412.328 112.84 413.45 112.84V115.84V118.84C415.584 118.84 417.38 117.108 417.38 114.917H414.38ZM412.705 124.59H415.705V117.166H412.705H409.705V124.59H412.705ZM412.705 117.166V120.166H414.182V117.166V114.166H412.705V117.166ZM414.182 117.166H411.182V124.59H414.182H417.182V117.166H414.182ZM414.182 124.59V121.59H412.705V124.59V127.59H414.182V124.59ZM423.067 119.517H426.067V119.305L426.037 119.095L423.067 119.517ZM423.067 119.552L423.081 122.552L426.067 122.537V119.552H423.067ZM421.645 119.558L418.799 120.507L419.486 122.569L421.659 122.558L421.645 119.558ZM421.638 119.538L418.711 120.195L418.744 120.343L418.792 120.487L421.638 119.538ZM421.631 122.272L418.846 121.158L418.796 121.283L418.757 121.413L421.631 122.272ZM421.645 122.238V119.238H419.614L418.86 121.124L421.645 122.238ZM423.067 122.238L425.996 122.889L426.807 119.238H423.067V122.238ZM423.053 122.3L420.125 121.649L420.113 121.701L420.103 121.754L423.053 122.3ZM419.888 124.733V121.733C419.688 121.733 419.591 121.7 419.566 121.689C419.553 121.684 419.55 121.681 419.553 121.683C419.556 121.686 419.559 121.688 419.558 121.688C419.558 121.687 419.55 121.678 419.537 121.655C419.524 121.632 419.504 121.592 419.483 121.529C419.441 121.401 419.395 121.184 419.395 120.857H416.395H413.395C413.395 122.592 413.878 124.346 415.1 125.702C416.355 127.097 418.089 127.733 419.888 127.733V124.733ZM416.395 120.857H419.395V120.844H416.395H413.395V120.857H416.395ZM416.395 120.844H419.395C419.395 120.533 419.439 120.329 419.479 120.211C419.498 120.153 419.517 120.116 419.528 120.095C419.534 120.085 419.539 120.078 419.542 120.074C419.545 120.07 419.546 120.068 419.546 120.068C419.546 120.068 419.546 120.069 419.544 120.07C419.543 120.072 419.541 120.073 419.54 120.074C419.537 120.076 419.54 120.073 419.554 120.067C419.581 120.056 419.679 120.022 419.881 120.022V117.022V114.022C418.087 114.022 416.359 114.653 415.105 116.034C413.882 117.38 413.395 119.123 413.395 120.844H416.395ZM419.881 117.022V120.022C420.066 120.022 420.167 120.048 420.204 120.06C420.238 120.071 420.223 120.072 420.188 120.043C420.152 120.013 420.122 119.976 420.104 119.942C420.087 119.911 420.092 119.905 420.097 119.94L423.067 119.517L426.037 119.095C425.84 117.706 425.176 116.38 424.006 115.415C422.842 114.454 421.386 114.022 419.881 114.022V117.022ZM423.067 119.517H420.067V119.552H423.067H426.067V119.517H423.067ZM423.067 119.552L423.053 116.552L421.631 116.559L421.645 119.558L421.659 122.558L423.081 122.552L423.067 119.552ZM421.645 119.558L424.491 118.61L424.484 118.589L421.638 119.538L418.792 120.487L418.799 120.507L421.645 119.558ZM421.638 119.538L424.566 118.881C424.344 117.895 423.801 116.946 422.91 116.255C422.018 115.562 420.948 115.26 419.888 115.26V118.26V121.26C419.812 121.26 419.536 121.231 419.231 120.994C418.928 120.759 418.768 120.45 418.711 120.195L421.638 119.538ZM419.888 118.26V115.26C418.384 115.26 416.987 115.903 416.05 117.13C415.185 118.261 414.906 119.623 414.906 120.844H417.906H420.906C420.906 120.465 420.999 120.535 420.816 120.774C420.716 120.905 420.561 121.044 420.357 121.142C420.155 121.239 419.983 121.26 419.888 121.26V118.26ZM417.906 120.844H414.906V120.857H417.906H420.906V120.844H417.906ZM417.906 120.857H414.906C414.906 122.095 415.187 123.463 416.042 124.598C416.97 125.828 418.365 126.496 419.888 126.496V123.496V120.496C419.997 120.496 420.178 120.52 420.383 120.621C420.589 120.722 420.739 120.861 420.834 120.986C421.004 121.212 420.906 121.26 420.906 120.857H417.906ZM419.888 123.496V126.496C420.805 126.496 421.836 126.284 422.757 125.629C423.694 124.963 424.234 124.04 424.506 123.132L421.631 122.272L418.757 121.413C418.789 121.305 418.923 120.993 419.28 120.739C419.622 120.496 419.901 120.496 419.888 120.496V123.496ZM421.631 122.272L424.417 123.387L424.431 123.352L421.645 122.238L418.86 121.124L418.846 121.158L421.631 122.272ZM421.645 122.238V125.238H423.067V122.238V119.238H421.645V122.238ZM423.067 122.238L420.138 121.587L420.125 121.649L423.053 122.3L425.982 122.95L425.996 122.889L423.067 122.238ZM423.053 122.3L420.103 121.754C420.09 121.826 420.076 121.843 420.087 121.823C420.1 121.8 420.128 121.762 420.171 121.727C420.214 121.692 420.237 121.689 420.21 121.698C420.179 121.708 420.079 121.733 419.888 121.733V124.733V127.733C421.354 127.733 422.787 127.331 423.95 126.388C425.115 125.443 425.761 124.156 426.003 122.845L423.053 122.3ZM431.556 121.267V124.267H434.556V121.267H431.556ZM426.292 121.267V118.267H423.234L423.292 121.325L426.292 121.267ZM430.017 122.662L427.334 121.32L427.315 121.359L427.296 121.399L430.017 122.662ZM430.045 122.607L430.03 119.607L428.186 119.616L427.361 121.266L430.045 122.607ZM431.473 122.6L434.402 123.251L435.217 119.583L431.459 119.6L431.473 122.6ZM431.46 122.662L434.369 123.394L434.379 123.354L434.388 123.313L431.46 122.662ZM426.312 120.208L423.328 119.905L422.992 123.208H426.312V120.208ZM430.086 120.208V123.208H433.36L433.074 119.946L430.086 120.208ZM428.288 124.733V121.733C428.086 121.733 427.99 121.699 427.964 121.689C427.951 121.683 427.948 121.681 427.951 121.683C427.952 121.684 427.954 121.685 427.955 121.686C427.957 121.688 427.957 121.688 427.957 121.688C427.957 121.688 427.949 121.68 427.937 121.658C427.925 121.637 427.906 121.598 427.886 121.539C427.845 121.417 427.802 121.21 427.802 120.898H424.802H421.802C421.802 122.615 422.285 124.358 423.502 125.707C424.754 127.094 426.484 127.733 428.288 127.733V124.733ZM424.802 120.898H427.802V120.891H424.802H421.802V120.898H424.802ZM424.802 120.891H427.802C427.802 120.297 427.97 120.084 427.987 120.065C427.996 120.055 427.998 120.054 428.005 120.051C428.013 120.047 428.073 120.022 428.213 120.022V117.022V114.022C426.378 114.022 424.679 114.736 423.474 116.111C422.303 117.447 421.802 119.169 421.802 120.891H424.802ZM428.213 117.022V120.022C428.366 120.022 428.429 120.049 428.431 120.05C428.434 120.052 428.431 120.05 428.424 120.045C428.421 120.043 428.418 120.041 428.416 120.039C428.414 120.037 428.413 120.036 428.413 120.036C428.413 120.036 428.414 120.038 428.418 120.042C428.421 120.047 428.425 120.054 428.431 120.064C428.443 120.085 428.461 120.121 428.479 120.176C428.516 120.287 428.556 120.473 428.556 120.748H431.556H434.556C434.556 119.079 434.076 117.384 432.909 116.063C431.705 114.701 430.018 114.022 428.213 114.022V117.022ZM431.556 120.748H428.556V121.267H431.556H434.556V120.748H431.556ZM431.556 121.267V118.267H426.292V121.267V124.267H431.556V121.267ZM426.292 121.267L423.292 121.325C423.316 122.554 423.675 123.888 424.643 124.948C425.647 126.047 427 126.516 428.322 126.516V123.516V120.516C428.355 120.516 428.466 120.522 428.622 120.586C428.783 120.651 428.943 120.759 429.074 120.902C429.34 121.193 429.295 121.403 429.291 121.21L426.292 121.267ZM428.322 123.516V126.516C430.255 126.516 431.995 125.526 432.738 123.925L430.017 122.662L427.296 121.399C427.501 120.957 427.779 120.741 427.942 120.645C428.142 120.528 428.29 120.516 428.322 120.516V123.516ZM430.017 122.662L432.701 124.004L432.728 123.949L430.045 122.607L427.361 121.266L427.334 121.32L430.017 122.662ZM430.045 122.607L430.059 125.607L431.488 125.6L431.473 122.6L431.459 119.6L430.03 119.607L430.045 122.607ZM431.473 122.6L428.545 121.95L428.531 122.011L431.46 122.662L434.388 123.313L434.402 123.251L431.473 122.6ZM431.46 122.662L428.551 121.93C428.576 121.828 428.61 121.765 428.634 121.731C428.659 121.693 428.68 121.675 428.688 121.669C428.698 121.661 428.685 121.674 428.634 121.691C428.583 121.707 428.473 121.733 428.288 121.733V124.733V127.733C431.481 127.733 433.768 125.783 434.369 123.394L431.46 122.662ZM428.22 118.239V115.239C427 115.239 425.769 115.672 424.819 116.617C423.891 117.541 423.447 118.735 423.328 119.905L426.312 120.208L429.297 120.511C429.308 120.402 429.312 120.612 429.051 120.871C428.77 121.151 428.428 121.239 428.22 121.239V118.239ZM426.312 120.208V123.208H430.086V120.208V117.208H426.312V120.208ZM430.086 120.208L433.074 119.946C432.972 118.782 432.559 117.556 431.607 116.605C430.631 115.629 429.386 115.239 428.22 115.239V118.239V121.239C428.058 121.239 427.688 121.171 427.365 120.848C427.066 120.549 427.083 120.308 427.097 120.47L430.086 120.208ZM433.372 122.648H430.372V122.821L430.392 122.992L433.372 122.648ZM433.372 122.641V119.641H430.372V122.641H433.372ZM434.856 122.641L436.977 120.52L436.098 119.641H434.856V122.641ZM434.862 122.648L437.712 121.71L437.489 121.032L436.984 120.527L434.862 122.648ZM436.811 121.568L436.135 124.491L436.138 124.492L436.811 121.568ZM435.628 121.295L436.304 118.372L436.298 118.371L435.628 121.295ZM439.374 119.08H442.374V118.919L442.357 118.76L439.374 119.08ZM439.374 119.087V122.087H442.374V119.087H439.374ZM437.959 119.087H434.959V122.087H437.959V119.087ZM437.959 119.073H440.959V118.666L440.851 118.274L437.959 119.073ZM436.23 120.126L435.536 123.045L435.551 123.048L435.566 123.052L436.23 120.126ZM437.405 120.392L438.09 117.472L438.079 117.469L438.069 117.467L437.405 120.392ZM436.442 124.733V121.733C435.99 121.733 435.903 121.625 436.003 121.695C436.058 121.734 436.145 121.812 436.223 121.939C436.301 122.067 436.34 122.199 436.352 122.304L433.372 122.648L430.392 122.992C430.566 124.505 431.373 125.783 432.575 126.62C433.726 127.421 435.102 127.733 436.442 127.733V124.733ZM433.372 122.648H436.372V122.641H433.372H430.372V122.648H433.372ZM433.372 122.641V125.641H434.856V122.641V119.641H433.372V122.641ZM434.856 122.641L432.734 124.763L432.741 124.77L434.862 122.648L436.984 120.527L436.977 120.52L434.856 122.641ZM434.862 122.648L432.013 123.587C432.716 125.721 434.695 126.585 436.469 126.585V123.585V120.585C436.442 120.585 436.661 120.579 436.969 120.767C437.308 120.975 437.582 121.315 437.712 121.71L434.862 122.648ZM436.469 123.585V126.585C437.34 126.585 438.349 126.392 439.24 125.805C440.192 125.177 441.021 124.053 441.021 122.559H438.021H435.021C435.021 122.169 435.128 121.781 435.327 121.446C435.518 121.124 435.753 120.917 435.937 120.796C436.281 120.569 436.513 120.585 436.469 120.585V123.585ZM438.021 122.559H441.021V122.546H438.021H435.021V122.559H438.021ZM438.021 122.546H441.021C441.021 121.416 440.532 120.376 439.653 119.647C438.929 119.047 438.093 118.785 437.484 118.645L436.811 121.568L436.138 124.492C436.39 124.55 436.159 124.544 435.824 124.267C435.627 124.103 435.403 123.853 435.239 123.503C435.074 123.153 435.021 122.815 435.021 122.546H438.021ZM436.811 121.568L437.486 118.645L436.304 118.372L435.628 121.295L434.952 124.218L436.135 124.491L436.811 121.568ZM435.628 121.295L436.298 118.371C436.102 118.326 436.013 118.287 435.997 118.28C435.985 118.274 436.072 118.313 436.19 118.431C436.319 118.558 436.432 118.726 436.504 118.916C436.573 119.096 436.577 119.223 436.577 119.251H433.577H430.577C430.577 120.455 430.967 121.7 431.964 122.689C432.863 123.581 433.992 123.998 434.958 124.219L435.628 121.295ZM433.577 119.251H436.577V119.244H433.577H430.577V119.251H433.577ZM433.577 119.244H436.577C436.577 119.398 436.539 119.571 436.456 119.73C436.376 119.884 436.281 119.978 436.221 120.025C436.11 120.11 436.151 120.022 436.462 120.022V117.022V114.022C433.896 114.022 430.577 115.616 430.577 119.244H433.577ZM436.462 117.022V120.022C436.828 120.022 436.865 120.114 436.742 120.025C436.677 119.978 436.59 119.894 436.516 119.768C436.441 119.64 436.403 119.509 436.391 119.4L439.374 119.08L442.357 118.76C442.008 115.504 439.102 114.022 436.462 114.022V117.022ZM439.374 119.08H436.374V119.087H439.374H442.374V119.08H439.374ZM439.374 119.087V116.087H437.959V119.087V122.087H439.374V119.087ZM437.959 119.087H440.959V119.073H437.959H434.959V119.087H437.959ZM437.959 119.073L440.851 118.274C440.245 116.081 438.207 115.164 436.455 115.164V118.164V121.164C436.413 121.164 436.166 121.153 435.849 120.951C435.516 120.738 435.204 120.367 435.067 119.872L437.959 119.073ZM436.455 118.164V115.164C435.589 115.164 434.592 115.374 433.722 115.987C432.792 116.642 432.054 117.754 432.054 119.162H435.054H438.054C438.054 119.975 437.609 120.588 437.177 120.892C436.804 121.155 436.508 121.164 436.455 121.164V118.164ZM435.054 119.162H432.054V119.176H435.054H438.054V119.162H435.054ZM435.054 119.176H432.054C432.054 120.301 432.538 121.346 433.433 122.076C434.151 122.661 434.974 122.911 435.536 123.045L436.23 120.126L436.923 117.207C436.652 117.143 436.887 117.15 437.225 117.426C437.428 117.592 437.662 117.849 437.833 118.211C438.003 118.571 438.054 118.914 438.054 119.176H435.054ZM436.23 120.126L435.566 123.052L436.742 123.318L437.405 120.392L438.069 117.467L436.893 117.2L436.23 120.126ZM437.405 120.392L436.721 123.313C436.941 123.365 437.053 123.409 437.093 123.427C437.13 123.444 437.057 123.417 436.944 123.311C436.819 123.194 436.693 123.024 436.608 122.815C436.527 122.615 436.518 122.462 436.518 122.409H439.518H442.518C442.518 121.149 442.076 119.9 441.051 118.937C440.147 118.089 439.028 117.692 438.09 117.472L437.405 120.392ZM439.518 122.409H436.518V122.423H439.518H442.518V122.409H439.518ZM439.518 122.423H436.518C436.518 122.275 436.557 122.104 436.641 121.946C436.721 121.796 436.813 121.714 436.857 121.682C436.928 121.629 436.823 121.733 436.442 121.733V124.733V127.733C437.824 127.733 439.257 127.369 440.425 126.505C441.646 125.602 442.518 124.17 442.518 122.423H439.518Z" fill="white" mask="url(#path-22-outside-1_68_292)"/>
<defs>
<linearGradient id="paint0_linear_68_292" x1="957" y1="284.218" x2="947.167" y2="177.743" gradientUnits="userSpaceOnUse">
<stop stop-color="#1AA1A1"/>
<stop offset="1" stop-color="#126E6E"/>
</linearGradient>
<linearGradient id="paint1_linear_68_292" x1="284" y1="164" x2="250.495" y2="76.8866" gradientUnits="userSpaceOnUse">
<stop/>
<stop offset="1" stop-opacity="0.6"/>
</linearGradient>
<linearGradient id="paint2_linear_68_292" x1="434" y1="164" x2="400.495" y2="76.8866" gradientUnits="userSpaceOnUse">
<stop/>
<stop offset="1" stop-opacity="0.6"/>
</linearGradient>
<linearGradient id="paint3_linear_68_292" x1="584" y1="162" x2="550.495" y2="74.8866" gradientUnits="userSpaceOnUse">
<stop/>
<stop offset="1" stop-opacity="0.6"/>
</linearGradient>
<linearGradient id="paint4_linear_68_292" x1="507" y1="412" x2="473.495" y2="324.887" gradientUnits="userSpaceOnUse">
<stop/>
<stop offset="1" stop-opacity="0.6"/>
</linearGradient>
<linearGradient id="paint5_linear_68_292" x1="734" y1="161" x2="700.495" y2="73.8866" gradientUnits="userSpaceOnUse">
<stop/>
<stop offset="1" stop-opacity="0.6"/>
</linearGradient>
<clipPath id="clip0_68_292">
<rect x="89" y="139" width="130" height="50" rx="2" fill="white"/>
</clipPath>
<clipPath id="clip1_68_292">
<rect x="239" y="139" width="130" height="50" rx="2" fill="white"/>
</clipPath>
<clipPath id="clip2_68_292">
<rect x="389" y="137" width="130" height="50" rx="2" fill="white"/>
</clipPath>
<clipPath id="clip3_68_292">
<rect x="312" y="387" width="130" height="50" rx="2" fill="white"/>
</clipPath>
<clipPath id="clip4_68_292">
<rect x="539" y="136" width="130" height="50" rx="2" fill="white"/>
</clipPath>
</defs>
</svg>
