<svg width="680" height="446" viewBox="0 0 680 446" fill="none" xmlns="http://www.w3.org/2000/svg">
<rect width="680" height="446" fill="white"/>
<rect x="211" y="29" width="260" height="50" rx="2" fill="url(#paint0_linear_5848_2130)"/>
<path d="M323.231 59V48.4312H327.047C330.182 48.4312 332.021 50.3647 332.021 53.6826V53.6973C332.021 57.0518 330.197 59 327.047 59H323.231ZM324.872 57.5864H326.864C329.076 57.5864 330.351 56.1729 330.351 53.7192V53.7046C330.351 51.2729 329.054 49.8447 326.864 49.8447H324.872V57.5864ZM336.217 59.1318C334.701 59.1318 333.581 58.209 333.581 56.7661V56.7515C333.581 55.3306 334.65 54.5029 336.547 54.3857L338.7 54.2612V53.5581C338.7 52.6865 338.151 52.2031 337.074 52.2031C336.195 52.2031 335.617 52.5254 335.426 53.0894L335.419 53.1187H333.888L333.896 53.0674C334.086 51.7637 335.338 50.8921 337.147 50.8921C339.147 50.8921 340.275 51.8882 340.275 53.5581V59H338.7V57.8721H338.576C338.107 58.6777 337.272 59.1318 336.217 59.1318ZM335.163 56.7002C335.163 57.4326 335.785 57.8647 336.642 57.8647C337.829 57.8647 338.7 57.0884 338.7 56.063V55.3818L336.759 55.5063C335.661 55.5723 335.163 55.9678 335.163 56.6855V56.7002ZM342.516 61.6514V51.0459H344.105V52.2983H344.223C344.684 51.4268 345.556 50.9067 346.669 50.9067C348.676 50.9067 349.965 52.5107 349.965 55.0156V55.0303C349.965 57.5498 348.69 59.1318 346.669 59.1318C345.578 59.1318 344.647 58.5972 344.223 57.7402H344.105V61.6514H342.516ZM346.222 57.7769C347.548 57.7769 348.346 56.7368 348.346 55.0303V55.0156C348.346 53.3018 347.548 52.269 346.222 52.269C344.896 52.269 344.076 53.3164 344.076 55.0156V55.0303C344.076 56.7295 344.896 57.7769 346.222 57.7769ZM351.876 61.6514V51.0459H353.466V52.2983H353.583C354.044 51.4268 354.916 50.9067 356.029 50.9067C358.036 50.9067 359.325 52.5107 359.325 55.0156V55.0303C359.325 57.5498 358.051 59.1318 356.029 59.1318C354.938 59.1318 354.008 58.5972 353.583 57.7402H353.466V61.6514H351.876ZM355.583 57.7769C356.908 57.7769 357.707 56.7368 357.707 55.0303V55.0156C357.707 53.3018 356.908 52.269 355.583 52.269C354.257 52.269 353.437 53.3164 353.437 55.0156V55.0303C353.437 56.7295 354.257 57.7769 355.583 57.7769Z" fill="white"/>
<rect x="211" y="81" width="260" height="50" rx="2" fill="url(#paint1_linear_5848_2130)"/>
<path d="M300.292 111.256C297.355 111.256 295.524 109.132 295.524 105.727V105.712C295.524 102.299 297.348 100.175 300.285 100.175C302.614 100.175 304.401 101.647 304.679 103.749L304.672 103.786H303.046V103.764C302.738 102.467 301.676 101.625 300.285 101.625C298.388 101.625 297.201 103.2 297.201 105.712V105.727C297.201 108.231 298.388 109.806 300.292 109.806C301.691 109.806 302.738 109.059 303.039 107.865L303.053 107.836H304.679V107.88C304.372 109.909 302.65 111.256 300.292 111.256ZM306.73 111V99.9258H308.319V111H306.73ZM311.513 101.625C310.963 101.625 310.517 101.178 310.517 100.636C310.517 100.087 310.963 99.6401 311.513 99.6401C312.055 99.6401 312.509 100.087 312.509 100.636C312.509 101.178 312.055 101.625 311.513 101.625ZM310.714 111V103.046H312.296V111H310.714ZM317.951 111.154C315.622 111.154 314.215 109.564 314.215 107.045V107.038C314.215 104.555 315.651 102.892 317.87 102.892C320.089 102.892 321.452 104.496 321.452 106.884V107.44H315.812C315.841 108.964 316.676 109.85 317.987 109.85C319.005 109.85 319.613 109.345 319.804 108.935L319.833 108.876L321.364 108.869L321.349 108.935C321.085 109.982 319.987 111.154 317.951 111.154ZM317.877 104.196C316.793 104.196 315.973 104.936 315.834 106.305H319.877C319.752 104.884 318.954 104.196 317.877 104.196ZM323.341 111V103.046H324.931V104.254H325.048C325.436 103.405 326.198 102.892 327.355 102.892C329.135 102.892 330.116 103.954 330.116 105.851V111H328.534V106.225C328.534 104.906 327.985 104.254 326.82 104.254C325.656 104.254 324.931 105.053 324.931 106.334V111H323.341ZM335.338 111.051C333.588 111.051 332.87 110.436 332.87 108.905V104.298H331.625V103.046H332.87V101.039H334.489V103.046H336.195V104.298H334.489V108.524C334.489 109.381 334.811 109.733 335.595 109.733C335.836 109.733 335.976 109.726 336.195 109.704V110.971C335.939 111.015 335.646 111.051 335.338 111.051ZM342.223 111V99.9258H343.812V111H342.223ZM347.006 101.625C346.457 101.625 346.01 101.178 346.01 100.636C346.01 100.087 346.457 99.6401 347.006 99.6401C347.548 99.6401 348.002 100.087 348.002 100.636C348.002 101.178 347.548 101.625 347.006 101.625ZM346.208 111V103.046H347.79V111H346.208ZM354.33 111.132C353.217 111.132 352.345 110.619 351.884 109.748H351.767V111H350.177V99.9258H351.767V104.306H351.884C352.309 103.449 353.239 102.907 354.33 102.907C356.352 102.907 357.626 104.496 357.626 107.016V107.03C357.626 109.528 356.337 111.132 354.33 111.132ZM353.883 109.777C355.209 109.777 356.007 108.737 356.007 107.03V107.016C356.007 105.309 355.209 104.269 353.883 104.269C352.558 104.269 351.737 105.316 351.737 107.016V107.03C351.737 108.729 352.558 109.777 353.883 109.777ZM359.523 111V103.046H361.112V104.247H361.229C361.515 103.405 362.255 102.907 363.317 102.907C363.573 102.907 363.852 102.943 364.013 102.98V104.445C363.727 104.386 363.456 104.35 363.156 104.35C361.94 104.35 361.112 105.097 361.112 106.247V111H359.523ZM367.667 111.132C366.151 111.132 365.031 110.209 365.031 108.766V108.751C365.031 107.331 366.1 106.503 367.997 106.386L370.15 106.261V105.558C370.15 104.687 369.601 104.203 368.524 104.203C367.646 104.203 367.067 104.525 366.876 105.089L366.869 105.119H365.338L365.346 105.067C365.536 103.764 366.789 102.892 368.598 102.892C370.597 102.892 371.725 103.888 371.725 105.558V111H370.15V109.872H370.026C369.557 110.678 368.722 111.132 367.667 111.132ZM366.613 108.7C366.613 109.433 367.235 109.865 368.092 109.865C369.279 109.865 370.15 109.088 370.15 108.063V107.382L368.209 107.506C367.111 107.572 366.613 107.968 366.613 108.686V108.7ZM373.966 111V103.046H375.556V104.247H375.673C375.958 103.405 376.698 102.907 377.76 102.907C378.017 102.907 378.295 102.943 378.456 102.98V104.445C378.17 104.386 377.899 104.35 377.599 104.35C376.383 104.35 375.556 105.097 375.556 106.247V111H373.966ZM380.851 113.798C380.653 113.798 380.419 113.783 380.214 113.761V112.509C380.368 112.531 380.565 112.538 380.749 112.538C381.488 112.538 381.935 112.223 382.169 111.417L382.287 111.007L379.401 103.046H381.115L383.107 109.403H383.246L385.231 103.046H386.901L383.942 111.308C383.268 113.205 382.462 113.798 380.851 113.798Z" fill="white"/>
<path d="M340 134L334.226 144H345.774L340 134ZM340 209.04L345.774 199.04H334.226L340 209.04ZM340 143H339V171.52H340H341V143H340ZM340 171.52H339V200.04H340H341V171.52H340Z" fill="#00A4A2"/>
<mask id="path-6-outside-1_5848_2130" maskUnits="userSpaceOnUse" x="301" y="164" width="78" height="16" fill="black">
<rect fill="white" x="301" y="164" width="78" height="16"/>
<path d="M306.716 177.239C304.891 177.239 303.824 176.125 303.742 174.553L303.735 174.471H305.246L305.253 174.532C305.314 175.284 305.786 175.872 306.702 175.872C307.714 175.872 308.261 175.264 308.261 174.143V167.136H309.792V174.156C309.792 176.098 308.65 177.239 306.716 177.239ZM315.596 177.239C313.367 177.239 311.938 176.111 311.802 174.45L311.795 174.361H313.299L313.306 174.437C313.388 175.332 314.338 175.906 315.657 175.906C316.915 175.906 317.811 175.277 317.811 174.361V174.354C317.811 173.596 317.277 173.104 315.972 172.823L314.892 172.591C312.889 172.167 312.027 171.237 312.027 169.781V169.774C312.034 168.072 313.511 166.896 315.603 166.896C317.694 166.896 319.062 168.079 319.171 169.61L319.178 169.706H317.694L317.681 169.617C317.551 168.811 316.778 168.223 315.582 168.229C314.427 168.229 313.572 168.77 313.572 169.699V169.706C313.572 170.438 314.092 170.916 315.37 171.189L316.443 171.429C318.515 171.873 319.362 172.707 319.362 174.17V174.177C319.362 176.063 317.893 177.239 315.596 177.239ZM325.583 177.239C322.712 177.239 320.976 175.236 320.976 172.071V172.058C320.976 168.886 322.753 166.896 325.583 166.896C328.42 166.896 330.184 168.893 330.184 172.058V172.071C330.184 175.229 328.434 177.239 325.583 177.239ZM325.583 175.886C327.456 175.886 328.618 174.382 328.618 172.071V172.058C328.618 169.727 327.449 168.25 325.583 168.25C323.717 168.25 322.541 169.727 322.541 172.058V172.071C322.541 174.382 323.683 175.886 325.583 175.886ZM332.262 177V167.136H333.643L338.715 174.313H338.817V167.136H340.308V177H338.927L333.861 169.836H333.752V177H332.262ZM342.598 173.705V172.345H347.171V173.705H342.598ZM349.461 177V167.136H353.351C355.374 167.136 356.632 168.312 356.632 170.144V170.157C356.632 171.483 355.921 172.563 354.718 172.967L356.933 177H355.162L353.152 173.206H350.992V177H349.461ZM350.992 171.962H353.2C354.376 171.962 355.06 171.319 355.06 170.198V170.185C355.06 169.091 354.335 168.421 353.152 168.421H350.992V171.962ZM358.812 177V167.136H362.654C364.589 167.136 365.929 168.435 365.929 170.369V170.383C365.929 172.311 364.589 173.63 362.654 173.63H360.344V177H358.812ZM362.271 168.428H360.344V172.345H362.271C363.598 172.345 364.37 171.627 364.37 170.39V170.376C364.37 169.146 363.598 168.428 362.271 168.428ZM371.951 177.239C369.21 177.239 367.501 175.257 367.501 172.078V172.064C367.501 168.879 369.203 166.896 371.944 166.896C374.118 166.896 375.786 168.271 376.046 170.232L376.039 170.267H374.521V170.246C374.234 169.036 373.243 168.25 371.944 168.25C370.174 168.25 369.066 169.72 369.066 172.064V172.078C369.066 174.416 370.174 175.886 371.951 175.886C373.257 175.886 374.234 175.188 374.515 174.074L374.528 174.047H376.046V174.088C375.759 175.981 374.152 177.239 371.951 177.239Z"/>
</mask>
<path d="M306.716 177.239C304.891 177.239 303.824 176.125 303.742 174.553L303.735 174.471H305.246L305.253 174.532C305.314 175.284 305.786 175.872 306.702 175.872C307.714 175.872 308.261 175.264 308.261 174.143V167.136H309.792V174.156C309.792 176.098 308.65 177.239 306.716 177.239ZM315.596 177.239C313.367 177.239 311.938 176.111 311.802 174.45L311.795 174.361H313.299L313.306 174.437C313.388 175.332 314.338 175.906 315.657 175.906C316.915 175.906 317.811 175.277 317.811 174.361V174.354C317.811 173.596 317.277 173.104 315.972 172.823L314.892 172.591C312.889 172.167 312.027 171.237 312.027 169.781V169.774C312.034 168.072 313.511 166.896 315.603 166.896C317.694 166.896 319.062 168.079 319.171 169.61L319.178 169.706H317.694L317.681 169.617C317.551 168.811 316.778 168.223 315.582 168.229C314.427 168.229 313.572 168.77 313.572 169.699V169.706C313.572 170.438 314.092 170.916 315.37 171.189L316.443 171.429C318.515 171.873 319.362 172.707 319.362 174.17V174.177C319.362 176.063 317.893 177.239 315.596 177.239ZM325.583 177.239C322.712 177.239 320.976 175.236 320.976 172.071V172.058C320.976 168.886 322.753 166.896 325.583 166.896C328.42 166.896 330.184 168.893 330.184 172.058V172.071C330.184 175.229 328.434 177.239 325.583 177.239ZM325.583 175.886C327.456 175.886 328.618 174.382 328.618 172.071V172.058C328.618 169.727 327.449 168.25 325.583 168.25C323.717 168.25 322.541 169.727 322.541 172.058V172.071C322.541 174.382 323.683 175.886 325.583 175.886ZM332.262 177V167.136H333.643L338.715 174.313H338.817V167.136H340.308V177H338.927L333.861 169.836H333.752V177H332.262ZM342.598 173.705V172.345H347.171V173.705H342.598ZM349.461 177V167.136H353.351C355.374 167.136 356.632 168.312 356.632 170.144V170.157C356.632 171.483 355.921 172.563 354.718 172.967L356.933 177H355.162L353.152 173.206H350.992V177H349.461ZM350.992 171.962H353.2C354.376 171.962 355.06 171.319 355.06 170.198V170.185C355.06 169.091 354.335 168.421 353.152 168.421H350.992V171.962ZM358.812 177V167.136H362.654C364.589 167.136 365.929 168.435 365.929 170.369V170.383C365.929 172.311 364.589 173.63 362.654 173.63H360.344V177H358.812ZM362.271 168.428H360.344V172.345H362.271C363.598 172.345 364.37 171.627 364.37 170.39V170.376C364.37 169.146 363.598 168.428 362.271 168.428ZM371.951 177.239C369.21 177.239 367.501 175.257 367.501 172.078V172.064C367.501 168.879 369.203 166.896 371.944 166.896C374.118 166.896 375.786 168.271 376.046 170.232L376.039 170.267H374.521V170.246C374.234 169.036 373.243 168.25 371.944 168.25C370.174 168.25 369.066 169.72 369.066 172.064V172.078C369.066 174.416 370.174 175.886 371.951 175.886C373.257 175.886 374.234 175.188 374.515 174.074L374.528 174.047H376.046V174.088C375.759 175.981 374.152 177.239 371.951 177.239Z" fill="#333333"/>
<path d="M303.742 174.553L305.739 174.449L305.738 174.418L305.735 174.387L303.742 174.553ZM303.735 174.471V172.471H301.562L301.742 174.637L303.735 174.471ZM305.246 174.471L307.234 174.25L307.036 172.471H305.246V174.471ZM305.253 174.532L307.246 174.369L307.244 174.34L307.241 174.311L305.253 174.532ZM308.261 167.136V165.136H306.261V167.136H308.261ZM309.792 167.136H311.792V165.136H309.792V167.136ZM306.716 177.239V175.239C306.219 175.239 306.017 175.096 305.946 175.029C305.872 174.96 305.758 174.802 305.739 174.449L303.742 174.553L301.745 174.657C301.808 175.875 302.268 177.061 303.205 177.942C304.144 178.826 305.388 179.239 306.716 179.239V177.239ZM303.742 174.553L305.735 174.387L305.728 174.305L303.735 174.471L301.742 174.637L301.749 174.719L303.742 174.553ZM303.735 174.471V176.471H305.246V174.471V172.471H303.735V174.471ZM305.246 174.471L303.258 174.692L303.265 174.753L305.253 174.532L307.241 174.311L307.234 174.25L305.246 174.471ZM305.253 174.532L303.26 174.695C303.32 175.433 303.596 176.249 304.24 176.896C304.908 177.566 305.792 177.872 306.702 177.872V175.872V173.872C306.688 173.872 306.734 173.87 306.815 173.902C306.9 173.934 306.993 173.991 307.074 174.072C307.238 174.237 307.247 174.384 307.246 174.369L305.253 174.532ZM306.702 175.872V177.872C307.617 177.872 308.61 177.584 309.347 176.766C310.053 175.983 310.261 175 310.261 174.143H308.261H306.261C306.261 174.406 306.195 174.288 306.375 174.089C306.464 173.99 306.568 173.926 306.654 173.893C306.73 173.864 306.757 173.872 306.702 173.872V175.872ZM308.261 174.143H310.261V167.136H308.261H306.261V174.143H308.261ZM308.261 167.136V169.136H309.792V167.136V165.136H308.261V167.136ZM309.792 167.136H307.792V174.156H309.792H311.792V167.136H309.792ZM309.792 174.156H307.792C307.792 174.736 307.629 174.948 307.564 175.013C307.5 175.077 307.291 175.239 306.716 175.239V177.239V179.239C308.076 179.239 309.405 178.83 310.395 177.839C311.384 176.848 311.792 175.518 311.792 174.156H309.792ZM311.802 174.45L309.808 174.604L309.808 174.614L311.802 174.45ZM311.795 174.361V172.361H309.635L309.801 174.515L311.795 174.361ZM313.299 174.361L315.291 174.18L315.125 172.361H313.299V174.361ZM313.306 174.437L311.314 174.618L311.314 174.619L313.306 174.437ZM315.972 172.823L315.551 174.778L315.552 174.779L315.972 172.823ZM314.892 172.591L315.312 170.636L315.306 170.634L314.892 172.591ZM312.027 169.774L310.027 169.766V169.774H312.027ZM319.178 169.706V171.706H321.326L321.173 169.564L319.178 169.706ZM317.694 169.706L315.718 170.01L315.978 171.706H317.694V169.706ZM317.681 169.617L319.657 169.313L319.655 169.299L317.681 169.617ZM315.582 168.229V170.23L315.593 170.229L315.582 168.229ZM315.37 171.189L315.805 169.237L315.797 169.235L315.788 169.234L315.37 171.189ZM316.443 171.429L316.008 173.381L316.016 173.383L316.024 173.384L316.443 171.429ZM315.596 177.239V175.239C314.805 175.239 314.343 175.039 314.114 174.868C313.916 174.719 313.816 174.543 313.795 174.286L311.802 174.45L309.808 174.614C309.924 176.018 310.607 177.237 311.714 178.068C312.791 178.875 314.158 179.239 315.596 179.239V177.239ZM311.802 174.45L313.796 174.297L313.789 174.208L311.795 174.361L309.801 174.515L309.808 174.604L311.802 174.45ZM311.795 174.361V176.361H313.299V174.361V172.361H311.795V174.361ZM313.299 174.361L311.307 174.542L311.314 174.618L313.306 174.437L315.297 174.255L315.291 174.18L313.299 174.361ZM313.306 174.437L311.314 174.619C311.423 175.804 312.122 176.686 312.965 177.208C313.773 177.708 314.732 177.906 315.657 177.906V175.906V173.906C315.47 173.906 315.325 173.886 315.222 173.86C315.118 173.835 315.073 173.808 315.07 173.807C315.069 173.806 315.121 173.838 315.18 173.926C315.244 174.019 315.287 174.136 315.297 174.254L313.306 174.437ZM315.657 175.906V177.906C316.596 177.906 317.57 177.674 318.367 177.106C319.203 176.51 319.811 175.549 319.811 174.361H317.811H315.811C315.811 174.254 315.839 174.132 315.9 174.023C315.957 173.919 316.021 173.866 316.044 173.849C316.066 173.833 316.053 173.849 315.983 173.868C315.915 173.887 315.807 173.906 315.657 173.906V175.906ZM317.811 174.361H319.811V174.354H317.811H315.811V174.361H317.811ZM317.811 174.354H319.811C319.811 173.423 319.446 172.542 318.679 171.888C318.013 171.32 317.175 171.036 316.391 170.868L315.972 172.823L315.552 174.779C315.793 174.831 315.948 174.882 316.04 174.92C316.132 174.958 316.129 174.971 316.083 174.931C316.027 174.884 315.944 174.791 315.881 174.652C315.82 174.515 315.811 174.403 315.811 174.354H317.811ZM315.972 172.823L316.392 170.868L315.312 170.636L314.892 172.591L314.471 174.546L315.551 174.778L315.972 172.823ZM314.892 172.591L315.306 170.634C314.503 170.464 314.21 170.247 314.125 170.161C314.091 170.127 314.077 170.102 314.066 170.072C314.052 170.035 314.027 169.948 314.027 169.781H312.027H310.027C310.027 170.94 310.388 172.078 311.292 172.985C312.138 173.834 313.277 174.293 314.478 174.547L314.892 172.591ZM312.027 169.781H314.027V169.774H312.027H310.027V169.781H312.027ZM312.027 169.774L314.027 169.782C314.028 169.559 314.105 169.401 314.285 169.257C314.494 169.089 314.918 168.896 315.603 168.896V166.896V164.896C314.196 164.896 312.835 165.292 311.781 166.137C310.698 167.007 310.033 168.288 310.027 169.766L312.027 169.774ZM315.603 166.896V168.896C316.276 168.896 316.683 169.085 316.891 169.249C317.086 169.403 317.163 169.572 317.176 169.753L319.171 169.61L321.166 169.468C320.961 166.607 318.434 164.896 315.603 164.896V166.896ZM319.171 169.61L317.176 169.753L317.183 169.849L319.178 169.706L321.173 169.564L321.166 169.468L319.171 169.61ZM319.178 169.706V167.706H317.694V169.706V171.706H319.178V169.706ZM317.694 169.706L319.671 169.402L319.657 169.313L317.681 169.617L315.704 169.921L315.718 170.01L317.694 169.706ZM317.681 169.617L319.655 169.299C319.316 167.193 317.382 166.219 315.571 166.23L315.582 168.229L315.593 170.229C315.871 170.228 315.941 170.296 315.898 170.266C315.875 170.25 315.831 170.213 315.789 170.148C315.746 170.082 315.718 170.007 315.706 169.935L317.681 169.617ZM315.582 168.229V166.229C314.723 166.229 313.782 166.426 312.995 166.979C312.145 167.575 311.572 168.533 311.572 169.699H313.572H315.572C315.572 169.783 315.55 169.904 315.483 170.029C315.417 170.15 315.338 170.221 315.293 170.253C315.251 170.282 315.245 170.275 315.299 170.26C315.353 170.246 315.446 170.229 315.582 170.229V168.229ZM313.572 169.699H311.572V169.706H313.572H315.572V169.699H313.572ZM313.572 169.706H311.572C311.572 170.631 311.939 171.502 312.7 172.146C313.357 172.703 314.183 172.981 314.952 173.145L315.37 171.189L315.788 169.234C315.553 169.183 315.404 169.134 315.316 169.098C315.228 169.061 315.234 169.051 315.284 169.093C315.343 169.143 315.43 169.239 315.496 169.384C315.561 169.527 315.572 169.647 315.572 169.706H313.572ZM315.37 171.189L314.935 173.142L316.008 173.381L316.443 171.429L316.879 169.477L315.805 169.237L315.37 171.189ZM316.443 171.429L316.024 173.384C316.913 173.575 317.221 173.791 317.303 173.868C317.327 173.891 317.328 173.898 317.331 173.905C317.337 173.922 317.362 173.996 317.362 174.17H319.362H321.362C321.362 173.007 321.003 171.865 320.056 170.967C319.196 170.15 318.045 169.727 316.863 169.473L316.443 171.429ZM319.362 174.17H317.362V174.177H319.362H321.362V174.17H319.362ZM319.362 174.177H317.362C317.362 174.552 317.24 174.733 317.082 174.861C316.878 175.026 316.424 175.239 315.596 175.239V177.239V179.239C317.064 179.239 318.494 178.864 319.599 177.97C320.75 177.039 321.362 175.688 321.362 174.177H319.362ZM325.583 177.239V175.239C324.64 175.239 324.064 174.927 323.701 174.517C323.311 174.077 322.976 173.302 322.976 172.071H320.976H318.976C318.976 174.006 319.508 175.815 320.705 177.167C321.927 178.55 323.655 179.239 325.583 179.239V177.239ZM320.976 172.071H322.976V172.058H320.976H318.976V172.071H320.976ZM320.976 172.058H322.976C322.976 170.834 323.316 170.061 323.71 169.62C324.081 169.204 324.663 168.896 325.583 168.896V166.896V164.896C323.673 164.896 321.951 165.584 320.726 166.956C319.524 168.302 318.976 170.109 318.976 172.058H320.976ZM325.583 166.896V168.896C326.505 168.896 327.084 169.204 327.453 169.619C327.845 170.061 328.184 170.835 328.184 172.058H330.184H332.184C332.184 170.115 331.64 168.309 330.442 166.961C329.219 165.587 327.498 164.896 325.583 164.896V166.896ZM330.184 172.058H328.184V172.071H330.184H332.184V172.058H330.184ZM330.184 172.071H328.184C328.184 173.294 327.847 174.071 327.454 174.514C327.087 174.93 326.51 175.239 325.583 175.239V177.239V179.239C327.506 179.239 329.23 178.544 330.45 177.165C331.645 175.814 332.184 174.007 332.184 172.071H330.184ZM325.583 175.886V177.886C327.11 177.886 328.456 177.246 329.373 176.084C330.251 174.972 330.618 173.539 330.618 172.071H328.618H326.618C326.618 172.914 326.405 173.389 326.233 173.606C326.101 173.773 325.929 173.886 325.583 173.886V175.886ZM328.618 172.071H330.618V172.058H328.618H326.618V172.071H328.618ZM328.618 172.058H330.618C330.618 170.581 330.249 169.145 329.366 168.034C328.442 166.874 327.096 166.25 325.583 166.25V168.25V170.25C325.937 170.25 326.108 170.364 326.235 170.525C326.403 170.735 326.618 171.203 326.618 172.058H328.618ZM325.583 168.25V166.25C324.071 166.25 322.724 166.873 321.799 168.032C320.913 169.142 320.541 170.578 320.541 172.058H322.541H324.541C324.541 171.206 324.757 170.738 324.925 170.527C325.055 170.365 325.229 170.25 325.583 170.25V168.25ZM322.541 172.058H320.541V172.071H322.541H324.541V172.058H322.541ZM322.541 172.071H320.541C320.541 173.531 320.9 174.965 321.777 176.082C322.698 177.252 324.05 177.886 325.583 177.886V175.886V173.886C325.216 173.886 325.047 173.768 324.921 173.608C324.753 173.395 324.541 172.922 324.541 172.071H322.541ZM332.262 177H330.262V179H332.262V177ZM332.262 167.136V165.136H330.262V167.136H332.262ZM333.643 167.136L335.276 165.982L334.678 165.136H333.643V167.136ZM338.715 174.313L337.082 175.468L337.679 176.313H338.715V174.313ZM338.817 174.313V176.313H340.817V174.313H338.817ZM338.817 167.136V165.136H336.817V167.136H338.817ZM340.308 167.136H342.308V165.136H340.308V167.136ZM340.308 177V179H342.308V177H340.308ZM338.927 177L337.294 178.155L337.891 179H338.927V177ZM333.861 169.836L335.494 168.681L334.897 167.836H333.861V169.836ZM333.752 169.836V167.836H331.752V169.836H333.752ZM333.752 177V179H335.752V177H333.752ZM332.262 177H334.262V167.136H332.262H330.262V177H332.262ZM332.262 167.136V169.136H333.643V167.136V165.136H332.262V167.136ZM333.643 167.136L332.009 168.29L337.082 175.468L338.715 174.313L340.348 173.159L335.276 165.982L333.643 167.136ZM338.715 174.313V176.313H338.817V174.313V172.313H338.715V174.313ZM338.817 174.313H340.817V167.136H338.817H336.817V174.313H338.817ZM338.817 167.136V169.136H340.308V167.136V165.136H338.817V167.136ZM340.308 167.136H338.308V177H340.308H342.308V167.136H340.308ZM340.308 177V175H338.927V177V179H340.308V177ZM338.927 177L340.56 175.845L335.494 168.681L333.861 169.836L332.228 170.991L337.294 178.155L338.927 177ZM333.861 169.836V167.836H333.752V169.836V171.836H333.861V169.836ZM333.752 169.836H331.752V177H333.752H335.752V169.836H333.752ZM333.752 177V175H332.262V177V179H333.752V177ZM342.598 173.705H340.598V175.705H342.598V173.705ZM342.598 172.345V170.345H340.598V172.345H342.598ZM347.171 172.345H349.171V170.345H347.171V172.345ZM347.171 173.705V175.705H349.171V173.705H347.171ZM342.598 173.705H344.598V172.345H342.598H340.598V173.705H342.598ZM342.598 172.345V174.345H347.171V172.345V170.345H342.598V172.345ZM347.171 172.345H345.171V173.705H347.171H349.171V172.345H347.171ZM347.171 173.705V171.705H342.598V173.705V175.705H347.171V173.705ZM349.461 177H347.461V179H349.461V177ZM349.461 167.136V165.136H347.461V167.136H349.461ZM354.718 172.967L354.082 171.071L351.813 171.831L352.965 173.929L354.718 172.967ZM356.933 177V179H360.313L358.686 176.037L356.933 177ZM355.162 177L353.395 177.936L353.958 179H355.162V177ZM353.152 173.206L354.92 172.27L354.356 171.206H353.152V173.206ZM350.992 173.206V171.206H348.992V173.206H350.992ZM350.992 177V179H352.992V177H350.992ZM350.992 171.962H348.992V173.962H350.992V171.962ZM350.992 168.421V166.421H348.992V168.421H350.992ZM349.461 177H351.461V167.136H349.461H347.461V177H349.461ZM349.461 167.136V169.136H353.351V167.136V165.136H349.461V167.136ZM353.351 167.136V169.136C353.981 169.136 354.277 169.315 354.395 169.423C354.495 169.516 354.632 169.705 354.632 170.144H356.632H358.632C358.632 168.75 358.14 167.435 357.105 166.482C356.089 165.545 354.744 165.136 353.351 165.136V167.136ZM356.632 170.144H354.632V170.157H356.632H358.632V170.144H356.632ZM356.632 170.157H354.632C354.632 170.724 354.379 170.971 354.082 171.071L354.718 172.967L355.353 174.863C357.463 174.156 358.632 172.242 358.632 170.157H356.632ZM354.718 172.967L352.965 173.929L355.18 177.963L356.933 177L358.686 176.037L356.471 172.004L354.718 172.967ZM356.933 177V175H355.162V177V179H356.933V177ZM355.162 177L356.929 176.064L354.92 172.27L353.152 173.206L351.385 174.142L353.395 177.936L355.162 177ZM353.152 173.206V171.206H350.992V173.206V175.206H353.152V173.206ZM350.992 173.206H348.992V177H350.992H352.992V173.206H350.992ZM350.992 177V175H349.461V177V179H350.992V177ZM350.992 171.962V173.962H353.2V171.962V169.962H350.992V171.962ZM353.2 171.962V173.962C354.14 173.962 355.155 173.701 355.945 172.953C356.752 172.19 357.06 171.172 357.06 170.198H355.06H353.06C353.06 170.277 353.047 170.282 353.064 170.239C353.082 170.19 353.124 170.116 353.196 170.048C353.267 169.981 353.328 169.955 353.345 169.95C353.356 169.946 353.315 169.962 353.2 169.962V171.962ZM355.06 170.198H357.06V170.185H355.06H353.06V170.198H355.06ZM355.06 170.185H357.06C357.06 169.179 356.713 168.169 355.907 167.424C355.121 166.697 354.113 166.421 353.152 166.421V168.421V170.421C353.261 170.421 353.306 170.436 353.304 170.436C353.298 170.434 353.25 170.415 353.192 170.361C353.131 170.305 353.091 170.241 353.07 170.189C353.051 170.141 353.06 170.132 353.06 170.185H355.06ZM353.152 168.421V166.421H350.992V168.421V170.421H353.152V168.421ZM350.992 168.421H348.992V171.962H350.992H352.992V168.421H350.992ZM358.812 177H356.812V179H358.812V177ZM358.812 167.136V165.136H356.812V167.136H358.812ZM360.344 173.63V171.63H358.344V173.63H360.344ZM360.344 177V179H362.344V177H360.344ZM360.344 168.428V166.428H358.344V168.428H360.344ZM360.344 172.345H358.344V174.345H360.344V172.345ZM358.812 177H360.812V167.136H358.812H356.812V177H358.812ZM358.812 167.136V169.136H362.654V167.136V165.136H358.812V167.136ZM362.654 167.136V169.136C363.166 169.136 363.459 169.3 363.615 169.454C363.768 169.604 363.929 169.878 363.929 170.369H365.929H367.929C367.929 168.926 367.419 167.583 366.418 166.6C365.421 165.621 364.077 165.136 362.654 165.136V167.136ZM365.929 170.369H363.929V170.383H365.929H367.929V170.369H365.929ZM365.929 170.383H363.929C363.929 170.87 363.769 171.151 363.61 171.308C363.45 171.466 363.157 171.63 362.654 171.63V173.63V175.63C364.086 175.63 365.431 175.134 366.424 174.151C367.419 173.166 367.929 171.824 367.929 170.383H365.929ZM362.654 173.63V171.63H360.344V173.63V175.63H362.654V173.63ZM360.344 173.63H358.344V177H360.344H362.344V173.63H360.344ZM360.344 177V175H358.812V177V179H360.344V177ZM362.271 168.428V166.428H360.344V168.428V170.428H362.271V168.428ZM360.344 168.428H358.344V172.345H360.344H362.344V168.428H360.344ZM360.344 172.345V174.345H362.271V172.345V170.345H360.344V172.345ZM362.271 172.345V174.345C363.282 174.345 364.35 174.068 365.181 173.295C366.032 172.503 366.37 171.435 366.37 170.39H364.37H362.37C362.37 170.492 362.354 170.52 362.363 170.497C362.367 170.485 362.377 170.465 362.394 170.44C362.411 170.414 362.432 170.389 362.455 170.367C362.479 170.345 362.5 170.331 362.515 170.322C362.529 170.314 362.534 170.313 362.524 170.317C362.503 170.324 362.426 170.345 362.271 170.345V172.345ZM364.37 170.39H366.37V170.376H364.37H362.37V170.39H364.37ZM364.37 170.376H366.37C366.37 169.331 366.03 168.265 365.179 167.475C364.349 166.704 363.282 166.428 362.271 166.428V168.428V170.428C362.426 170.428 362.504 170.449 362.525 170.456C362.535 170.459 362.53 170.459 362.516 170.451C362.502 170.442 362.481 170.428 362.457 170.406C362.434 170.384 362.412 170.359 362.395 170.334C362.378 170.308 362.369 170.287 362.364 170.275C362.354 170.251 362.37 170.276 362.37 170.376H364.37ZM376.046 170.232L378.007 170.625L378.072 170.299L378.029 169.97L376.046 170.232ZM376.039 170.267V172.267H377.679L378 170.659L376.039 170.267ZM374.521 170.267H372.521V172.267H374.521V170.267ZM374.521 170.246H376.521V170.012L376.467 169.784L374.521 170.246ZM374.515 174.074L372.726 173.18L372.628 173.375L372.575 173.586L374.515 174.074ZM374.528 174.047V172.047H373.292L372.739 173.152L374.528 174.047ZM376.046 174.047H378.046V172.047H376.046V174.047ZM376.046 174.088L378.023 174.388L378.046 174.239V174.088H376.046ZM371.951 177.239V175.239C371.096 175.239 370.561 174.949 370.213 174.545C369.835 174.106 369.501 173.325 369.501 172.078H367.501H365.501C365.501 174.01 366.021 175.809 367.183 177.157C368.375 178.538 370.065 179.239 371.951 179.239V177.239ZM367.501 172.078H369.501V172.064H367.501H365.501V172.078H367.501ZM367.501 172.064H369.501C369.501 170.812 369.835 170.028 370.211 169.59C370.558 169.186 371.089 168.896 371.944 168.896V166.896V164.896C370.058 164.896 368.368 165.598 367.178 166.982C366.018 168.332 365.501 170.132 365.501 172.064H367.501ZM371.944 166.896V168.896C373.241 168.896 373.951 169.648 374.063 170.495L376.046 170.232L378.029 169.97C377.621 166.893 374.995 164.896 371.944 164.896V166.896ZM376.046 170.232L374.085 169.84L374.078 169.874L376.039 170.267L378 170.659L378.007 170.625L376.046 170.232ZM376.039 170.267V168.267H374.521V170.267V172.267H376.039V170.267ZM374.521 170.267H376.521V170.246H374.521H372.521V170.267H374.521ZM374.521 170.246L376.467 169.784C375.961 167.651 374.147 166.25 371.944 166.25V168.25V170.25C372.182 170.25 372.314 170.318 372.383 170.372C372.451 170.425 372.531 170.521 372.576 170.708L374.521 170.246ZM371.944 168.25V166.25C370.441 166.25 369.126 166.905 368.245 168.074C367.408 169.183 367.066 170.605 367.066 172.064H369.066H371.066C371.066 171.179 371.278 170.694 371.438 170.482C371.553 170.33 371.677 170.25 371.944 170.25V168.25ZM369.066 172.064H367.066V172.078H369.066H371.066V172.064H369.066ZM369.066 172.078H367.066C367.066 173.535 367.409 174.957 368.247 176.065C369.131 177.234 370.447 177.886 371.951 177.886V175.886V173.886C371.678 173.886 371.552 173.803 371.437 173.652C371.278 173.441 371.066 172.959 371.066 172.078H369.066ZM371.951 175.886V177.886C374.014 177.886 375.914 176.711 376.454 174.562L374.515 174.074L372.575 173.586C372.55 173.686 372.51 173.731 372.461 173.766C372.402 173.808 372.249 173.886 371.951 173.886V175.886ZM374.515 174.074L376.304 174.969L376.317 174.941L374.528 174.047L372.739 173.152L372.726 173.18L374.515 174.074ZM374.528 174.047V176.047H376.046V174.047V172.047H374.528V174.047ZM376.046 174.047H374.046V174.088H376.046H378.046V174.047H376.046ZM376.046 174.088L374.068 173.788C373.956 174.529 373.351 175.239 371.951 175.239V177.239V179.239C374.953 179.239 377.561 177.434 378.023 174.388L376.046 174.088Z" fill="white" mask="url(#path-6-outside-1_5848_2130)"/>
<line x1="338.356" y1="282.934" x2="170.356" y2="346.934" stroke="#00A4A2" stroke-width="2"/>
<line x1="340.348" y1="283.063" x2="515.348" y2="348.063" stroke="#00A4A2" stroke-width="2"/>
<line x1="153" y1="381" x2="529" y2="381" stroke="#00A4A2" stroke-width="2"/>
<rect x="211" y="212" width="260" height="72" rx="4" fill="url(#paint2_linear_5848_2130)"/>
<path d="M304.254 253V242.431H308.502C310.487 242.431 311.681 243.442 311.681 245.061V245.075C311.681 246.174 310.868 247.163 309.828 247.338V247.463C311.256 247.617 312.208 248.627 312.208 250.004V250.019C312.208 251.872 310.854 253 308.598 253H304.254ZM308.122 243.771H305.895V246.928H307.843C309.293 246.928 310.048 246.386 310.048 245.361V245.346C310.048 244.35 309.337 243.771 308.122 243.771ZM308.173 248.181H305.895V251.66H308.268C309.748 251.66 310.531 251.052 310.531 249.917V249.902C310.531 248.767 309.718 248.181 308.173 248.181ZM317.475 253.154C315.146 253.154 313.739 251.564 313.739 249.045V249.038C313.739 246.555 315.175 244.892 317.394 244.892C319.613 244.892 320.976 246.496 320.976 248.884V249.44H315.336C315.365 250.964 316.2 251.85 317.511 251.85C318.529 251.85 319.137 251.345 319.328 250.935L319.357 250.876L320.888 250.869L320.873 250.935C320.609 251.982 319.511 253.154 317.475 253.154ZM317.401 246.196C316.317 246.196 315.497 246.936 315.358 248.305H319.401C319.276 246.884 318.478 246.196 317.401 246.196ZM325.758 253.154C323.839 253.154 322.624 252.253 322.47 250.92V250.913H324.059L324.066 250.92C324.264 251.521 324.843 251.923 325.788 251.923C326.769 251.923 327.45 251.477 327.45 250.825V250.81C327.45 250.312 327.077 249.975 326.154 249.763L324.887 249.47C323.385 249.125 322.689 248.444 322.689 247.28V247.272C322.689 245.888 323.979 244.892 325.78 244.892C327.597 244.892 328.761 245.8 328.9 247.097V247.104H327.384V247.089C327.23 246.533 326.667 246.115 325.773 246.115C324.901 246.115 324.271 246.547 324.271 247.185V247.199C324.271 247.697 324.638 248.005 325.531 248.217L326.791 248.503C328.322 248.862 329.054 249.514 329.054 250.664V250.678C329.054 252.15 327.648 253.154 325.758 253.154ZM333.603 253.154C331.808 253.154 330.878 252.077 330.878 250.195V245.046H332.467V249.821C332.467 251.14 332.951 251.792 334.115 251.792C335.39 251.792 336.071 250.993 336.071 249.711V245.046H337.653V253H336.071V251.799H335.946C335.565 252.656 334.76 253.154 333.603 253.154ZM344.047 253V245.046H345.636V246.254H345.753C346.142 245.405 346.903 244.892 348.061 244.892C349.84 244.892 350.822 245.954 350.822 247.851V253H349.24V248.225C349.24 246.906 348.69 246.254 347.526 246.254C346.361 246.254 345.636 247.053 345.636 248.334V253H344.047ZM356.41 253.154C354.074 253.154 352.646 251.594 352.646 249.03V249.016C352.646 246.459 354.081 244.892 356.41 244.892C358.732 244.892 360.167 246.452 360.167 249.016V249.03C360.167 251.594 358.739 253.154 356.41 253.154ZM356.41 251.828C357.772 251.828 358.549 250.788 358.549 249.03V249.016C358.549 247.25 357.772 246.218 356.41 246.218C355.041 246.218 354.271 247.25 354.271 249.016V249.03C354.271 250.795 355.041 251.828 356.41 251.828ZM364.965 253.132C362.965 253.132 361.669 251.528 361.669 249.03V249.016C361.669 246.496 362.943 244.907 364.965 244.907C366.056 244.907 366.986 245.449 367.411 246.306H367.536V241.926H369.118V253H367.536V251.748H367.411C366.95 252.619 366.078 253.132 364.965 253.132ZM365.419 251.777C366.745 251.777 367.558 250.729 367.558 249.03V249.016C367.558 247.316 366.737 246.269 365.419 246.269C364.086 246.269 363.288 247.309 363.288 249.016V249.03C363.288 250.737 364.086 251.777 365.419 251.777ZM374.823 253.154C372.494 253.154 371.088 251.564 371.088 249.045V249.038C371.088 246.555 372.523 244.892 374.743 244.892C376.962 244.892 378.324 246.496 378.324 248.884V249.44H372.685C372.714 250.964 373.549 251.85 374.86 251.85C375.878 251.85 376.486 251.345 376.676 250.935L376.706 250.876L378.236 250.869L378.222 250.935C377.958 251.982 376.859 253.154 374.823 253.154ZM374.75 246.196C373.666 246.196 372.846 246.936 372.707 248.305H376.75C376.625 246.884 375.827 246.196 374.75 246.196Z" fill="white"/>
<rect x="40" y="346" width="260" height="72" rx="4" fill="url(#paint3_linear_5848_2130)"/>
<path d="M133.254 387V376.431H137.502C139.487 376.431 140.681 377.442 140.681 379.061V379.075C140.681 380.174 139.868 381.163 138.828 381.338V381.463C140.256 381.617 141.208 382.627 141.208 384.004V384.019C141.208 385.872 139.854 387 137.598 387H133.254ZM137.122 377.771H134.895V380.928H136.843C138.293 380.928 139.048 380.386 139.048 379.361V379.346C139.048 378.35 138.337 377.771 137.122 377.771ZM137.173 382.181H134.895V385.66H137.268C138.748 385.66 139.531 385.052 139.531 383.917V383.902C139.531 382.767 138.718 382.181 137.173 382.181ZM146.475 387.154C144.146 387.154 142.739 385.564 142.739 383.045V383.038C142.739 380.555 144.175 378.892 146.394 378.892C148.613 378.892 149.976 380.496 149.976 382.884V383.44H144.336C144.365 384.964 145.2 385.85 146.511 385.85C147.529 385.85 148.137 385.345 148.328 384.935L148.357 384.876L149.888 384.869L149.873 384.935C149.609 385.982 148.511 387.154 146.475 387.154ZM146.401 380.196C145.317 380.196 144.497 380.936 144.358 382.305H148.401C148.276 380.884 147.478 380.196 146.401 380.196ZM154.758 387.154C152.839 387.154 151.624 386.253 151.47 384.92V384.913H153.059L153.066 384.92C153.264 385.521 153.843 385.923 154.788 385.923C155.769 385.923 156.45 385.477 156.45 384.825V384.81C156.45 384.312 156.077 383.975 155.154 383.763L153.887 383.47C152.385 383.125 151.689 382.444 151.689 381.28V381.272C151.689 379.888 152.979 378.892 154.78 378.892C156.597 378.892 157.761 379.8 157.9 381.097V381.104H156.384V381.089C156.23 380.533 155.667 380.115 154.773 380.115C153.901 380.115 153.271 380.547 153.271 381.185V381.199C153.271 381.697 153.638 382.005 154.531 382.217L155.791 382.503C157.322 382.862 158.054 383.514 158.054 384.664V384.678C158.054 386.15 156.648 387.154 154.758 387.154ZM162.603 387.154C160.808 387.154 159.878 386.077 159.878 384.195V379.046H161.467V383.821C161.467 385.14 161.951 385.792 163.115 385.792C164.39 385.792 165.071 384.993 165.071 383.711V379.046H166.653V387H165.071V385.799H164.946C164.565 386.656 163.76 387.154 162.603 387.154ZM173.047 387V379.046H174.636V380.254H174.753C175.142 379.405 175.903 378.892 177.061 378.892C178.84 378.892 179.822 379.954 179.822 381.851V387H178.24V382.225C178.24 380.906 177.69 380.254 176.526 380.254C175.361 380.254 174.636 381.053 174.636 382.334V387H173.047ZM185.41 387.154C183.074 387.154 181.646 385.594 181.646 383.03V383.016C181.646 380.459 183.081 378.892 185.41 378.892C187.732 378.892 189.167 380.452 189.167 383.016V383.03C189.167 385.594 187.739 387.154 185.41 387.154ZM185.41 385.828C186.772 385.828 187.549 384.788 187.549 383.03V383.016C187.549 381.25 186.772 380.218 185.41 380.218C184.041 380.218 183.271 381.25 183.271 383.016V383.03C183.271 384.795 184.041 385.828 185.41 385.828ZM193.965 387.132C191.965 387.132 190.669 385.528 190.669 383.03V383.016C190.669 380.496 191.943 378.907 193.965 378.907C195.056 378.907 195.986 379.449 196.411 380.306H196.536V375.926H198.118V387H196.536V385.748H196.411C195.95 386.619 195.078 387.132 193.965 387.132ZM194.419 385.777C195.745 385.777 196.558 384.729 196.558 383.03V383.016C196.558 381.316 195.737 380.269 194.419 380.269C193.086 380.269 192.288 381.309 192.288 383.016V383.03C192.288 384.737 193.086 385.777 194.419 385.777ZM203.823 387.154C201.494 387.154 200.088 385.564 200.088 383.045V383.038C200.088 380.555 201.523 378.892 203.743 378.892C205.962 378.892 207.324 380.496 207.324 382.884V383.44H201.685C201.714 384.964 202.549 385.85 203.86 385.85C204.878 385.85 205.486 385.345 205.676 384.935L205.706 384.876L207.236 384.869L207.222 384.935C206.958 385.982 205.859 387.154 203.823 387.154ZM203.75 380.196C202.666 380.196 201.846 380.936 201.707 382.305H205.75C205.625 380.884 204.827 380.196 203.75 380.196Z" fill="white"/>
<rect x="385" y="346" width="260" height="72" rx="4" fill="url(#paint4_linear_5848_2130)"/>
<path d="M478.254 387V376.431H482.502C484.487 376.431 485.681 377.442 485.681 379.061V379.075C485.681 380.174 484.868 381.163 483.828 381.338V381.463C485.256 381.617 486.208 382.627 486.208 384.004V384.019C486.208 385.872 484.854 387 482.598 387H478.254ZM482.122 377.771H479.895V380.928H481.843C483.293 380.928 484.048 380.386 484.048 379.361V379.346C484.048 378.35 483.337 377.771 482.122 377.771ZM482.173 382.181H479.895V385.66H482.268C483.748 385.66 484.531 385.052 484.531 383.917V383.902C484.531 382.767 483.718 382.181 482.173 382.181ZM491.475 387.154C489.146 387.154 487.739 385.564 487.739 383.045V383.038C487.739 380.555 489.175 378.892 491.394 378.892C493.613 378.892 494.976 380.496 494.976 382.884V383.44H489.336C489.365 384.964 490.2 385.85 491.511 385.85C492.529 385.85 493.137 385.345 493.328 384.935L493.357 384.876L494.888 384.869L494.873 384.935C494.609 385.982 493.511 387.154 491.475 387.154ZM491.401 380.196C490.317 380.196 489.497 380.936 489.358 382.305H493.401C493.276 380.884 492.478 380.196 491.401 380.196ZM499.758 387.154C497.839 387.154 496.624 386.253 496.47 384.92V384.913H498.059L498.066 384.92C498.264 385.521 498.843 385.923 499.788 385.923C500.769 385.923 501.45 385.477 501.45 384.825V384.81C501.45 384.312 501.077 383.975 500.154 383.763L498.887 383.47C497.385 383.125 496.689 382.444 496.689 381.28V381.272C496.689 379.888 497.979 378.892 499.78 378.892C501.597 378.892 502.761 379.8 502.9 381.097V381.104H501.384V381.089C501.23 380.533 500.667 380.115 499.773 380.115C498.901 380.115 498.271 380.547 498.271 381.185V381.199C498.271 381.697 498.638 382.005 499.531 382.217L500.791 382.503C502.322 382.862 503.054 383.514 503.054 384.664V384.678C503.054 386.15 501.648 387.154 499.758 387.154ZM507.603 387.154C505.808 387.154 504.878 386.077 504.878 384.195V379.046H506.467V383.821C506.467 385.14 506.951 385.792 508.115 385.792C509.39 385.792 510.071 384.993 510.071 383.711V379.046H511.653V387H510.071V385.799H509.946C509.565 386.656 508.76 387.154 507.603 387.154ZM518.047 387V379.046H519.636V380.254H519.753C520.142 379.405 520.903 378.892 522.061 378.892C523.84 378.892 524.822 379.954 524.822 381.851V387H523.24V382.225C523.24 380.906 522.69 380.254 521.526 380.254C520.361 380.254 519.636 381.053 519.636 382.334V387H518.047ZM530.41 387.154C528.074 387.154 526.646 385.594 526.646 383.03V383.016C526.646 380.459 528.081 378.892 530.41 378.892C532.732 378.892 534.167 380.452 534.167 383.016V383.03C534.167 385.594 532.739 387.154 530.41 387.154ZM530.41 385.828C531.772 385.828 532.549 384.788 532.549 383.03V383.016C532.549 381.25 531.772 380.218 530.41 380.218C529.041 380.218 528.271 381.25 528.271 383.016V383.03C528.271 384.795 529.041 385.828 530.41 385.828ZM538.965 387.132C536.965 387.132 535.669 385.528 535.669 383.03V383.016C535.669 380.496 536.943 378.907 538.965 378.907C540.056 378.907 540.986 379.449 541.411 380.306H541.536V375.926H543.118V387H541.536V385.748H541.411C540.95 386.619 540.078 387.132 538.965 387.132ZM539.419 385.777C540.745 385.777 541.558 384.729 541.558 383.03V383.016C541.558 381.316 540.737 380.269 539.419 380.269C538.086 380.269 537.288 381.309 537.288 383.016V383.03C537.288 384.737 538.086 385.777 539.419 385.777ZM548.823 387.154C546.494 387.154 545.088 385.564 545.088 383.045V383.038C545.088 380.555 546.523 378.892 548.743 378.892C550.962 378.892 552.324 380.496 552.324 382.884V383.44H546.685C546.714 384.964 547.549 385.85 548.86 385.85C549.878 385.85 550.486 385.345 550.676 384.935L550.706 384.876L552.236 384.869L552.222 384.935C551.958 385.982 550.859 387.154 548.823 387.154ZM548.75 380.196C547.666 380.196 546.846 380.936 546.707 382.305H550.75C550.625 380.884 549.827 380.196 548.75 380.196Z" fill="white"/>
<defs>
<linearGradient id="paint0_linear_5848_2130" x1="601" y1="54" x2="582.455" y2="-42.4337" gradientUnits="userSpaceOnUse">
<stop/>
<stop offset="1" stop-opacity="0.6"/>
</linearGradient>
<linearGradient id="paint1_linear_5848_2130" x1="601" y1="106" x2="582.455" y2="9.56633" gradientUnits="userSpaceOnUse">
<stop/>
<stop offset="1" stop-opacity="0.6"/>
</linearGradient>
<linearGradient id="paint2_linear_5848_2130" x1="601" y1="245.434" x2="558.837" y2="103.311" gradientUnits="userSpaceOnUse">
<stop stop-color="#1AA1A1"/>
<stop offset="1" stop-color="#126E6E"/>
</linearGradient>
<linearGradient id="paint3_linear_5848_2130" x1="430" y1="379.434" x2="387.837" y2="237.311" gradientUnits="userSpaceOnUse">
<stop stop-color="#1AA1A1"/>
<stop offset="1" stop-color="#126E6E"/>
</linearGradient>
<linearGradient id="paint4_linear_5848_2130" x1="775" y1="379.434" x2="732.837" y2="237.311" gradientUnits="userSpaceOnUse">
<stop stop-color="#1AA1A1"/>
<stop offset="1" stop-color="#126E6E"/>
</linearGradient>
</defs>
</svg>
